<svg width="216" height="180" viewBox="0 0 216 180" fill="none" xmlns="http://www.w3.org/2000/svg">
<rect x="1.25635" y="0.854492" width="91.8513" height="131.725" fill="#0FEDBE" fill-opacity="0.55"/>
<rect x="1.25635" y="0.854492" width="91.8513" height="131.725" stroke="#050505" stroke-width="0.712025"/>
<path d="M8.05623 9.37004L7.30433 7.31514C7.26731 7.224 7.22886 7.11577 7.18899 6.99045C7.14911 6.86514 7.10924 6.72985 7.06937 6.5846C7.03234 6.72985 6.99389 6.86656 6.95402 6.99473C6.91414 7.12004 6.87569 7.22969 6.83867 7.32368L6.09104 9.37004H8.05623ZM10.0855 11.7026H9.1969C9.09721 11.7026 9.01604 11.6784 8.95339 11.63C8.89073 11.5787 8.84373 11.5161 8.8124 11.442L8.35101 10.1818H5.79199L5.3306 11.442C5.30782 11.5075 5.26367 11.5674 5.19816 11.6215C5.13266 11.6756 5.05149 11.7026 4.95465 11.7026H4.0575L6.48835 5.5251H7.65892L10.0855 11.7026ZM17.4237 5.5251V11.7026H16.4112V7.71245C16.4112 7.55295 16.4197 7.38064 16.4368 7.19552L14.5699 10.703C14.4816 10.871 14.3463 10.955 14.164 10.955H14.0017C13.8194 10.955 13.6841 10.871 13.5958 10.703L11.7075 7.1827C11.7161 7.27669 11.7232 7.36925 11.7289 7.46039C11.7346 7.55153 11.7374 7.63555 11.7374 7.71245V11.7026H10.7249V5.5251H11.5922C11.6434 5.5251 11.6876 5.52653 11.7246 5.52938C11.7616 5.53222 11.7944 5.53935 11.8229 5.55074C11.8542 5.56213 11.8813 5.58064 11.904 5.60628C11.9297 5.63191 11.9539 5.66609 11.9767 5.70881L13.8265 9.13935C13.8749 9.23048 13.9191 9.32447 13.9589 9.42131C14.0017 9.51814 14.043 9.61783 14.0828 9.72036C14.1227 9.61498 14.164 9.51387 14.2067 9.41704C14.2495 9.31735 14.295 9.22194 14.3434 9.1308L16.1676 5.70881C16.1904 5.66609 16.2146 5.63191 16.2403 5.60628C16.2659 5.58064 16.293 5.56213 16.3214 5.55074C16.3528 5.53935 16.387 5.53222 16.424 5.52938C16.461 5.52653 16.5051 5.5251 16.5564 5.5251H17.4237ZM23.057 5.94805C23.057 6.07906 23.02 6.19868 22.946 6.30691L19.776 10.7841H22.9844V11.7026H18.285V11.2498C18.285 11.1928 18.295 11.1387 18.3149 11.0874C18.3349 11.0333 18.3605 10.9835 18.3918 10.9379L21.5703 6.43935H18.4858V5.5251H23.057V5.94805ZM29.183 5.5251V11.7026H28.5935C28.5023 11.7026 28.4254 11.6884 28.3628 11.6599C28.303 11.6286 28.2446 11.5773 28.1876 11.5061L24.9621 7.38776C24.9792 7.57574 24.9878 7.74947 24.9878 7.90897V11.7026H23.9753V5.5251H24.5776C24.6261 5.5251 24.6674 5.52795 24.7015 5.53365C24.7386 5.5365 24.7699 5.54504 24.7955 5.55928C24.824 5.57067 24.8511 5.58919 24.8767 5.61482C24.9023 5.6376 24.9308 5.66893 24.9621 5.70881L28.2004 9.84425C28.1919 9.74457 28.1848 9.64631 28.1791 9.54947C28.1734 9.45264 28.1705 9.36292 28.1705 9.28033V5.5251H29.183Z" fill="white"/>
<rect x="1.25635" y="132.579" width="91.8513" height="46.2816" fill="#F63C6B" fill-opacity="0.5"/>
<rect x="1.25635" y="132.579" width="91.8513" height="46.2816" stroke="#050505" stroke-width="0.712025"/>
<path d="M9.10718 138.194H7.24452V143.427H6.09532V138.194H4.23266V137.25H9.10718V138.194ZM13.1884 138.373C13.1542 138.433 13.1172 138.477 13.0773 138.506C13.0403 138.531 12.9933 138.544 12.9364 138.544C12.8766 138.544 12.811 138.523 12.7398 138.48C12.6715 138.435 12.5889 138.385 12.4921 138.331C12.3952 138.276 12.2813 138.228 12.1503 138.185C12.0221 138.14 11.8698 138.117 11.6932 138.117C11.5337 138.117 11.3941 138.137 11.2745 138.177C11.1549 138.214 11.0538 138.266 10.9712 138.335C10.8914 138.403 10.8316 138.486 10.7917 138.583C10.7519 138.677 10.7319 138.781 10.7319 138.894C10.7319 139.04 10.7718 139.161 10.8516 139.258C10.9341 139.354 11.0424 139.437 11.1762 139.505C11.3101 139.574 11.4625 139.635 11.6334 139.689C11.8042 139.743 11.9794 139.802 12.1588 139.864C12.3383 139.924 12.5134 139.995 12.6843 140.078C12.8552 140.158 13.0076 140.26 13.1414 140.385C13.2753 140.508 13.3821 140.659 13.4618 140.838C13.5444 141.018 13.5857 141.236 13.5857 141.492C13.5857 141.771 13.5373 142.033 13.4405 142.278C13.3465 142.52 13.2069 142.732 13.0218 142.915C12.8395 143.094 12.616 143.236 12.3511 143.342C12.0862 143.444 11.7829 143.496 11.4411 143.496C11.2446 143.496 11.0509 143.476 10.8601 143.436C10.6693 143.399 10.4856 143.345 10.309 143.273C10.1353 143.202 9.97149 143.117 9.81769 143.017C9.6639 142.917 9.52719 142.806 9.40757 142.684L9.74507 142.133C9.77355 142.093 9.81057 142.06 9.85614 142.035C9.90171 142.006 9.95013 141.992 10.0014 141.992C10.0726 141.992 10.1495 142.022 10.2321 142.082C10.3147 142.138 10.4129 142.203 10.5269 142.274C10.6408 142.345 10.7732 142.41 10.9242 142.47C11.078 142.527 11.2617 142.556 11.4753 142.556C11.8028 142.556 12.0563 142.479 12.2357 142.325C12.4152 142.168 12.5049 141.945 12.5049 141.654C12.5049 141.492 12.4636 141.36 12.381 141.257C12.3012 141.154 12.1944 141.069 12.0606 141.001C11.9267 140.929 11.7743 140.87 11.6035 140.821C11.4326 140.773 11.2588 140.72 11.0823 140.663C10.9057 140.606 10.7319 140.538 10.561 140.458C10.3902 140.378 10.2378 140.274 10.1039 140.146C9.97007 140.018 9.86184 139.859 9.77924 139.668C9.6995 139.474 9.65962 139.236 9.65962 138.954C9.65962 138.729 9.70377 138.51 9.79206 138.296C9.8832 138.083 10.0142 137.893 10.1851 137.728C10.356 137.563 10.5667 137.431 10.8174 137.331C11.068 137.231 11.3557 137.181 11.6804 137.181C12.0449 137.181 12.381 137.238 12.6886 137.352C12.9962 137.466 13.2582 137.626 13.4747 137.831L13.1884 138.373ZM18.2067 142.479V143.427H14.5882V137.25H15.7374V142.479H18.2067ZM22.2912 141.095L21.5393 139.04C21.5023 138.949 21.4638 138.84 21.4239 138.715C21.3841 138.59 21.3442 138.454 21.3043 138.309C21.2673 138.454 21.2288 138.591 21.189 138.719C21.1491 138.845 21.1106 138.954 21.0736 139.048L20.326 141.095H22.2912ZM24.3204 143.427H23.4318C23.3322 143.427 23.251 143.403 23.1883 143.355C23.1257 143.303 23.0787 143.241 23.0473 143.167L22.586 141.906H20.0269L19.5655 143.167C19.5428 143.232 19.4986 143.292 19.4331 143.346C19.3676 143.4 19.2864 143.427 19.1896 143.427H18.2924L20.7233 137.25H21.8939L24.3204 143.427Z" fill="white"/>
<rect x="93.1074" y="0.854492" width="45.5696" height="37.0253" fill="#F63C6B" fill-opacity="0.7"/>
<rect x="93.1074" y="0.854492" width="45.5696" height="37.0253" stroke="#050505" stroke-width="0.712025"/>
<path d="M101.851 5.5251V11.7026H100.698V9.00264H97.7969V11.7026H96.6434V5.5251H97.7969V8.18238H100.698V5.5251H101.851ZM108.712 8.61387C108.712 9.06672 108.637 9.48254 108.486 9.86134C108.335 10.2401 108.123 10.5662 107.849 10.8397C107.576 11.1131 107.247 11.3253 106.862 11.4762C106.478 11.6272 106.051 11.7026 105.581 11.7026H103.227V5.5251H105.581C106.051 5.5251 106.478 5.602 106.862 5.7558C107.247 5.90675 107.576 6.11893 107.849 6.39235C108.123 6.66292 108.335 6.9876 108.486 7.3664C108.637 7.7452 108.712 8.16102 108.712 8.61387ZM107.533 8.61387C107.533 8.27495 107.488 7.97162 107.396 7.7039C107.308 7.43333 107.179 7.20548 107.008 7.02036C106.84 6.83238 106.635 6.68855 106.393 6.58887C106.153 6.48919 105.883 6.43935 105.581 6.43935H104.38V10.7884H105.581C105.883 10.7884 106.153 10.7386 106.393 10.6389C106.635 10.5392 106.84 10.3968 107.008 10.2117C107.179 10.0237 107.308 9.79583 107.396 9.52811C107.488 9.25754 107.533 8.95279 107.533 8.61387Z" fill="white"/>
<rect x="138.677" y="0.854492" width="42.7215" height="37.0253" fill="#F63C6B" fill-opacity="0.9"/>
<rect x="138.677" y="0.854492" width="42.7215" height="37.0253" stroke="#050505" stroke-width="0.712025"/>
<path d="M148.912 5.5251V11.7026H147.899V7.71245C147.899 7.55295 147.908 7.38064 147.925 7.19552L146.058 10.703C145.97 10.871 145.835 10.955 145.652 10.955H145.49C145.308 10.955 145.172 10.871 145.084 10.703L143.196 7.1827C143.204 7.27669 143.211 7.36925 143.217 7.46039C143.223 7.55153 143.226 7.63555 143.226 7.71245V11.7026H142.213V5.5251H143.08C143.132 5.5251 143.176 5.52653 143.213 5.52938C143.25 5.53222 143.283 5.53935 143.311 5.55074C143.342 5.56213 143.37 5.58064 143.392 5.60628C143.418 5.63191 143.442 5.66609 143.465 5.70881L145.315 9.13935C145.363 9.23048 145.407 9.32447 145.447 9.42131C145.49 9.51814 145.531 9.61783 145.571 9.72036C145.611 9.61498 145.652 9.51387 145.695 9.41704C145.738 9.31735 145.783 9.22194 145.832 9.1308L147.656 5.70881C147.679 5.66609 147.703 5.63191 147.729 5.60628C147.754 5.58064 147.781 5.56213 147.81 5.55074C147.841 5.53935 147.875 5.53222 147.912 5.52938C147.949 5.52653 147.993 5.5251 148.045 5.5251H148.912ZM154.532 10.2458C154.595 10.2458 154.651 10.27 154.699 10.3185L155.152 10.8098C154.901 11.1202 154.592 11.358 154.225 11.5232C153.86 11.6884 153.422 11.771 152.909 11.771C152.451 11.771 152.038 11.6927 151.67 11.536C151.306 11.3794 150.994 11.1615 150.735 10.8824C150.475 10.6033 150.276 10.27 150.136 9.8827C150 9.49536 149.931 9.07241 149.931 8.61387C149.931 8.14963 150.005 7.72526 150.154 7.34077C150.302 6.95343 150.51 6.6202 150.777 6.34109C151.048 6.06197 151.37 5.84552 151.743 5.69172C152.116 5.53507 152.529 5.45675 152.982 5.45675C153.432 5.45675 153.83 5.5308 154.178 5.6789C154.528 5.827 154.826 6.02067 155.071 6.25991L154.686 6.79393C154.664 6.82811 154.634 6.85802 154.597 6.88365C154.562 6.90928 154.514 6.9221 154.451 6.9221C154.409 6.9221 154.364 6.91071 154.319 6.88792C154.273 6.86229 154.223 6.83238 154.169 6.79821C154.115 6.76118 154.053 6.72131 153.981 6.67859C153.91 6.63586 153.828 6.59741 153.734 6.56324C153.64 6.52621 153.53 6.49631 153.405 6.47352C153.282 6.44789 153.14 6.43507 152.977 6.43507C152.701 6.43507 152.448 6.48491 152.217 6.5846C151.989 6.68143 151.793 6.82384 151.627 7.01181C151.462 7.19694 151.334 7.42479 151.243 7.69536C151.152 7.96308 151.106 8.26925 151.106 8.61387C151.106 8.96134 151.155 9.27036 151.251 9.54093C151.351 9.8115 151.485 10.0393 151.653 10.2245C151.821 10.4096 152.019 10.552 152.247 10.6517C152.475 10.7485 152.72 10.7969 152.982 10.7969C153.138 10.7969 153.279 10.7884 153.405 10.7713C153.533 10.7542 153.65 10.7272 153.755 10.6901C153.863 10.6531 153.964 10.6061 154.058 10.5492C154.155 10.4893 154.251 10.4167 154.345 10.3313C154.373 10.3056 154.403 10.2857 154.434 10.2715C154.466 10.2544 154.498 10.2458 154.532 10.2458ZM161.425 8.61387C161.425 9.06672 161.349 9.48254 161.198 9.86134C161.047 10.2401 160.835 10.5662 160.562 10.8397C160.288 11.1131 159.959 11.3253 159.575 11.4762C159.19 11.6272 158.763 11.7026 158.293 11.7026H155.939V5.5251H158.293C158.763 5.5251 159.19 5.602 159.575 5.7558C159.959 5.90675 160.288 6.11893 160.562 6.39235C160.835 6.66292 161.047 6.9876 161.198 7.3664C161.349 7.7452 161.425 8.16102 161.425 8.61387ZM160.245 8.61387C160.245 8.27495 160.2 7.97162 160.109 7.7039C160.02 7.43333 159.891 7.20548 159.72 7.02036C159.552 6.83238 159.347 6.68855 159.105 6.58887C158.866 6.48919 158.595 6.43935 158.293 6.43935H157.093V10.7884H158.293C158.595 10.7884 158.866 10.7386 159.105 10.6389C159.347 10.5392 159.552 10.3968 159.72 10.2117C159.891 10.0237 160.02 9.79583 160.109 9.52811C160.2 9.25754 160.245 8.95279 160.245 8.61387Z" fill="white"/>
<rect x="181.398" y="0.854492" width="34.1772" height="37.0253" fill="#0FEDBE" fill-opacity="0.55"/>
<rect x="181.398" y="0.854492" width="34.1772" height="37.0253" stroke="#050505" stroke-width="0.712025"/>
<path d="M190.142 5.5251V11.7026H189.553C189.461 11.7026 189.385 11.6884 189.322 11.6599C189.262 11.6286 189.204 11.5773 189.147 11.5061L185.921 7.38776C185.938 7.57574 185.947 7.74947 185.947 7.90897V11.7026H184.934V5.5251H185.537C185.585 5.5251 185.626 5.52795 185.661 5.53365C185.698 5.5365 185.729 5.54504 185.755 5.55928C185.783 5.57067 185.81 5.58919 185.836 5.61482C185.861 5.6376 185.89 5.66893 185.921 5.70881L189.16 9.84425C189.151 9.74457 189.144 9.64631 189.138 9.54947C189.132 9.45264 189.13 9.36292 189.13 9.28033V5.5251H190.142ZM192.667 8.11403H192.936C193.044 8.11403 193.134 8.09979 193.205 8.07131C193.277 8.03998 193.338 7.99156 193.389 7.92605L195.094 5.76862C195.165 5.67748 195.239 5.61482 195.316 5.58064C195.396 5.54362 195.495 5.5251 195.615 5.5251H196.606L194.525 8.09267C194.403 8.24931 194.276 8.36039 194.145 8.4259C194.239 8.46007 194.323 8.50849 194.397 8.57115C194.474 8.63096 194.547 8.71071 194.615 8.81039L196.76 11.7026H195.747C195.611 11.7026 195.508 11.6841 195.44 11.6471C195.374 11.6072 195.319 11.5503 195.273 11.4762L193.526 9.19488C193.472 9.11798 193.409 9.06387 193.338 9.03254C193.267 9.00121 193.164 8.98555 193.03 8.98555H192.667V11.7026H191.518V5.5251H192.667V8.11403ZM198.529 6.43935V8.15248H200.691V9.03681H198.529V10.7841H201.272V11.7026H197.375V5.5251H201.272V6.43935H198.529Z" fill="white"/>
<rect x="93.1074" y="37.8799" width="26.3449" height="40.5854" fill="#0FEDBE" fill-opacity="0.55"/>
<rect x="93.1074" y="37.8799" width="26.3449" height="40.5854" stroke="#050505" stroke-width="0.712025"/>
<path d="M100.262 47.7796V48.728H96.6434V42.5505H97.7926V47.7796H100.262ZM106.757 45.6393C106.757 46.0921 106.681 46.5122 106.53 46.8995C106.382 47.284 106.171 47.6173 105.898 47.8992C105.625 48.1812 105.296 48.4019 104.911 48.5614C104.527 48.7181 104.099 48.7964 103.63 48.7964C103.162 48.7964 102.737 48.7181 102.352 48.5614C101.968 48.4019 101.637 48.1812 101.361 47.8992C101.088 47.6173 100.875 47.284 100.724 46.8995C100.574 46.5122 100.498 46.0921 100.498 45.6393C100.498 45.1864 100.574 44.7677 100.724 44.3832C100.875 43.9959 101.088 43.6613 101.361 43.3793C101.637 43.0973 101.968 42.878 102.352 42.7214C102.737 42.5619 103.162 42.4821 103.63 42.4821C103.943 42.4821 104.238 42.5192 104.514 42.5932C104.79 42.6644 105.044 42.767 105.274 42.9008C105.505 43.0318 105.712 43.1927 105.894 43.3836C106.079 43.5715 106.236 43.7823 106.364 44.0158C106.492 44.2494 106.589 44.5029 106.654 44.7763C106.723 45.0497 106.757 45.3374 106.757 45.6393ZM105.582 45.6393C105.582 45.3003 105.536 44.997 105.445 44.7293C105.354 44.4587 105.224 44.2295 105.056 44.0415C104.888 43.8535 104.683 43.7097 104.441 43.61C104.202 43.5103 103.931 43.4605 103.63 43.4605C103.328 43.4605 103.056 43.5103 102.814 43.61C102.574 43.7097 102.369 43.8535 102.198 44.0415C102.03 44.2295 101.901 44.4587 101.81 44.7293C101.718 44.997 101.673 45.3003 101.673 45.6393C101.673 45.9782 101.718 46.2829 101.81 46.5535C101.901 46.8212 102.03 47.0491 102.198 47.237C102.369 47.4222 102.574 47.5646 102.814 47.6643C103.056 47.7639 103.328 47.8138 103.63 47.8138C103.931 47.8138 104.202 47.7639 104.441 47.6643C104.683 47.5646 104.888 47.4222 105.056 47.237C105.224 47.0491 105.354 46.8212 105.445 46.5535C105.536 46.2829 105.582 45.9782 105.582 45.6393ZM115.86 42.5505L113.942 48.728H112.904L111.554 44.5071C111.517 44.4046 111.483 44.2793 111.452 44.1312C111.435 44.2024 111.417 44.2693 111.4 44.332C111.383 44.3946 111.365 44.453 111.345 44.5071L109.982 48.728H108.94L107.026 42.5505H107.987C108.087 42.5505 108.169 42.5747 108.235 42.6231C108.303 42.6687 108.349 42.7313 108.371 42.8111L109.422 46.5065C109.445 46.5976 109.466 46.6973 109.486 46.8056C109.509 46.9109 109.532 47.022 109.555 47.1388C109.578 47.0192 109.602 46.9067 109.627 46.8013C109.656 46.6959 109.686 46.5976 109.717 46.5065L110.93 42.8111C110.953 42.7456 110.997 42.6858 111.063 42.6317C111.131 42.5776 111.214 42.5505 111.311 42.5505H111.648C111.748 42.5505 111.829 42.5747 111.892 42.6231C111.954 42.6715 112.001 42.7342 112.033 42.8111L113.242 46.5065C113.301 46.6831 113.356 46.8867 113.404 47.1174C113.441 46.8924 113.482 46.6888 113.528 46.5065L114.579 42.8111C114.596 42.7399 114.639 42.6787 114.707 42.6274C114.778 42.5761 114.862 42.5505 114.959 42.5505H115.86Z" fill="white"/>
<rect x="93.1074" y="78.4653" width="26.3449" height="36.3133" fill="#F63C6B" fill-opacity="0.9"/>
<rect x="93.1074" y="78.4653" width="26.3449" height="36.3133" stroke="#050505" stroke-width="0.712025"/>
<path d="M100.958 84.0801H99.0956V89.3135H97.9464V84.0801H96.0837V83.1359H100.958V84.0801ZM103.57 87.1176C103.57 87.4651 103.527 87.7783 103.442 88.0575C103.356 88.3366 103.228 88.5744 103.057 88.7709C102.889 88.9674 102.678 89.1184 102.425 89.2238C102.171 89.3291 101.877 89.3818 101.541 89.3818C101.387 89.3818 101.236 89.3719 101.088 89.3519C100.94 89.3348 100.784 89.3064 100.622 89.2665C100.631 89.1526 100.641 89.0386 100.652 88.9247C100.663 88.8108 100.673 88.6969 100.682 88.5829C100.69 88.5203 100.715 88.4704 100.755 88.4334C100.797 88.3935 100.857 88.3736 100.934 88.3736C100.982 88.3736 101.045 88.3836 101.122 88.4035C101.202 88.4234 101.301 88.4334 101.421 88.4334C101.583 88.4334 101.727 88.4106 101.852 88.3651C101.978 88.3166 102.082 88.2412 102.164 88.1386C102.25 88.0361 102.314 87.9037 102.357 87.7413C102.399 87.5761 102.421 87.3768 102.421 87.1432V83.1359H103.57V87.1176ZM109.907 89.3135H108.762C108.682 89.3135 108.618 89.2935 108.57 89.2537C108.524 89.2138 108.487 89.1682 108.459 89.117L107.028 86.7459C107.005 86.8171 106.978 86.8783 106.946 86.9296L105.575 89.117C105.541 89.1654 105.501 89.2109 105.455 89.2537C105.413 89.2935 105.356 89.3135 105.285 89.3135H104.212L106.263 86.135L104.293 83.1359H105.438C105.518 83.1359 105.575 83.1473 105.609 83.1701C105.646 83.1901 105.68 83.2242 105.712 83.2727L107.117 85.5369C107.146 85.4657 107.18 85.3945 107.22 85.3233L108.51 83.294C108.541 83.2399 108.576 83.2 108.613 83.1744C108.65 83.1488 108.697 83.1359 108.754 83.1359H109.852L107.865 86.088L109.907 89.3135Z" fill="white"/>
<rect x="93.1074" y="114.779" width="26.3449" height="35.6013" fill="#0FEDBE" fill-opacity="0.55"/>
<rect x="93.1074" y="114.779" width="26.3449" height="35.6013" stroke="#050505" stroke-width="0.712025"/>
<path d="M101.736 122.529V125.029C101.422 125.259 101.088 125.429 100.732 125.537C100.379 125.642 99.9999 125.695 99.5954 125.695C99.0913 125.695 98.6342 125.617 98.2241 125.46C97.8168 125.303 97.4679 125.086 97.1774 124.806C96.8897 124.527 96.6676 124.194 96.5109 123.807C96.3543 123.419 96.276 122.996 96.276 122.538C96.276 122.074 96.3515 121.648 96.5024 121.261C96.6534 120.873 96.867 120.54 97.1432 120.261C97.4223 119.982 97.7598 119.765 98.1557 119.612C98.5516 119.458 98.9959 119.381 99.4886 119.381C99.7393 119.381 99.9728 119.401 100.189 119.441C100.409 119.481 100.611 119.536 100.796 119.607C100.984 119.676 101.155 119.76 101.309 119.859C101.462 119.959 101.603 120.069 101.732 120.188L101.403 120.709C101.351 120.792 101.284 120.843 101.202 120.863C101.119 120.88 101.029 120.859 100.933 120.799C100.839 120.745 100.745 120.691 100.651 120.637C100.557 120.583 100.451 120.536 100.335 120.496C100.221 120.456 100.091 120.423 99.9458 120.398C99.8034 120.372 99.6382 120.359 99.4502 120.359C99.1454 120.359 98.8692 120.41 98.6214 120.513C98.3765 120.615 98.1671 120.762 97.9934 120.953C97.8196 121.144 97.6858 121.373 97.5918 121.641C97.4978 121.909 97.4508 122.208 97.4508 122.538C97.4508 122.891 97.5007 123.207 97.6003 123.486C97.7029 123.763 97.8453 123.998 98.0276 124.191C98.2127 124.382 98.4348 124.529 98.694 124.631C98.9532 124.731 99.2423 124.781 99.5613 124.781C99.7891 124.781 99.9928 124.757 100.172 124.708C100.352 124.66 100.527 124.594 100.698 124.512V123.392H99.9201C99.8461 123.392 99.7877 123.372 99.745 123.333C99.7051 123.29 99.6852 123.239 99.6852 123.179V122.529H101.736ZM109.542 119.449V125.627H108.529V121.637C108.529 121.477 108.538 121.305 108.555 121.12L106.688 124.627C106.6 124.795 106.464 124.879 106.282 124.879H106.12C105.937 124.879 105.802 124.795 105.714 124.627L103.826 121.107C103.834 121.201 103.841 121.293 103.847 121.384C103.853 121.476 103.856 121.56 103.856 121.637V125.627H102.843V119.449H103.71C103.762 119.449 103.806 119.451 103.843 119.453C103.88 119.456 103.912 119.463 103.941 119.475C103.972 119.486 103.999 119.505 104.022 119.53C104.048 119.556 104.072 119.59 104.095 119.633L105.945 123.063C105.993 123.155 106.037 123.249 106.077 123.345C106.12 123.442 106.161 123.542 106.201 123.644C106.241 123.539 106.282 123.438 106.325 123.341C106.368 123.241 106.413 123.146 106.462 123.055L108.286 119.633C108.309 119.59 108.333 119.556 108.358 119.53C108.384 119.505 108.411 119.486 108.44 119.475C108.471 119.463 108.505 119.456 108.542 119.453C108.579 119.451 108.623 119.449 108.674 119.449H109.542Z" fill="white"/>
<rect x="93.1074" y="150.38" width="26.3449" height="28.481" fill="#0FEDBE" fill-opacity="0.55"/>
<rect x="93.1074" y="150.38" width="26.3449" height="28.481" stroke="#050505" stroke-width="0.712025"/>
<path d="M97.7969 155.965V157.793H100.112V158.712H97.7969V161.228H96.6434V155.05H100.54V155.965H97.7969Z" fill="white"/>
<rect x="119.452" y="37.8799" width="24.0309" height="35.6013" fill="#F63C6B" fill-opacity="0.9"/>
<rect x="119.452" y="37.8799" width="24.0309" height="35.6013" stroke="#050505" stroke-width="0.712025"/>
<rect x="143.483" y="37.8799" width="24.0309" height="35.6013" fill="#F63C6B" fill-opacity="0.9"/>
<rect x="143.483" y="37.8799" width="24.0309" height="35.6013" stroke="#050505" stroke-width="0.712025"/>
<path d="M152.312 42.5505L149.817 48.728H148.779L146.284 42.5505H147.207C147.307 42.5505 147.388 42.5747 147.45 42.6231C147.513 42.6715 147.56 42.7342 147.591 42.8111L149.048 46.5791C149.097 46.7016 149.142 46.8369 149.185 46.985C149.23 47.1302 149.273 47.2826 149.313 47.4421C149.347 47.2826 149.384 47.1302 149.424 46.985C149.464 46.8369 149.508 46.7016 149.557 46.5791L151.005 42.8111C151.028 42.7456 151.072 42.6858 151.137 42.6317C151.206 42.5776 151.288 42.5505 151.385 42.5505H152.312ZM156.091 43.6741C156.057 43.7339 156.02 43.778 155.98 43.8065C155.943 43.8321 155.896 43.845 155.839 43.845C155.779 43.845 155.713 43.8236 155.642 43.7809C155.574 43.7353 155.491 43.6855 155.394 43.6313C155.298 43.5772 155.184 43.5288 155.053 43.4861C154.925 43.4405 154.772 43.4177 154.596 43.4177C154.436 43.4177 154.297 43.4377 154.177 43.4776C154.057 43.5146 153.956 43.5673 153.874 43.6356C153.794 43.704 153.734 43.7866 153.694 43.8834C153.654 43.9774 153.634 44.0813 153.634 44.1953C153.634 44.3405 153.674 44.4616 153.754 44.5584C153.837 44.6552 153.945 44.7378 154.079 44.8062C154.213 44.8745 154.365 44.9358 154.536 44.9899C154.707 45.044 154.882 45.1024 155.061 45.1651C155.241 45.2249 155.416 45.2961 155.587 45.3787C155.758 45.4584 155.91 45.5609 156.044 45.6863C156.178 45.8087 156.285 45.9597 156.364 46.1391C156.447 46.3185 156.488 46.5364 156.488 46.7927C156.488 47.0719 156.44 47.3339 156.343 47.5788C156.249 47.8209 156.109 48.0331 155.924 48.2154C155.742 48.3948 155.518 48.5372 155.254 48.6426C154.989 48.7451 154.685 48.7964 154.344 48.7964C154.147 48.7964 153.953 48.7764 153.763 48.7366C153.572 48.6995 153.388 48.6454 153.211 48.5742C153.038 48.503 152.874 48.4176 152.72 48.3179C152.566 48.2182 152.43 48.1071 152.31 47.9847L152.647 47.4336C152.676 47.3937 152.713 47.3609 152.759 47.3353C152.804 47.3068 152.853 47.2926 152.904 47.2926C152.975 47.2926 153.052 47.3225 153.135 47.3823C153.217 47.4393 153.315 47.5033 153.429 47.5745C153.543 47.6457 153.676 47.7113 153.827 47.7711C153.98 47.828 154.164 47.8565 154.378 47.8565C154.705 47.8565 154.959 47.7796 155.138 47.6258C155.318 47.4692 155.407 47.2456 155.407 46.9551C155.407 46.7927 155.366 46.6603 155.283 46.5578C155.204 46.4552 155.097 46.3698 154.963 46.3014C154.829 46.2302 154.677 46.1704 154.506 46.122C154.335 46.0736 154.161 46.0209 153.985 45.9639C153.808 45.907 153.634 45.8386 153.463 45.7589C153.293 45.6791 153.14 45.5752 153.006 45.447C152.872 45.3189 152.764 45.1594 152.682 44.9685C152.602 44.7749 152.562 44.537 152.562 44.2551C152.562 44.0301 152.606 43.8108 152.694 43.5972C152.786 43.3836 152.917 43.1942 153.088 43.029C153.258 42.8638 153.469 42.7313 153.72 42.6317C153.97 42.532 154.258 42.4821 154.583 42.4821C154.947 42.4821 155.283 42.5391 155.591 42.653C155.899 42.767 156.161 42.9264 156.377 43.1315L156.091 43.6741ZM161.733 47.2712C161.796 47.2712 161.851 47.2954 161.9 47.3439L162.352 47.8351C162.102 48.1456 161.793 48.3834 161.425 48.5486C161.061 48.7138 160.622 48.7964 160.109 48.7964C159.651 48.7964 159.238 48.7181 158.871 48.5614C158.506 48.4048 158.194 48.1869 157.935 47.9078C157.676 47.6287 157.476 47.2954 157.337 46.9081C157.2 46.5207 157.132 46.0978 157.132 45.6393C157.132 45.175 157.206 44.7507 157.354 44.3662C157.502 43.9788 157.71 43.6456 157.978 43.3665C158.248 43.0874 158.57 42.8709 158.943 42.7171C159.316 42.5605 159.729 42.4821 160.182 42.4821C160.632 42.4821 161.031 42.5562 161.378 42.7043C161.729 42.8524 162.026 43.0461 162.271 43.2853L161.887 43.8193C161.864 43.8535 161.834 43.8834 161.797 43.909C161.763 43.9347 161.714 43.9475 161.652 43.9475C161.609 43.9475 161.565 43.9361 161.519 43.9133C161.474 43.8877 161.424 43.8578 161.37 43.8236C161.316 43.7866 161.253 43.7467 161.182 43.704C161.111 43.6613 161.028 43.6228 160.934 43.5886C160.84 43.5516 160.73 43.5217 160.605 43.4989C160.483 43.4733 160.34 43.4605 160.178 43.4605C159.902 43.4605 159.648 43.5103 159.417 43.61C159.19 43.7068 158.993 43.8492 158.828 44.0372C158.663 44.2223 158.534 44.4502 158.443 44.7207C158.352 44.9885 158.307 45.2946 158.307 45.6393C158.307 45.9867 158.355 46.2957 158.452 46.5663C158.552 46.8369 158.685 47.0647 158.853 47.2499C159.022 47.435 159.219 47.5774 159.447 47.6771C159.675 47.7739 159.92 47.8223 160.182 47.8223C160.339 47.8223 160.48 47.8138 160.605 47.7967C160.733 47.7796 160.85 47.7526 160.955 47.7155C161.064 47.6785 161.165 47.6315 161.259 47.5745C161.356 47.5147 161.451 47.4421 161.545 47.3567C161.573 47.331 161.603 47.3111 161.635 47.2969C161.666 47.2798 161.699 47.2712 161.733 47.2712Z" fill="white"/>
<rect x="167.514" y="37.8799" width="24.0309" height="35.6013" fill="#0FEDBE" fill-opacity="0.8"/>
<rect x="167.514" y="37.8799" width="24.0309" height="35.6013" stroke="#050505" stroke-width="0.712025"/>
<rect x="191.545" y="37.8799" width="24.0309" height="35.6013" fill="#F63C6B" fill-opacity="0.7"/>
<rect x="191.545" y="37.8799" width="24.0309" height="35.6013" stroke="#050505" stroke-width="0.712025"/>
<rect x="119.452" y="73.4812" width="30.6171" height="28.7658" fill="#0FEDBE" fill-opacity="0.8"/>
<rect x="119.452" y="73.4812" width="30.6171" height="28.7658" stroke="#050505" stroke-width="0.712025"/>
<rect x="119.452" y="102.247" width="30.6171" height="27.3418" fill="#0FEDBE" fill-opacity="0.4"/>
<rect x="119.452" y="102.247" width="30.6171" height="27.3418" stroke="#050505" stroke-width="0.712025"/>
<rect x="119.452" y="129.589" width="30.6171" height="25.2057" fill="#F63C6B" fill-opacity="0.5"/>
<rect x="119.452" y="129.589" width="30.6171" height="25.2057" stroke="#050505" stroke-width="0.712025"/>
<rect x="119.452" y="154.794" width="30.6171" height="24.0665" fill="#0FEDBE" fill-opacity="0.8"/>
<rect x="119.452" y="154.794" width="30.6171" height="24.0665" stroke="#050505" stroke-width="0.712025"/>
<rect x="150.069" y="73.4812" width="33.2872" height="25.6329" fill="#F63C6B" fill-opacity="0.9"/>
<rect x="150.069" y="73.4812" width="33.2872" height="25.6329" stroke="#050505" stroke-width="0.712025"/>
<path d="M155.417 82.5817C155.595 82.5817 155.744 82.5604 155.865 82.5176C155.986 82.4749 156.082 82.418 156.154 82.3468C156.227 82.2755 156.279 82.1925 156.31 82.0975C156.344 82.0026 156.36 81.9017 156.36 81.7949C156.36 81.6834 156.342 81.5837 156.307 81.4959C156.271 81.4057 156.215 81.3297 156.139 81.268C156.063 81.2039 155.965 81.1553 155.844 81.1221C155.725 81.0888 155.582 81.0722 155.413 81.0722H154.448V82.5817H155.417ZM154.448 78.9219V80.41H155.21C155.538 80.41 155.785 80.3507 155.951 80.232C156.119 80.1134 156.203 79.9247 156.203 79.666C156.203 79.3978 156.128 79.2067 155.976 79.0928C155.824 78.9789 155.586 78.9219 155.264 78.9219H154.448ZM155.264 78.1814C155.601 78.1814 155.889 78.2134 156.129 78.2775C156.368 78.3416 156.564 78.433 156.716 78.5517C156.87 78.6703 156.983 78.8139 157.054 78.9824C157.126 79.1509 157.161 79.3408 157.161 79.5521C157.161 79.6731 157.143 79.7894 157.108 79.9009C157.072 80.0101 157.016 80.1134 156.94 80.2107C156.867 80.3056 156.772 80.3922 156.656 80.4706C156.542 80.5489 156.405 80.6153 156.246 80.6699C156.953 80.8289 157.307 81.2111 157.307 81.8163C157.307 82.0346 157.266 82.2364 157.183 82.4215C157.099 82.6066 156.978 82.7668 156.819 82.9021C156.66 83.035 156.465 83.1395 156.232 83.2154C155.999 83.2914 155.734 83.3293 155.434 83.3293H153.491V78.1814H155.264ZM160.919 79.1177C160.89 79.1676 160.859 79.2043 160.826 79.2281C160.795 79.2494 160.756 79.2601 160.708 79.2601C160.659 79.2601 160.604 79.2423 160.545 79.2067C160.488 79.1687 160.419 79.1272 160.338 79.0821C160.258 79.037 160.163 78.9967 160.053 78.9611C159.947 78.9231 159.82 78.9041 159.672 78.9041C159.54 78.9041 159.423 78.9207 159.324 78.9539C159.224 78.9848 159.14 79.0287 159.071 79.0857C159.004 79.1426 158.955 79.2115 158.921 79.2922C158.888 79.3705 158.871 79.4571 158.871 79.5521C158.871 79.6731 158.905 79.774 158.971 79.8547C159.04 79.9354 159.13 80.0042 159.242 80.0611C159.353 80.1181 159.48 80.1691 159.623 80.2142C159.765 80.2593 159.911 80.308 160.061 80.3602C160.21 80.41 160.356 80.4694 160.498 80.5382C160.641 80.6047 160.768 80.6901 160.879 80.7945C160.991 80.8966 161.08 81.0224 161.146 81.1719C161.215 81.3214 161.25 81.503 161.25 81.7166C161.25 81.9492 161.209 82.1676 161.129 82.3717C161.05 82.5734 160.934 82.7502 160.78 82.9021C160.628 83.0517 160.441 83.1703 160.221 83.2581C160 83.3436 159.747 83.3863 159.462 83.3863C159.299 83.3863 159.137 83.3697 158.978 83.3365C158.819 83.3056 158.666 83.2605 158.519 83.2012C158.374 83.1418 158.238 83.0706 158.11 82.9876C157.981 82.9045 157.868 82.8119 157.768 82.7099L158.049 82.2506C158.073 82.2174 158.104 82.1901 158.142 82.1687C158.18 82.145 158.22 82.1331 158.263 82.1331C158.322 82.1331 158.386 82.1581 158.455 82.2079C158.524 82.2554 158.606 82.3088 158.701 82.3681C158.796 82.4274 158.906 82.482 159.032 82.5319C159.16 82.5793 159.313 82.6031 159.491 82.6031C159.764 82.6031 159.975 82.539 160.125 82.4108C160.274 82.2803 160.349 82.094 160.349 81.8519C160.349 81.7166 160.314 81.6062 160.246 81.5208C160.179 81.4354 160.09 81.3642 159.979 81.3072C159.867 81.2479 159.74 81.198 159.598 81.1577C159.455 81.1173 159.311 81.0734 159.163 81.0259C159.016 80.9785 158.871 80.9215 158.729 80.8551C158.587 80.7886 158.46 80.702 158.348 80.5952C158.237 80.4884 158.146 80.3555 158.078 80.1964C158.011 80.035 157.978 79.8369 157.978 79.6019C157.978 79.4144 158.015 79.2316 158.088 79.0536C158.164 78.8756 158.273 78.7178 158.416 78.5801C158.558 78.4425 158.734 78.3321 158.943 78.249C159.152 78.166 159.391 78.1244 159.662 78.1244C159.966 78.1244 160.246 78.1719 160.502 78.2668C160.758 78.3618 160.977 78.4947 161.157 78.6656L160.919 79.1177ZM166.254 83.3293H165.3C165.234 83.3293 165.18 83.3127 165.14 83.2795C165.102 83.2463 165.071 83.2083 165.047 83.1656L163.855 81.1897C163.836 81.249 163.813 81.3001 163.787 81.3428L162.644 83.1656C162.616 83.2059 162.583 83.2439 162.545 83.2795C162.509 83.3127 162.462 83.3293 162.402 83.3293H161.509L163.217 80.6806L161.576 78.1814H162.53C162.597 78.1814 162.644 78.1909 162.673 78.2099C162.704 78.2265 162.732 78.255 162.758 78.2953L163.93 80.1822C163.953 80.1229 163.982 80.0635 164.015 80.0042L165.09 78.3131C165.116 78.268 165.145 78.2348 165.176 78.2134C165.206 78.1921 165.246 78.1814 165.293 78.1814H166.208L164.553 80.6414L166.254 83.3293Z" fill="white"/>
<rect x="183.356" y="73.4812" width="10.7397" height="25.6329" fill="#F63C6B" fill-opacity="0.7"/>
<rect x="183.356" y="73.4812" width="10.7397" height="25.6329" stroke="#050505" stroke-width="0.712025"/>
<rect x="194.096" y="73.4812" width="10.7397" height="25.6329" fill="#0FEDBE" fill-opacity="0.55"/>
<rect x="194.096" y="73.4812" width="10.7397" height="25.6329" stroke="#050505" stroke-width="0.712025"/>
<rect x="204.836" y="73.4812" width="10.7397" height="25.6329" fill="#F63C6B" fill-opacity="0.5"/>
<rect x="204.836" y="73.4812" width="10.7397" height="25.6329" stroke="#050505" stroke-width="0.712025"/>
<rect x="150.069" y="99.114" width="24.2089" height="20.6487" fill="#0FEDBE" fill-opacity="0.4"/>
<rect x="150.069" y="99.114" width="24.2089" height="20.6487" stroke="#050505" stroke-width="0.712025"/>
<rect x="174.278" y="99.114" width="22.6068" height="20.6487" fill="#F63C6B" fill-opacity="0.9"/>
<rect x="174.278" y="99.114" width="22.6068" height="20.6487" stroke="#050505" stroke-width="0.712025"/>
<rect x="196.885" y="99.114" width="18.6907" height="20.6487" fill="#0FEDBE" fill-opacity="0.8"/>
<rect x="196.885" y="99.114" width="18.6907" height="20.6487" stroke="#050505" stroke-width="0.712025"/>
<rect x="150.069" y="119.763" width="12.1044" height="17.3734" fill="#F63C6B" fill-opacity="0.7"/>
<rect x="150.069" y="119.763" width="12.1044" height="17.3734" stroke="#050505" stroke-width="0.712025"/>
<rect x="150.069" y="137.136" width="12.1044" height="22.8916" fill="#0FEDBE" fill-opacity="0.4"/>
<rect x="150.069" y="137.136" width="12.1044" height="22.8916" stroke="#050505" stroke-width="0.712025"/>
<rect x="150.069" y="160.028" width="12.1044" height="9.41653" fill="#0FEDBE" fill-opacity="0.8"/>
<rect x="150.069" y="160.028" width="12.1044" height="9.41653" stroke="#050505" stroke-width="0.712025"/>
<rect x="150.069" y="169.445" width="12.1044" height="9.41653" fill="#0FEDBE" fill-opacity="0.8"/>
<rect x="150.069" y="169.445" width="12.1044" height="9.41653" stroke="#050505" stroke-width="0.712025"/>
<rect x="162.174" y="119.763" width="12.1044" height="17.3734" fill="#0FEDBE" fill-opacity="0.55"/>
<rect x="162.174" y="119.763" width="12.1044" height="17.3734" stroke="#050505" stroke-width="0.712025"/>
<rect x="162.174" y="137.136" width="12.1044" height="17.1954" fill="#F63C6B" fill-opacity="0.9"/>
<rect x="162.174" y="137.136" width="12.1044" height="17.1954" stroke="#050505" stroke-width="0.712025"/>
<rect x="162.174" y="154.332" width="12.1044" height="8.17642" fill="#F63C6B" fill-opacity="0.9"/>
<rect x="162.174" y="154.332" width="12.1044" height="8.17642" stroke="#050505" stroke-width="0.712025"/>
<rect x="162.174" y="162.508" width="12.1044" height="8.17642" fill="#F63C6B" fill-opacity="0.7"/>
<rect x="162.174" y="162.508" width="12.1044" height="8.17642" stroke="#050505" stroke-width="0.712025"/>
<rect x="162.174" y="170.685" width="12.1044" height="8.17642" fill="#0FEDBE" fill-opacity="0.8"/>
<rect x="162.174" y="170.685" width="12.1044" height="8.17642" stroke="#050505" stroke-width="0.712025"/>
<rect x="174.278" y="119.763" width="10.3244" height="14.9525" fill="#0FEDBE" fill-opacity="0.8"/>
<rect x="174.278" y="119.763" width="10.3244" height="14.9525" stroke="#050505" stroke-width="0.712025"/>
<rect x="184.603" y="119.763" width="10.3244" height="14.9525" fill="#0FEDBE" fill-opacity="0.55"/>
<rect x="184.603" y="119.763" width="10.3244" height="14.9525" stroke="#050505" stroke-width="0.712025"/>
<rect x="194.927" y="119.763" width="10.3244" height="14.9525" fill="#F63C6B" fill-opacity="0.7"/>
<rect x="194.927" y="119.763" width="10.3244" height="14.9525" stroke="#050505" stroke-width="0.712025"/>
<rect x="205.251" y="119.763" width="10.3244" height="14.9525" fill="#0FEDBE" fill-opacity="0.4"/>
<rect x="205.251" y="119.763" width="10.3244" height="14.9525" stroke="#050505" stroke-width="0.712025"/>
<rect x="174.278" y="134.716" width="6.44778" height="16.3766" fill="#0FEDBE" fill-opacity="0.4"/>
<rect x="174.278" y="134.716" width="6.44778" height="16.3766" stroke="#050505" stroke-width="0.712025"/>
<rect x="180.726" y="134.716" width="6.44778" height="16.3766" fill="#0FEDBE" fill-opacity="0.8"/>
<rect x="180.726" y="134.716" width="6.44778" height="16.3766" stroke="#050505" stroke-width="0.712025"/>
<rect x="187.174" y="134.716" width="6.44778" height="16.3766" fill="#F63C6B" fill-opacity="0.9"/>
<rect x="187.174" y="134.716" width="6.44778" height="16.3766" stroke="#050505" stroke-width="0.712025"/>
<rect x="193.622" y="134.716" width="12.2231" height="16.3766" fill="#0FEDBE" fill-opacity="0.4"/>
<rect x="193.622" y="134.716" width="12.2231" height="16.3766" stroke="#050505" stroke-width="0.712025"/>
<rect x="205.845" y="134.716" width="9.73101" height="16.3766" fill="#F63C6B" fill-opacity="0.9"/>
<rect x="205.845" y="134.716" width="9.73101" height="16.3766" stroke="#050505" stroke-width="0.712025"/>
<rect x="174.278" y="151.092" width="7.12025" height="13.8845" fill="#0FEDBE" fill-opacity="0.4"/>
<rect x="174.278" y="151.092" width="7.12025" height="13.8845" stroke="#050505" stroke-width="0.712025"/>
<rect x="174.278" y="164.977" width="7.12025" height="13.8845" fill="#0FEDBE" fill-opacity="0.4"/>
<rect x="174.278" y="164.977" width="7.12025" height="13.8845" stroke="#050505" stroke-width="0.712025"/>
<rect x="181.398" y="151.092" width="7.12025" height="9.25633" fill="#0FEDBE" fill-opacity="0.55"/>
<rect x="181.398" y="151.092" width="7.12025" height="9.25633" stroke="#050505" stroke-width="0.712025"/>
<rect x="181.398" y="160.348" width="7.12025" height="9.25633" fill="#0FEDBE" fill-opacity="0.4"/>
<rect x="181.398" y="160.348" width="7.12025" height="9.25633" stroke="#050505" stroke-width="0.712025"/>
<rect x="181.398" y="169.605" width="7.12025" height="9.25633" fill="#0FEDBE" fill-opacity="0.4"/>
<rect x="181.398" y="169.605" width="7.12025" height="9.25633" stroke="#050505" stroke-width="0.712025"/>
<rect x="188.519" y="151.092" width="5.10285" height="11.3924" fill="#0FEDBE" fill-opacity="0.4"/>
<rect x="188.519" y="151.092" width="5.10285" height="11.3924" stroke="#050505" stroke-width="0.712025"/>
<rect x="193.622" y="151.092" width="12.2231" height="11.3924" fill="#F63C6B" fill-opacity="0.9"/>
<rect x="193.622" y="151.092" width="12.2231" height="11.3924" stroke="#050505" stroke-width="0.712025"/>
<rect x="205.845" y="151.092" width="9.73101" height="11.3924" fill="#0FEDBE" fill-opacity="0.8"/>
<rect x="205.845" y="151.092" width="9.73101" height="11.3924" stroke="#050505" stroke-width="0.712025"/>
<rect x="188.519" y="162.484" width="8.5443" height="8.18829" fill="#0FEDBE" fill-opacity="0.4"/>
<rect x="188.519" y="162.484" width="8.5443" height="8.18829" stroke="#050505" stroke-width="0.712025"/>
<rect x="188.519" y="170.673" width="8.5443" height="8.18829" fill="#F63C6B" fill-opacity="0.5"/>
<rect x="188.519" y="170.673" width="8.5443" height="8.18829" stroke="#050505" stroke-width="0.712025"/>
<rect x="197.063" y="162.484" width="9.61234" height="5.45886" fill="#F63C6B" fill-opacity="0.5"/>
<rect x="197.063" y="162.484" width="9.61234" height="5.45886" stroke="#050505" stroke-width="0.712025"/>
<rect x="206.676" y="162.484" width="8.90032" height="5.45886" fill="#0FEDBE" fill-opacity="0.4"/>
<rect x="206.676" y="162.484" width="8.90032" height="5.45886" stroke="#050505" stroke-width="0.712025"/>
<rect x="197.063" y="167.943" width="8.90032" height="5.45886" fill="#0FEDBE" fill-opacity="0.4"/>
<rect x="197.063" y="167.943" width="8.90032" height="5.45886" stroke="#050505" stroke-width="0.712025"/>
<rect x="205.964" y="167.943" width="9.61234" height="5.45886" fill="#F63C6B" fill-opacity="0.5"/>
<rect x="205.964" y="167.943" width="9.61234" height="5.45886" stroke="#050505" stroke-width="0.712025"/>
<rect x="197.063" y="173.402" width="9.25633" height="5.45886" fill="#F63C6B" fill-opacity="0.7"/>
<rect x="197.063" y="173.402" width="9.25633" height="5.45886" stroke="#050505" stroke-width="0.712025"/>
<rect x="206.32" y="173.402" width="9.25633" height="5.45886" fill="#F63C6B" fill-opacity="0.5"/>
<rect x="206.32" y="173.402" width="9.25633" height="5.45886" stroke="#050505" stroke-width="0.712025"/>
</svg>
