<svg width="216" height="183" viewBox="0 0 216 183" fill="none" xmlns="http://www.w3.org/2000/svg">
<rect x="1.25635" y="1" width="49.1297" height="75.9494" fill="#F63C6B" fill-opacity="0.5"/>
<rect x="1.25635" y="1" width="49.1297" height="75.9494" stroke="#050505" stroke-width="0.712025"/>
<path d="M7.14626 9.65226C7.14626 9.99973 7.10354 10.313 7.0181 10.5921C6.93266 10.8712 6.80449 11.1091 6.63361 11.3056C6.46557 11.5021 6.25481 11.653 6.00133 11.7584C5.74785 11.8638 5.45307 11.9165 5.11699 11.9165C4.96319 11.9165 4.81225 11.9065 4.66414 11.8866C4.51604 11.8695 4.36082 11.841 4.19848 11.8012C4.20702 11.6872 4.21699 11.5733 4.22838 11.4594C4.23978 11.3455 4.24975 11.2315 4.25829 11.1176C4.26683 11.0549 4.29104 11.0051 4.33092 10.9681C4.37364 10.9282 4.43345 10.9083 4.51035 10.9083C4.55876 10.9083 4.62142 10.9182 4.69832 10.9382C4.77807 10.9581 4.87775 10.9681 4.99737 10.9681C5.15971 10.9681 5.30354 10.9453 5.42886 10.8997C5.55418 10.8513 5.65813 10.7758 5.74073 10.6733C5.82617 10.5708 5.89025 10.4383 5.93297 10.276C5.97569 10.1108 5.99706 9.91144 5.99706 9.67789V5.67061H7.14626V9.65226ZM13.6714 5.67061V11.8481H13.0819C12.9907 11.8481 12.9138 11.8339 12.8512 11.8054C12.7914 11.7741 12.733 11.7228 12.676 11.6516L9.45056 7.53327C9.46764 7.72125 9.47619 7.89498 9.47619 8.05447V11.8481H8.46369V5.67061H9.06606C9.11448 5.67061 9.15578 5.67346 9.18996 5.67916C9.22698 5.682 9.25831 5.69055 9.28394 5.70479C9.31242 5.71618 9.33948 5.73469 9.36511 5.76033C9.39075 5.78311 9.41923 5.81444 9.45056 5.85431L12.6888 9.98976C12.6803 9.89007 12.6732 9.79182 12.6675 9.69498C12.6618 9.59814 12.6589 9.50843 12.6589 9.42583V5.67061H13.6714ZM17.4011 9.65226C17.4011 9.99973 17.3584 10.313 17.2729 10.5921C17.1875 10.8712 17.0593 11.1091 16.8884 11.3056C16.7204 11.5021 16.5096 11.653 16.2562 11.7584C16.0027 11.8638 15.7079 11.9165 15.3718 11.9165C15.218 11.9165 15.0671 11.9065 14.919 11.8866C14.7709 11.8695 14.6157 11.841 14.4533 11.8012C14.4619 11.6872 14.4718 11.5733 14.4832 11.4594C14.4946 11.3455 14.5046 11.2315 14.5131 11.1176C14.5217 11.0549 14.5459 11.0051 14.5857 10.9681C14.6285 10.9282 14.6883 10.9083 14.7652 10.9083C14.8136 10.9083 14.8763 10.9182 14.9532 10.9382C15.0329 10.9581 15.1326 10.9681 15.2522 10.9681C15.4145 10.9681 15.5584 10.9453 15.6837 10.8997C15.809 10.8513 15.913 10.7758 15.9956 10.6733C16.081 10.5708 16.1451 10.4383 16.1878 10.276C16.2305 10.1108 16.2519 9.91144 16.2519 9.67789V5.67061H17.4011V9.65226Z" fill="white"/>
<rect x="1.25635" y="76.9495" width="49.1297" height="67.0491" fill="#F63C6B" fill-opacity="0.9"/>
<rect x="1.25635" y="76.9495" width="49.1297" height="67.0491" stroke="#050505" stroke-width="0.712025"/>
<path d="M7.2787 86.8706C7.50085 86.8706 7.6988 86.8335 7.87253 86.7595C8.04911 86.6854 8.19721 86.5815 8.31683 86.4476C8.43645 86.3137 8.52759 86.1514 8.59025 85.9606C8.65576 85.7698 8.68851 85.5562 8.68851 85.3198V81.6201H9.83772V85.3198C9.83772 85.6872 9.77791 86.0275 9.65829 86.3408C9.54152 86.6512 9.37206 86.9204 9.1499 87.1482C8.9306 87.3732 8.66288 87.5498 8.34674 87.678C8.0306 87.8033 7.67459 87.866 7.2787 87.866C6.87997 87.866 6.52253 87.8033 6.20639 87.678C5.89025 87.5498 5.62111 87.3732 5.39895 87.1482C5.17965 86.9204 5.01019 86.6512 4.89057 86.3408C4.7738 86.0275 4.71541 85.6872 4.71541 85.3198V81.6201H5.86462V85.3155C5.86462 85.5519 5.89595 85.7655 5.95861 85.9563C6.02411 86.1471 6.11668 86.3109 6.2363 86.4476C6.35876 86.5815 6.50687 86.6854 6.6806 86.7595C6.85718 86.8335 7.05655 86.8706 7.2787 86.8706ZM16.3415 81.6201V87.7976H15.752C15.6608 87.7976 15.5839 87.7834 15.5213 87.7549C15.4615 87.7236 15.4031 87.6723 15.3461 87.6011L12.1207 83.4827C12.1377 83.6707 12.1463 83.8444 12.1463 84.0039V87.7976H11.1338V81.6201H11.7362C11.7846 81.6201 11.8259 81.6229 11.8601 81.6286C11.8971 81.6315 11.9284 81.64 11.954 81.6543C11.9825 81.6656 12.0096 81.6842 12.0352 81.7098C12.0608 81.7326 12.0893 81.7639 12.1207 81.8038L15.3589 85.9392C15.3504 85.8395 15.3433 85.7413 15.3376 85.6444C15.3319 85.5476 15.329 85.4579 15.329 85.3753V81.6201H16.3415ZM22.925 81.6201V87.7976H21.7715V85.0976H18.8707V87.7976H17.7172V81.6201H18.8707V84.2774H21.7715V81.6201H22.925Z" fill="white"/>
<rect x="1.25635" y="143.999" width="49.1297" height="37.856" fill="#F63C6B" fill-opacity="0.9"/>
<rect x="1.25635" y="143.999" width="49.1297" height="37.856" stroke="#050505" stroke-width="0.712025"/>
<path d="M6.80022 151.775C7.01098 151.775 7.19468 151.749 7.35133 151.698C7.50797 151.644 7.63756 151.569 7.74009 151.472C7.84547 151.372 7.9238 151.252 7.97506 151.113C8.02633 150.97 8.05196 150.812 8.05196 150.639C8.05196 150.473 8.02633 150.324 7.97506 150.19C7.9238 150.056 7.8469 149.942 7.74437 149.848C7.64183 149.754 7.51225 149.683 7.3556 149.635C7.19895 149.583 7.01383 149.558 6.80022 149.558H5.94152V151.775H6.80022ZM6.80022 148.669C7.21319 148.669 7.57063 148.718 7.87253 148.814C8.17443 148.911 8.42364 149.047 8.62016 149.22C8.81668 149.394 8.96193 149.602 9.05592 149.844C9.15275 150.086 9.20117 150.351 9.20117 150.639C9.20117 150.938 9.15133 151.213 9.05164 151.463C8.95196 151.711 8.80244 151.925 8.60307 152.104C8.4037 152.283 8.15307 152.423 7.85117 152.523C7.55212 152.622 7.2018 152.672 6.80022 152.672H5.94152V154.847H4.79231V148.669H6.80022ZM11.2359 149.583V151.412H13.5514V152.33H11.2359V154.847H10.0824V148.669H13.9786V149.583H11.2359ZM16.0755 149.583V151.297H18.2372V152.181H16.0755V153.928H18.8182V154.847H14.922V148.669H18.8182V149.583H16.0755Z" fill="white"/>
<rect x="50.3862" y="1" width="45.5696" height="37.0253" fill="#F63C6B" fill-opacity="0.5"/>
<rect x="50.3862" y="1" width="45.5696" height="37.0253" stroke="#050505" stroke-width="0.712025"/>
<path d="M57.1861 9.51555L56.4342 7.46064C56.3972 7.36951 56.3587 7.26128 56.3189 7.13596C56.279 7.01064 56.2391 6.87536 56.1992 6.73011C56.1622 6.87536 56.1238 7.01207 56.0839 7.14023C56.044 7.26555 56.0056 7.3752 55.9686 7.46919L55.2209 9.51555H57.1861ZM59.2154 11.8481H58.3268C58.2271 11.8481 58.1459 11.8239 58.0833 11.7755C58.0206 11.7243 57.9736 11.6616 57.9423 11.5875L57.4809 10.3273H54.9219L54.4605 11.5875C54.4377 11.653 54.3936 11.7129 54.328 11.767C54.2625 11.8211 54.1814 11.8481 54.0845 11.8481H53.1874L55.6182 5.67061H56.7888L59.2154 11.8481ZM62.166 10.951C62.3797 10.951 62.5591 10.9254 62.7043 10.8741C62.8496 10.8228 62.9649 10.7545 63.0504 10.669C63.1387 10.5836 63.2013 10.4839 63.2384 10.37C63.2782 10.2561 63.2982 10.135 63.2982 10.0068C63.2982 9.87299 63.2768 9.75337 63.2341 9.64799C63.1914 9.53976 63.1244 9.44862 63.0333 9.37457C62.9422 9.29767 62.824 9.23928 62.6787 9.19941C62.5363 9.15954 62.364 9.1396 62.1618 9.1396H61.004V10.951H62.166ZM61.004 6.55922V8.34498H61.9183C62.3113 8.34498 62.6075 8.27378 62.8069 8.13137C63.0091 7.98897 63.1102 7.76254 63.1102 7.4521C63.1102 7.13026 63.019 6.90099 62.8368 6.76428C62.6545 6.62757 62.3697 6.55922 61.9823 6.55922H61.004ZM61.9823 5.67061C62.3868 5.67061 62.7328 5.70906 63.0205 5.78596C63.3081 5.86286 63.5431 5.97251 63.7254 6.11492C63.9105 6.25732 64.0458 6.42963 64.1312 6.63185C64.2167 6.83406 64.2594 7.06191 64.2594 7.31539C64.2594 7.46064 64.238 7.6002 64.1953 7.73406C64.1526 7.86507 64.0857 7.98897 63.9945 8.10574C63.9062 8.21966 63.7923 8.32362 63.6528 8.41761C63.516 8.51159 63.3523 8.59134 63.1615 8.65685C64.0102 8.84767 64.4346 9.30621 64.4346 10.0325C64.4346 10.2945 64.3847 10.5366 64.285 10.7587C64.1853 10.9809 64.0401 11.1731 63.8493 11.3355C63.6584 11.495 63.4235 11.6203 63.1444 11.7114C62.8653 11.8026 62.5463 11.8481 62.1874 11.8481H59.8548V5.67061H61.9823ZM67.7899 10.951C68.0035 10.951 68.183 10.9254 68.3282 10.8741C68.4735 10.8228 68.5888 10.7545 68.6743 10.669C68.7626 10.5836 68.8252 10.4839 68.8622 10.37C68.9021 10.2561 68.9221 10.135 68.9221 10.0068C68.9221 9.87299 68.9007 9.75337 68.858 9.64799C68.8152 9.53976 68.7483 9.44862 68.6572 9.37457C68.566 9.29767 68.4478 9.23928 68.3026 9.19941C68.1602 9.15954 67.9879 9.1396 67.7857 9.1396H66.6279V10.951H67.7899ZM66.6279 6.55922V8.34498H67.5421C67.9352 8.34498 68.2314 8.27378 68.4308 8.13137C68.633 7.98897 68.7341 7.76254 68.7341 7.4521C68.7341 7.13026 68.6429 6.90099 68.4607 6.76428C68.2784 6.62757 67.9936 6.55922 67.6062 6.55922H66.6279ZM67.6062 5.67061C68.0107 5.67061 68.3567 5.70906 68.6444 5.78596C68.932 5.86286 69.167 5.97251 69.3493 6.11492C69.5344 6.25732 69.6697 6.42963 69.7551 6.63185C69.8406 6.83406 69.8833 7.06191 69.8833 7.31539C69.8833 7.46064 69.8619 7.6002 69.8192 7.73406C69.7765 7.86507 69.7096 7.98897 69.6184 8.10574C69.5301 8.21966 69.4162 8.32362 69.2766 8.41761C69.1399 8.51159 68.9762 8.59134 68.7853 8.65685C69.6341 8.84767 70.0584 9.30621 70.0584 10.0325C70.0584 10.2945 70.0086 10.5366 69.9089 10.7587C69.8092 10.9809 69.664 11.1731 69.4732 11.3355C69.2823 11.495 69.0474 11.6203 68.7683 11.7114C68.4891 11.8026 68.1702 11.8481 67.8113 11.8481H65.4787V5.67061H67.6062ZM76.2706 5.67061L73.7757 11.8481H72.7375L70.2426 5.67061H71.1654C71.2651 5.67061 71.3463 5.69482 71.4089 5.74324C71.4716 5.79166 71.5186 5.85432 71.5499 5.93121L73.0067 9.69925C73.0551 9.82172 73.1007 9.95701 73.1434 10.1051C73.189 10.2504 73.2317 10.4027 73.2716 10.5622C73.3057 10.4027 73.3428 10.2504 73.3826 10.1051C73.4225 9.95701 73.4667 9.82172 73.5151 9.69925L74.9633 5.93121C74.9861 5.86571 75.0303 5.8059 75.0958 5.75178C75.1641 5.69767 75.2467 5.67061 75.3436 5.67061H76.2706Z" fill="white"/>
<rect x="95.9561" y="1" width="42.7215" height="37.0253" fill="#F63C6B" fill-opacity="0.5"/>
<rect x="95.9561" y="1" width="42.7215" height="37.0253" stroke="#050505" stroke-width="0.712025"/>
<path d="M102.756 9.51555L102.004 7.46064C101.967 7.36951 101.929 7.26128 101.889 7.13596C101.849 7.01064 101.809 6.87536 101.769 6.73011C101.732 6.87536 101.694 7.01207 101.654 7.14023C101.614 7.26555 101.575 7.3752 101.538 7.46919L100.791 9.51555H102.756ZM104.785 11.8481H103.897C103.797 11.8481 103.716 11.8239 103.653 11.7755C103.59 11.7243 103.543 11.6616 103.512 11.5875L103.051 10.3273H100.492L100.03 11.5875C100.008 11.653 99.9634 11.7129 99.8979 11.767C99.8324 11.8211 99.7512 11.8481 99.6544 11.8481H98.7572L101.188 5.67061H102.359L104.785 11.8481ZM107.736 10.951C107.949 10.951 108.129 10.9254 108.274 10.8741C108.419 10.8228 108.535 10.7545 108.62 10.669C108.708 10.5836 108.771 10.4839 108.808 10.37C108.848 10.2561 108.868 10.135 108.868 10.0068C108.868 9.87299 108.847 9.75337 108.804 9.64799C108.761 9.53976 108.694 9.44862 108.603 9.37457C108.512 9.29767 108.394 9.23928 108.249 9.19941C108.106 9.15954 107.934 9.1396 107.732 9.1396H106.574V10.951H107.736ZM106.574 6.55922V8.34498H107.488C107.881 8.34498 108.177 8.27378 108.377 8.13137C108.579 7.98897 108.68 7.76254 108.68 7.4521C108.68 7.13026 108.589 6.90099 108.407 6.76428C108.224 6.62757 107.94 6.55922 107.552 6.55922H106.574ZM107.552 5.67061C107.957 5.67061 108.303 5.70906 108.59 5.78596C108.878 5.86286 109.113 5.97251 109.295 6.11492C109.48 6.25732 109.616 6.42963 109.701 6.63185C109.787 6.83406 109.829 7.06191 109.829 7.31539C109.829 7.46064 109.808 7.6002 109.765 7.73406C109.722 7.86507 109.655 7.98897 109.564 8.10574C109.476 8.21966 109.362 8.32362 109.223 8.41761C109.086 8.51159 108.922 8.59134 108.731 8.65685C109.58 8.84767 110.004 9.30621 110.004 10.0325C110.004 10.2945 109.955 10.5366 109.855 10.7587C109.755 10.9809 109.61 11.1731 109.419 11.3355C109.228 11.495 108.993 11.6203 108.714 11.7114C108.435 11.8026 108.116 11.8481 107.757 11.8481H105.425V5.67061H107.552ZM115.297 6.61476H113.434V11.8481H112.285V6.61476H110.422V5.67061H115.297V6.61476Z" fill="white"/>
<rect x="138.677" y="1" width="38.4494" height="37.0253" fill="#0FEDBE" fill-opacity="0.4"/>
<rect x="138.677" y="1" width="38.4494" height="37.0253" stroke="#050505" stroke-width="0.712025"/>
<path d="M146.528 6.61476H144.665V11.8481H143.516V6.61476H141.654V5.67061H146.528V6.61476ZM154.035 5.67061V11.8481H153.023V7.85795C153.023 7.69846 153.031 7.52615 153.048 7.34102L151.181 10.8485C151.093 11.0165 150.958 11.1005 150.776 11.1005H150.613C150.431 11.1005 150.296 11.0165 150.207 10.8485L148.319 7.32821C148.328 7.42219 148.335 7.51476 148.34 7.6059C148.346 7.69704 148.349 7.78106 148.349 7.85795V11.8481H147.336V5.67061H148.204C148.255 5.67061 148.299 5.67204 148.336 5.67488C148.373 5.67773 148.406 5.68485 148.434 5.69625C148.466 5.70764 148.493 5.72615 148.516 5.75178C148.541 5.77742 148.565 5.81159 148.588 5.85431L150.438 9.28485C150.486 9.37599 150.531 9.46998 150.57 9.56682C150.613 9.66365 150.654 9.76333 150.694 9.86587C150.734 9.76049 150.776 9.65938 150.818 9.56254C150.861 9.46286 150.907 9.36745 150.955 9.27631L152.779 5.85431C152.802 5.81159 152.826 5.77742 152.852 5.75178C152.877 5.72615 152.904 5.70764 152.933 5.69625C152.964 5.68485 152.998 5.67773 153.036 5.67488C153.073 5.67204 153.117 5.67061 153.168 5.67061H154.035ZM161.305 8.75938C161.305 9.21223 161.229 9.63232 161.078 10.0197C160.93 10.4042 160.72 10.7374 160.446 11.0193C160.173 11.3013 159.844 11.522 159.459 11.6815C159.075 11.8382 158.648 11.9165 158.178 11.9165C157.71 11.9165 157.285 11.8382 156.9 11.6815C156.516 11.522 156.185 11.3013 155.909 11.0193C155.636 10.7374 155.423 10.4042 155.273 10.0197C155.122 9.63232 155.046 9.21223 155.046 8.75938C155.046 8.30653 155.122 7.88786 155.273 7.50337C155.423 7.11602 155.636 6.78137 155.909 6.49941C156.185 6.21745 156.516 5.99814 156.9 5.8415C157.285 5.68201 157.71 5.60226 158.178 5.60226C158.491 5.60226 158.786 5.63928 159.062 5.71333C159.338 5.78454 159.592 5.88707 159.822 6.02093C160.053 6.15194 160.26 6.31286 160.442 6.50368C160.627 6.69166 160.784 6.90242 160.912 7.13596C161.04 7.36951 161.137 7.62299 161.202 7.8964C161.271 8.16982 161.305 8.45748 161.305 8.75938ZM160.13 8.75938C160.13 8.42045 160.084 8.11713 159.993 7.84941C159.902 7.57884 159.773 7.34957 159.604 7.16159C159.436 6.97362 159.231 6.82979 158.989 6.73011C158.75 6.63042 158.479 6.58058 158.178 6.58058C157.876 6.58058 157.604 6.63042 157.362 6.73011C157.122 6.82979 156.917 6.97362 156.746 7.16159C156.578 7.34957 156.449 7.57884 156.358 7.84941C156.266 8.11713 156.221 8.42045 156.221 8.75938C156.221 9.0983 156.266 9.40305 156.358 9.67362C156.449 9.94134 156.578 10.1692 156.746 10.3572C156.917 10.5423 157.122 10.6847 157.362 10.7844C157.604 10.8841 157.876 10.9339 158.178 10.9339C158.479 10.9339 158.75 10.8841 158.989 10.7844C159.231 10.6847 159.436 10.5423 159.604 10.3572C159.773 10.1692 159.902 9.94134 159.993 9.67362C160.084 9.40305 160.13 9.0983 160.13 8.75938Z" fill="white"/>
<rect x="177.127" y="1" width="38.4494" height="37.0253" fill="#F63C6B" fill-opacity="0.7"/>
<rect x="177.127" y="1" width="38.4494" height="37.0253" stroke="#050505" stroke-width="0.712025"/>
<path d="M187.362 5.67061V11.8481H186.349V7.85795C186.349 7.69846 186.358 7.52615 186.375 7.34102L184.508 10.8485C184.42 11.0165 184.284 11.1005 184.102 11.1005H183.94C183.757 11.1005 183.622 11.0165 183.534 10.8485L181.646 7.32821C181.654 7.42219 181.661 7.51476 181.667 7.6059C181.673 7.69704 181.675 7.78106 181.675 7.85795V11.8481H180.663V5.67061H181.53C181.581 5.67061 181.626 5.67204 181.663 5.67488C181.7 5.67773 181.732 5.68485 181.761 5.69625C181.792 5.70764 181.819 5.72615 181.842 5.75178C181.868 5.77742 181.892 5.81159 181.915 5.85431L183.764 9.28485C183.813 9.37599 183.857 9.46998 183.897 9.56682C183.94 9.66365 183.981 9.76333 184.021 9.86587C184.061 9.76049 184.102 9.65938 184.145 9.56254C184.187 9.46286 184.233 9.36745 184.281 9.27631L186.106 5.85431C186.128 5.81159 186.153 5.77742 186.178 5.75178C186.204 5.72615 186.231 5.70764 186.259 5.69625C186.291 5.68485 186.325 5.67773 186.362 5.67488C186.399 5.67204 186.443 5.67061 186.494 5.67061H187.362ZM194.225 8.75938C194.225 9.21223 194.15 9.62805 193.999 10.0068C193.848 10.3856 193.636 10.7118 193.362 10.9852C193.089 11.2586 192.76 11.4708 192.376 11.6217C191.991 11.7727 191.564 11.8481 191.094 11.8481H188.74V5.67061H191.094C191.564 5.67061 191.991 5.74751 192.376 5.90131C192.76 6.05226 193.089 6.26444 193.362 6.53786C193.636 6.80843 193.848 7.13311 193.999 7.51191C194.15 7.89071 194.225 8.30653 194.225 8.75938ZM193.046 8.75938C193.046 8.42045 193.001 8.11713 192.91 7.84941C192.821 7.57884 192.692 7.35099 192.521 7.16587C192.353 6.97789 192.148 6.83406 191.906 6.73438C191.666 6.63469 191.396 6.58485 191.094 6.58485H189.893V10.9339H191.094C191.396 10.9339 191.666 10.8841 191.906 10.7844C192.148 10.6847 192.353 10.5423 192.521 10.3572C192.692 10.1692 192.821 9.94134 192.91 9.67362C193.001 9.40305 193.046 9.0983 193.046 8.75938ZM199.338 6.61476H197.475V11.8481H196.326V6.61476H194.463V5.67061H199.338V6.61476Z" fill="white"/>
<rect x="50.3862" y="38.0254" width="38.4494" height="40.5854" fill="#F63C6B" fill-opacity="0.5"/>
<rect x="50.3862" y="38.0254" width="38.4494" height="40.5854" stroke="#050505" stroke-width="0.712025"/>
<path d="M57.5407 47.9251V48.8735H53.9222V42.696H55.0714V47.9251H57.5407ZM61.9797 47.9251V48.8735H58.3612V42.696H59.5104V47.9251H61.9797ZM64.6439 46.4811V48.8735H63.499V46.4811L61.2475 42.696H62.26C62.3597 42.696 62.438 42.7202 62.495 42.7686C62.5548 42.817 62.6047 42.8783 62.6445 42.9523L63.7724 45.0158C63.8379 45.1383 63.8948 45.2536 63.9433 45.3618C63.9945 45.4701 64.0401 45.5783 64.08 45.6865C64.117 45.5783 64.1597 45.4701 64.2081 45.3618C64.2565 45.2536 64.3121 45.1383 64.3747 45.0158L65.4983 42.9523C65.5297 42.8897 65.5766 42.8313 65.6393 42.7772C65.702 42.7231 65.7817 42.696 65.8785 42.696H66.8953L64.6439 46.4811Z" fill="white"/>
<rect x="50.3862" y="78.6108" width="38.4494" height="36.3133" fill="#F63C6B" fill-opacity="0.9"/>
<rect x="50.3862" y="78.6108" width="38.4494" height="36.3133" stroke="#050505" stroke-width="0.712025"/>
<path d="M59.4076 86.3702C59.4076 86.8231 59.3322 87.2389 59.1812 87.6177C59.0303 87.9965 58.8181 88.3226 58.5447 88.596C58.2712 88.8694 57.9423 89.0816 57.5578 89.2326C57.1733 89.3835 56.7461 89.459 56.2761 89.459H53.9222V83.2815H56.2761C56.7461 83.2815 57.1733 83.3584 57.5578 83.5121C57.9423 83.6631 58.2712 83.8753 58.5447 84.1487C58.8181 84.4193 59.0303 84.744 59.1812 85.1227C59.3322 85.5015 59.4076 85.9174 59.4076 86.3702ZM58.2285 86.3702C58.2285 86.0313 58.183 85.728 58.0918 85.4602C58.0035 85.1897 57.8739 84.9618 57.703 84.7767C57.535 84.5887 57.3299 84.4449 57.0879 84.3452C56.8486 84.2455 56.578 84.1957 56.2761 84.1957H55.0757V88.5447H56.2761C56.578 88.5447 56.8486 88.4949 57.0879 88.3952C57.3299 88.2955 57.535 88.1531 57.703 87.968C57.8739 87.78 58.0035 87.5522 58.0918 87.2845C58.183 87.0139 58.2285 86.7091 58.2285 86.3702ZM65.63 83.2815V89.459H64.4765V86.759H61.5757V89.459H60.4222V83.2815H61.5757V85.9387H64.4765V83.2815H65.63ZM68.8726 86.2207C69.089 86.2207 69.277 86.1936 69.4365 86.1395C69.5989 86.0854 69.7313 86.0114 69.8338 85.9174C69.9392 85.8205 70.0175 85.7066 70.0688 85.5756C70.1201 85.4446 70.1457 85.3008 70.1457 85.1441C70.1457 84.8308 70.0417 84.5902 69.8338 84.4221C69.6288 84.2541 69.314 84.1701 68.8897 84.1701H68.1549V86.2207H68.8726ZM71.8289 89.459H70.7908C70.5943 89.459 70.4519 89.3821 70.3636 89.2283L69.0648 87.2503C69.0164 87.1762 68.9623 87.1235 68.9025 87.0922C68.8455 87.0609 68.7601 87.0452 68.6462 87.0452H68.1549V89.459H67.0057V83.2815H68.8897C69.3083 83.2815 69.6672 83.3256 69.9663 83.4139C70.2682 83.4993 70.5145 83.6204 70.7053 83.777C70.899 83.9337 71.0414 84.1216 71.1326 84.3409C71.2237 84.5574 71.2693 84.7966 71.2693 85.0587C71.2693 85.2666 71.2379 85.4631 71.1753 85.6482C71.1155 85.8334 71.0272 86.0014 70.9104 86.1523C70.7965 86.3033 70.6541 86.4357 70.4832 86.5496C70.3152 86.6636 70.1229 86.7533 69.9064 86.8188C69.9805 86.8615 70.0489 86.9128 70.1115 86.9726C70.1742 87.0296 70.2311 87.0979 70.2824 87.1777L71.8289 89.459Z" fill="white"/>
<rect x="50.3862" y="114.924" width="38.4494" height="35.6013" fill="#F63C6B" fill-opacity="0.9"/>
<rect x="50.3862" y="114.924" width="38.4494" height="35.6013" stroke="#050505" stroke-width="0.712025"/>
<path d="M56.2334 124.875C56.447 124.875 56.6265 124.849 56.7717 124.798C56.917 124.747 57.0323 124.679 57.1178 124.593C57.2061 124.508 57.2687 124.408 57.3057 124.294C57.3456 124.18 57.3655 124.059 57.3655 123.931C57.3655 123.797 57.3442 123.677 57.3015 123.572C57.2587 123.464 57.1918 123.373 57.1007 123.299C57.0095 123.222 56.8913 123.163 56.7461 123.123C56.6037 123.084 56.4314 123.064 56.2292 123.064H55.0714V124.875H56.2334ZM55.0714 120.483V122.269H55.9856C56.3787 122.269 56.6749 122.198 56.8742 122.055C57.0765 121.913 57.1776 121.687 57.1776 121.376C57.1776 121.054 57.0864 120.825 56.9042 120.688C56.7219 120.552 56.4371 120.483 56.0497 120.483H55.0714ZM56.0497 119.595C56.4542 119.595 56.8002 119.633 57.0879 119.71C57.3755 119.787 57.6105 119.897 57.7928 120.039C57.9779 120.181 58.1132 120.354 58.1986 120.556C58.2841 120.758 58.3268 120.986 58.3268 121.239C58.3268 121.385 58.3054 121.524 58.2627 121.658C58.22 121.789 58.153 121.913 58.0619 122.03C57.9736 122.144 57.8597 122.248 57.7201 122.342C57.5834 122.436 57.4197 122.515 57.2288 122.581C58.0776 122.772 58.5019 123.23 58.5019 123.957C58.5019 124.219 58.4521 124.461 58.3524 124.683C58.2527 124.905 58.1075 125.097 57.9167 125.26C57.7258 125.419 57.4909 125.544 57.2117 125.636C56.9326 125.727 56.6136 125.772 56.2548 125.772H53.9222V119.595H56.0497ZM66.2448 119.595V125.772H65.2323V121.782C65.2323 121.623 65.2409 121.45 65.2579 121.265L63.391 124.773C63.3027 124.941 63.1674 125.025 62.9852 125.025H62.8228C62.6405 125.025 62.5053 124.941 62.417 124.773L60.5287 121.252C60.5372 121.346 60.5443 121.439 60.55 121.53C60.5557 121.621 60.5586 121.705 60.5586 121.782V125.772H59.5461V119.595H60.4133C60.4646 119.595 60.5087 119.596 60.5458 119.599C60.5828 119.602 60.6155 119.609 60.644 119.62C60.6754 119.632 60.7024 119.65 60.7252 119.676C60.7508 119.701 60.775 119.736 60.7978 119.778L62.6477 123.209C62.6961 123.3 62.7402 123.394 62.7801 123.491C62.8228 123.588 62.8641 123.687 62.904 123.79C62.9439 123.685 62.9852 123.583 63.0279 123.487C63.0706 123.387 63.1162 123.292 63.1646 123.2L64.9888 119.778C65.0116 119.736 65.0358 119.701 65.0614 119.676C65.0871 119.65 65.1141 119.632 65.1426 119.62C65.1739 119.609 65.2081 119.602 65.2451 119.599C65.2822 119.596 65.3263 119.595 65.3776 119.595H66.2448ZM70.2761 123.38V125.772H69.1312V123.38L66.8798 119.595H67.8923C67.9919 119.595 68.0703 119.619 68.1272 119.667C68.187 119.716 68.2369 119.777 68.2768 119.851L69.4046 121.914C69.4701 122.037 69.5271 122.152 69.5755 122.261C69.6268 122.369 69.6723 122.477 69.7122 122.585C69.7492 122.477 69.7919 122.369 69.8404 122.261C69.8888 122.152 69.9443 122.037 70.007 121.914L71.1306 119.851C71.1619 119.788 71.2089 119.73 71.2715 119.676C71.3342 119.622 71.4139 119.595 71.5108 119.595H72.5275L70.2761 123.38Z" fill="white"/>
<rect x="50.3862" y="150.525" width="38.4494" height="31.3291" fill="#F63C6B" fill-opacity="0.9"/>
<rect x="50.3862" y="150.525" width="38.4494" height="31.3291" stroke="#050505" stroke-width="0.712025"/>
<path d="M57.1861 159.041L56.4342 156.986C56.3972 156.895 56.3587 156.787 56.3189 156.661C56.279 156.536 56.2391 156.401 56.1992 156.255C56.1622 156.401 56.1238 156.537 56.0839 156.666C56.044 156.791 56.0056 156.901 55.9686 156.995L55.2209 159.041H57.1861ZM59.2154 161.374H58.3268C58.2271 161.374 58.1459 161.349 58.0833 161.301C58.0206 161.25 57.9736 161.187 57.9423 161.113L57.4809 159.853H54.9219L54.4605 161.113C54.4377 161.178 54.3936 161.238 54.328 161.292C54.2625 161.346 54.1814 161.374 54.0845 161.374H53.1874L55.6182 155.196H56.7888L59.2154 161.374ZM66.5535 155.196V161.374H65.541V157.383C65.541 157.224 65.5496 157.052 65.5667 156.866L63.6997 160.374C63.6115 160.542 63.4762 160.626 63.2939 160.626H63.1315C62.9493 160.626 62.814 160.542 62.7257 160.374L60.8374 156.854C60.8459 156.948 60.8531 157.04 60.8588 157.131C60.8645 157.222 60.8673 157.306 60.8673 157.383V161.374H59.8548V155.196H60.7221C60.7733 155.196 60.8175 155.197 60.8545 155.2C60.8915 155.203 60.9243 155.21 60.9528 155.222C60.9841 155.233 61.0111 155.252 61.0339 155.277C61.0596 155.303 61.0838 155.337 61.1065 155.38L62.9564 158.81C63.0048 158.901 63.049 158.995 63.0888 159.092C63.1315 159.189 63.1728 159.289 63.2127 159.391C63.2526 159.286 63.2939 159.185 63.3366 159.088C63.3793 158.988 63.4249 158.893 63.4733 158.802L65.2975 155.38C65.3203 155.337 65.3445 155.303 65.3702 155.277C65.3958 155.252 65.4228 155.233 65.4513 155.222C65.4827 155.21 65.5168 155.203 65.5539 155.2C65.5909 155.197 65.635 155.196 65.6863 155.196H66.5535ZM73.0243 158.276V160.775C72.711 161.006 72.3763 161.176 72.0203 161.284C71.6671 161.389 71.2883 161.442 70.8839 161.442C70.3798 161.442 69.9227 161.364 69.5125 161.207C69.1053 161.05 68.7564 160.832 68.4659 160.553C68.1782 160.274 67.9561 159.941 67.7994 159.554C67.6428 159.166 67.5644 158.743 67.5644 158.285C67.5644 157.821 67.6399 157.395 67.7909 157.007C67.9418 156.62 68.1554 156.287 68.4317 156.008C68.7108 155.729 69.0483 155.512 69.4442 155.358C69.8401 155.205 70.2844 155.128 70.7771 155.128C71.0277 155.128 71.2613 155.148 71.4777 155.187C71.697 155.227 71.8993 155.283 72.0844 155.354C72.2724 155.422 72.4432 155.506 72.597 155.606C72.7508 155.706 72.8918 155.815 73.02 155.935L72.691 156.456C72.6398 156.539 72.5728 156.59 72.4902 156.61C72.4076 156.627 72.3179 156.606 72.2211 156.546C72.1271 156.492 72.0331 156.438 71.9391 156.384C71.8451 156.33 71.7398 156.283 71.623 156.243C71.5091 156.203 71.3795 156.17 71.2342 156.144C71.0918 156.119 70.9266 156.106 70.7386 156.106C70.4339 156.106 70.1576 156.157 69.9099 156.26C69.6649 156.362 69.4556 156.509 69.2818 156.7C69.1081 156.891 68.9743 157.12 68.8803 157.388C68.7863 157.655 68.7393 157.954 68.7393 158.285C68.7393 158.638 68.7891 158.954 68.8888 159.233C68.9913 159.509 69.1337 159.744 69.316 159.938C69.5011 160.129 69.7233 160.276 69.9825 160.378C70.2417 160.478 70.5307 160.528 70.8497 160.528C71.0776 160.528 71.2812 160.503 71.4606 160.455C71.6401 160.407 71.8152 160.341 71.9861 160.259V159.139H71.2086C71.1345 159.139 71.0761 159.119 71.0334 159.079C70.9936 159.037 70.9736 158.985 70.9736 158.926V158.276H73.0243ZM79.3392 155.196V161.374H78.7497C78.6585 161.374 78.5816 161.359 78.519 161.331C78.4592 161.299 78.4008 161.248 78.3438 161.177L75.1183 157.059C75.1354 157.247 75.144 157.42 75.144 157.58V161.374H74.1315V155.196H74.7338C74.7823 155.196 74.8236 155.199 74.8577 155.205C74.8948 155.207 74.9261 155.216 74.9517 155.23C74.9802 155.242 75.0073 155.26 75.0329 155.286C75.0585 155.309 75.087 155.34 75.1183 155.38L78.3566 159.515C78.3481 159.415 78.341 159.317 78.3353 159.22C78.3296 159.124 78.3267 159.034 78.3267 158.951V155.196H79.3392Z" fill="white"/>
<rect x="88.8354" y="38.0254" width="37.5593" height="35.6013" fill="#F63C6B" fill-opacity="0.9"/>
<rect x="88.8354" y="38.0254" width="37.5593" height="35.6013" stroke="#050505" stroke-width="0.712025"/>
<path d="M97.6646 42.696L95.1697 48.8735H94.1315L91.6366 42.696H92.5594C92.6591 42.696 92.7402 42.7202 92.8029 42.7686C92.8656 42.817 92.9125 42.8797 92.9439 42.9566L94.4007 46.7246C94.4491 46.8471 94.4947 46.9824 94.5374 47.1305C94.583 47.2758 94.6257 47.4281 94.6656 47.5876C94.6997 47.4281 94.7368 47.2758 94.7766 47.1305C94.8165 46.9824 94.8607 46.8471 94.9091 46.7246L96.3573 42.9566C96.3801 42.8911 96.4243 42.8313 96.4898 42.7772C96.5581 42.7231 96.6407 42.696 96.7375 42.696H97.6646ZM101.443 43.8196C101.409 43.8794 101.372 43.9235 101.332 43.952C101.295 43.9776 101.248 43.9905 101.191 43.9905C101.132 43.9905 101.066 43.9691 100.995 43.9264C100.926 43.8808 100.844 43.831 100.747 43.7769C100.65 43.7227 100.536 43.6743 100.405 43.6316C100.277 43.586 100.125 43.5633 99.9481 43.5633C99.7886 43.5633 99.6491 43.5832 99.5295 43.6231C99.4098 43.6601 99.3087 43.7128 99.2261 43.7811C99.1464 43.8495 99.0866 43.9321 99.0467 44.0289C99.0068 44.1229 98.9869 44.2269 98.9869 44.3408C98.9869 44.486 99.0268 44.6071 99.1065 44.7039C99.1891 44.8008 99.2973 44.8833 99.4312 44.9517C99.5651 45.0201 99.7174 45.0813 99.8883 45.1354C100.059 45.1895 100.234 45.2479 100.414 45.3106C100.593 45.3704 100.768 45.4416 100.939 45.5242C101.11 45.6039 101.263 45.7064 101.396 45.8318C101.53 45.9542 101.637 46.1052 101.717 46.2846C101.799 46.464 101.841 46.6819 101.841 46.9383C101.841 47.2174 101.792 47.4794 101.695 47.7243C101.601 47.9664 101.462 48.1786 101.277 48.3609C101.094 48.5403 100.871 48.6827 100.606 48.7881C100.341 48.8906 100.038 48.9419 99.6961 48.9419C99.4996 48.9419 99.3059 48.922 99.1151 48.8821C98.9242 48.8451 98.7405 48.7909 98.564 48.7197C98.3902 48.6485 98.2265 48.5631 98.0727 48.4634C97.9189 48.3637 97.7822 48.2526 97.6625 48.1302L98 47.5791C98.0285 47.5392 98.0655 47.5064 98.1111 47.4808C98.1567 47.4523 98.2051 47.4381 98.2564 47.4381C98.3276 47.4381 98.4045 47.468 98.4871 47.5278C98.5697 47.5848 98.6679 47.6489 98.7818 47.7201C98.8958 47.7913 99.0282 47.8568 99.1792 47.9166C99.3329 47.9735 99.5167 48.002 99.7303 48.002C100.058 48.002 100.311 47.9251 100.491 47.7713C100.67 47.6147 100.76 47.3911 100.76 47.1006C100.76 46.9383 100.719 46.8058 100.636 46.7033C100.556 46.6008 100.449 46.5153 100.316 46.447C100.182 46.3758 100.029 46.3159 99.8584 46.2675C99.6875 46.2191 99.5138 46.1664 99.3372 46.1095C99.1606 46.0525 98.9869 45.9841 98.816 45.9044C98.6451 45.8246 98.4928 45.7207 98.3589 45.5925C98.225 45.4644 98.1168 45.3049 98.0342 45.114C97.9545 44.9204 97.9146 44.6826 97.9146 44.4006C97.9146 44.1756 97.9587 43.9563 98.047 43.7427C98.1382 43.5291 98.2692 43.3397 98.4401 43.1745C98.611 43.0093 98.8217 42.8769 99.0723 42.7772C99.323 42.6775 99.6106 42.6276 99.9353 42.6276C100.3 42.6276 100.636 42.6846 100.944 42.7985C101.251 42.9125 101.513 43.072 101.73 43.277L101.443 43.8196ZM107.085 47.4167C107.148 47.4167 107.204 47.4409 107.252 47.4894L107.705 47.9807C107.454 48.2911 107.145 48.5289 106.778 48.6941C106.413 48.8593 105.975 48.9419 105.462 48.9419C105.003 48.9419 104.59 48.8636 104.223 48.7069C103.859 48.5503 103.547 48.3324 103.287 48.0533C103.028 47.7742 102.829 47.4409 102.689 47.0536C102.553 46.6663 102.484 46.2433 102.484 45.7848C102.484 45.3205 102.558 44.8962 102.706 44.5117C102.855 44.1243 103.062 43.7911 103.33 43.512C103.601 43.2329 103.923 43.0164 104.296 42.8626C104.669 42.706 105.082 42.6276 105.535 42.6276C105.985 42.6276 106.383 42.7017 106.731 42.8498C107.081 42.9979 107.379 43.1916 107.624 43.4308L107.239 43.9648C107.216 43.999 107.187 44.0289 107.15 44.0545C107.115 44.0802 107.067 44.093 107.004 44.093C106.962 44.093 106.917 44.0816 106.872 44.0588C106.826 44.0332 106.776 44.0033 106.722 43.9691C106.668 43.9321 106.606 43.8922 106.534 43.8495C106.463 43.8068 106.381 43.7683 106.287 43.7341C106.193 43.6971 106.083 43.6672 105.958 43.6444C105.835 43.6188 105.693 43.606 105.53 43.606C105.254 43.606 105.001 43.6558 104.77 43.7555C104.542 43.8523 104.346 43.9947 104.18 44.1827C104.015 44.3678 103.887 44.5957 103.796 44.8663C103.705 45.134 103.659 45.4401 103.659 45.7848C103.659 46.1322 103.708 46.4413 103.804 46.7118C103.904 46.9824 104.038 47.2102 104.206 47.3954C104.374 47.5805 104.572 47.7229 104.8 47.8226C105.028 47.9194 105.273 47.9678 105.535 47.9678C105.691 47.9678 105.832 47.9593 105.958 47.9422C106.086 47.9251 106.203 47.8981 106.308 47.861C106.416 47.824 106.517 47.777 106.611 47.7201C106.708 47.6602 106.803 47.5876 106.897 47.5022C106.926 47.4765 106.956 47.4566 106.987 47.4424C107.019 47.4253 107.051 47.4167 107.085 47.4167Z" fill="white"/>
<rect x="126.395" y="38.0254" width="29.015" height="35.6013" fill="#0FEDBE" fill-opacity="0.4"/>
<rect x="126.395" y="38.0254" width="29.015" height="35.6013" stroke="#050505" stroke-width="0.712025"/>
<rect x="155.41" y="38.0254" width="27.591" height="35.6013" fill="#0FEDBE" fill-opacity="0.55"/>
<rect x="155.41" y="38.0254" width="27.591" height="35.6013" stroke="#050505" stroke-width="0.712025"/>
<rect x="183.001" y="38.0254" width="32.5752" height="35.6013" fill="#F63C6B" fill-opacity="0.5"/>
<rect x="183.001" y="38.0254" width="32.5752" height="35.6013" stroke="#050505" stroke-width="0.712025"/>
<path d="M190.779 47.4167C190.842 47.4167 190.897 47.4409 190.946 47.4894L191.399 47.9807C191.148 48.2911 190.839 48.5289 190.472 48.6941C190.107 48.8593 189.668 48.9419 189.156 48.9419C188.697 48.9419 188.284 48.8636 187.917 48.7069C187.552 48.5503 187.24 48.3324 186.981 48.0533C186.722 47.7742 186.523 47.4409 186.383 47.0536C186.246 46.6663 186.178 46.2433 186.178 45.7848C186.178 45.3205 186.252 44.8962 186.4 44.5117C186.548 44.1243 186.756 43.7911 187.024 43.512C187.295 43.2329 187.616 43.0164 187.989 42.8626C188.363 42.706 188.776 42.6276 189.228 42.6276C189.678 42.6276 190.077 42.7017 190.425 42.8498C190.775 42.9979 191.073 43.1916 191.317 43.4308L190.933 43.9648C190.91 43.999 190.88 44.0289 190.843 44.0545C190.809 44.0802 190.761 44.093 190.698 44.093C190.655 44.093 190.611 44.0816 190.566 44.0588C190.52 44.0332 190.47 44.0033 190.416 43.9691C190.362 43.9321 190.299 43.8922 190.228 43.8495C190.157 43.8068 190.074 43.7683 189.98 43.7341C189.886 43.6971 189.777 43.6672 189.651 43.6444C189.529 43.6188 189.386 43.606 189.224 43.606C188.948 43.606 188.694 43.6558 188.464 43.7555C188.236 43.8523 188.039 43.9947 187.874 44.1827C187.709 44.3678 187.581 44.5957 187.49 44.8663C187.398 45.134 187.353 45.4401 187.353 45.7848C187.353 46.1322 187.401 46.4413 187.498 46.7118C187.598 46.9824 187.732 47.2102 187.9 47.3954C188.068 47.5805 188.266 47.7229 188.494 47.8226C188.721 47.9194 188.966 47.9678 189.228 47.9678C189.385 47.9678 189.526 47.9593 189.651 47.9422C189.78 47.9251 189.896 47.8981 190.002 47.861C190.11 47.824 190.211 47.777 190.305 47.7201C190.402 47.6602 190.497 47.5876 190.591 47.5022C190.62 47.4765 190.65 47.4566 190.681 47.4424C190.712 47.4253 190.745 47.4167 190.779 47.4167ZM193.339 48.8735H192.186V42.696H193.339V48.8735Z" fill="white"/>
<rect x="88.8354" y="73.6267" width="30.6171" height="28.7658" fill="#F63C6B" fill-opacity="0.7"/>
<rect x="88.8354" y="73.6267" width="30.6171" height="28.7658" stroke="#050505" stroke-width="0.712025"/>
<rect x="88.8354" y="102.393" width="30.6171" height="27.3418" fill="#F63C6B" fill-opacity="0.9"/>
<rect x="88.8354" y="102.393" width="30.6171" height="27.3418" stroke="#050505" stroke-width="0.712025"/>
<rect x="88.8354" y="129.734" width="30.6171" height="25.2057" fill="#F63C6B" fill-opacity="0.5"/>
<rect x="88.8354" y="129.734" width="30.6171" height="25.2057" stroke="#050505" stroke-width="0.712025"/>
<rect x="88.8354" y="154.94" width="30.6171" height="24.8497" fill="#0FEDBE" fill-opacity="0.8"/>
<rect x="88.8354" y="154.94" width="30.6171" height="24.8497" stroke="#050505" stroke-width="0.712025"/>
<rect x="88.8354" y="179.79" width="30.6171" height="2.06487" fill="#F63C6B" fill-opacity="0.5"/>
<rect x="88.8354" y="179.79" width="30.6171" height="2.06487" stroke="#050505" stroke-width="0.712025"/>
<rect x="119.453" y="73.6267" width="33.2872" height="25.6329" fill="#F63C6B" fill-opacity="0.9"/>
<rect x="119.453" y="73.6267" width="33.2872" height="25.6329" stroke="#050505" stroke-width="0.712025"/>
<path d="M124.8 82.7272C124.978 82.7272 125.128 82.7059 125.249 82.6631C125.37 82.6204 125.466 82.5635 125.537 82.4923C125.611 82.4211 125.663 82.338 125.694 82.243C125.727 82.1481 125.743 82.0472 125.743 81.9404C125.743 81.8289 125.726 81.7292 125.69 81.6414C125.654 81.5512 125.599 81.4752 125.523 81.4135C125.447 81.3495 125.348 81.3008 125.227 81.2676C125.109 81.2343 124.965 81.2177 124.796 81.2177H123.832V82.7272H124.8ZM123.832 79.0674V80.5555H124.594C124.921 80.5555 125.168 80.4962 125.334 80.3775C125.503 80.2589 125.587 80.0702 125.587 79.8115C125.587 79.5433 125.511 79.3522 125.359 79.2383C125.207 79.1244 124.97 79.0674 124.647 79.0674H123.832ZM124.647 78.3269C124.984 78.3269 125.272 78.359 125.512 78.423C125.752 78.4871 125.948 78.5785 126.099 78.6972C126.254 78.8158 126.366 78.9594 126.438 79.1279C126.509 79.2965 126.544 79.4863 126.544 79.6976C126.544 79.8186 126.527 79.9349 126.491 80.0465C126.455 80.1556 126.4 80.2589 126.324 80.3562C126.25 80.4511 126.155 80.5377 126.039 80.6161C125.925 80.6944 125.789 80.7609 125.63 80.8154C126.337 80.9745 126.69 81.3566 126.69 81.9618C126.69 82.1802 126.649 82.3819 126.566 82.567C126.483 82.7521 126.362 82.9124 126.203 83.0476C126.044 83.1805 125.848 83.285 125.615 83.3609C125.383 83.4369 125.117 83.4749 124.818 83.4749H122.874V78.3269H124.647ZM130.302 79.2632C130.273 79.3131 130.242 79.3499 130.209 79.3736C130.178 79.3949 130.139 79.4056 130.092 79.4056C130.042 79.4056 129.987 79.3878 129.928 79.3522C129.871 79.3143 129.802 79.2727 129.722 79.2276C129.641 79.1825 129.546 79.1422 129.437 79.1066C129.33 79.0686 129.203 79.0496 129.056 79.0496C128.923 79.0496 128.807 79.0662 128.707 79.0995C128.607 79.1303 128.523 79.1742 128.454 79.2312C128.388 79.2881 128.338 79.357 128.305 79.4377C128.271 79.516 128.255 79.6026 128.255 79.6976C128.255 79.8186 128.288 79.9195 128.354 80.0002C128.423 80.0809 128.513 80.1497 128.625 80.2067C128.737 80.2636 128.864 80.3146 129.006 80.3597C129.148 80.4048 129.294 80.4535 129.444 80.5057C129.593 80.5555 129.739 80.6149 129.882 80.6837C130.024 80.7502 130.151 80.8356 130.263 80.94C130.374 81.0421 130.463 81.1679 130.53 81.3174C130.599 81.4669 130.633 81.6485 130.633 81.8621C130.633 82.0947 130.593 82.3131 130.512 82.5172C130.434 82.7189 130.317 82.8957 130.163 83.0476C130.011 83.1972 129.825 83.3158 129.604 83.4037C129.383 83.4891 129.131 83.5318 128.846 83.5318C128.682 83.5318 128.521 83.5152 128.362 83.482C128.203 83.4511 128.049 83.406 127.902 83.3467C127.758 83.2874 127.621 83.2162 127.493 83.1331C127.365 83.05 127.251 82.9574 127.151 82.8554L127.432 82.3961C127.456 82.3629 127.487 82.3356 127.525 82.3143C127.563 82.2905 127.603 82.2787 127.646 82.2787C127.705 82.2787 127.769 82.3036 127.838 82.3534C127.907 82.4009 127.989 82.4543 128.084 82.5136C128.179 82.573 128.289 82.6275 128.415 82.6774C128.543 82.7249 128.696 82.7486 128.874 82.7486C129.147 82.7486 129.358 82.6845 129.508 82.5563C129.657 82.4258 129.732 82.2395 129.732 81.9974C129.732 81.8621 129.698 81.7518 129.629 81.6663C129.563 81.5809 129.474 81.5097 129.362 81.4527C129.25 81.3934 129.123 81.3435 128.981 81.3032C128.839 81.2628 128.694 81.2189 128.547 81.1715C128.4 81.124 128.255 81.067 128.112 81.0006C127.97 80.9341 127.843 80.8475 127.731 80.7407C127.62 80.6339 127.53 80.501 127.461 80.3419C127.394 80.1805 127.361 79.9824 127.361 79.7474C127.361 79.5599 127.398 79.3771 127.472 79.1991C127.547 79.0211 127.657 78.8633 127.799 78.7256C127.941 78.588 128.117 78.4776 128.326 78.3946C128.535 78.3115 128.775 78.2699 129.045 78.2699C129.349 78.2699 129.629 78.3174 129.885 78.4124C130.142 78.5073 130.36 78.6402 130.54 78.8111L130.302 79.2632ZM135.638 83.4749H134.683C134.617 83.4749 134.564 83.4582 134.523 83.425C134.485 83.3918 134.454 83.3538 134.431 83.3111L133.238 81.3352C133.219 81.3946 133.197 81.4456 133.17 81.4883L132.028 83.3111C131.999 83.3514 131.966 83.3894 131.928 83.425C131.892 83.4582 131.845 83.4749 131.786 83.4749H130.892L132.601 80.8261L130.96 78.3269H131.914C131.98 78.3269 132.028 78.3364 132.056 78.3554C132.087 78.372 132.115 78.4005 132.142 78.4408L133.313 80.3277C133.337 80.2684 133.365 80.209 133.398 80.1497L134.473 78.4586C134.5 78.4135 134.528 78.3803 134.559 78.359C134.59 78.3376 134.629 78.3269 134.676 78.3269H135.591L133.936 80.787L135.638 83.4749Z" fill="white"/>
<rect x="152.74" y="73.6267" width="20.9454" height="25.6329" fill="#F63C6B" fill-opacity="0.7"/>
<rect x="152.74" y="73.6267" width="20.9454" height="25.6329" stroke="#050505" stroke-width="0.712025"/>
<rect x="173.685" y="73.6267" width="20.9454" height="25.6329" fill="#0FEDBE" fill-opacity="0.8"/>
<rect x="173.685" y="73.6267" width="20.9454" height="25.6329" stroke="#050505" stroke-width="0.712025"/>
<rect x="194.631" y="73.6267" width="20.9454" height="25.6329" fill="#0FEDBE" fill-opacity="0.8"/>
<rect x="194.631" y="73.6267" width="20.9454" height="25.6329" stroke="#050505" stroke-width="0.712025"/>
<rect x="119.453" y="99.2595" width="24.2089" height="20.6487" fill="#F63C6B" fill-opacity="0.9"/>
<rect x="119.453" y="99.2595" width="24.2089" height="20.6487" stroke="#050505" stroke-width="0.712025"/>
<rect x="143.662" y="99.2595" width="22.6068" height="20.6487" fill="#0FEDBE" fill-opacity="0.4"/>
<rect x="143.662" y="99.2595" width="22.6068" height="20.6487" stroke="#050505" stroke-width="0.712025"/>
<rect x="166.268" y="99.2595" width="20.2334" height="20.6487" fill="#0FEDBE" fill-opacity="0.55"/>
<rect x="166.268" y="99.2595" width="20.2334" height="20.6487" stroke="#050505" stroke-width="0.712025"/>
<rect x="186.501" y="99.2595" width="18.8093" height="20.6487" fill="#0FEDBE" fill-opacity="0.4"/>
<rect x="186.501" y="99.2595" width="18.8093" height="20.6487" stroke="#050505" stroke-width="0.712025"/>
<rect x="205.311" y="99.2595" width="10.265" height="20.6487" fill="#0FEDBE" fill-opacity="0.8"/>
<rect x="205.311" y="99.2595" width="10.265" height="20.6487" stroke="#050505" stroke-width="0.712025"/>
<rect x="119.453" y="119.908" width="19.2247" height="17.3734" fill="#0FEDBE" fill-opacity="0.4"/>
<rect x="119.453" y="119.908" width="19.2247" height="17.3734" stroke="#050505" stroke-width="0.712025"/>
<rect x="119.453" y="137.282" width="19.2247" height="22.8916" fill="#0FEDBE" fill-opacity="0.4"/>
<rect x="119.453" y="137.282" width="19.2247" height="22.8916" stroke="#050505" stroke-width="0.712025"/>
<rect x="119.453" y="160.174" width="19.2247" height="10.8406" fill="#0FEDBE" fill-opacity="0.4"/>
<rect x="119.453" y="160.174" width="19.2247" height="10.8406" stroke="#050505" stroke-width="0.712025"/>
<rect x="119.453" y="171.014" width="19.2247" height="10.8406" fill="#0FEDBE" fill-opacity="0.8"/>
<rect x="119.453" y="171.014" width="19.2247" height="10.8406" stroke="#050505" stroke-width="0.712025"/>
<rect x="138.677" y="119.908" width="19.2247" height="17.3734" fill="#0FEDBE" fill-opacity="0.8"/>
<rect x="138.677" y="119.908" width="19.2247" height="17.3734" stroke="#050505" stroke-width="0.712025"/>
<rect x="138.677" y="137.282" width="19.2247" height="17.1954" fill="#F63C6B" fill-opacity="0.9"/>
<rect x="138.677" y="137.282" width="19.2247" height="17.1954" stroke="#050505" stroke-width="0.712025"/>
<rect x="138.677" y="154.477" width="19.2247" height="9.12579" fill="#F63C6B" fill-opacity="0.7"/>
<rect x="138.677" y="154.477" width="19.2247" height="9.12579" stroke="#050505" stroke-width="0.712025"/>
<rect x="138.677" y="163.603" width="19.2247" height="9.12579" fill="#F63C6B" fill-opacity="0.7"/>
<rect x="138.677" y="163.603" width="19.2247" height="9.12579" stroke="#050505" stroke-width="0.712025"/>
<rect x="138.677" y="172.729" width="19.2247" height="9.12579" fill="#0FEDBE" fill-opacity="0.4"/>
<rect x="138.677" y="172.729" width="19.2247" height="9.12579" stroke="#050505" stroke-width="0.712025"/>
<rect x="157.902" y="119.908" width="14.4185" height="14.9525" fill="#0FEDBE" fill-opacity="0.55"/>
<rect x="157.902" y="119.908" width="14.4185" height="14.9525" stroke="#050505" stroke-width="0.712025"/>
<rect x="172.32" y="119.908" width="14.4185" height="14.9525" fill="#0FEDBE" fill-opacity="0.8"/>
<rect x="172.32" y="119.908" width="14.4185" height="14.9525" stroke="#050505" stroke-width="0.712025"/>
<rect x="186.739" y="119.908" width="14.4185" height="14.9525" fill="#0FEDBE" fill-opacity="0.4"/>
<rect x="186.739" y="119.908" width="14.4185" height="14.9525" stroke="#050505" stroke-width="0.712025"/>
<rect x="201.157" y="119.908" width="14.4185" height="14.9525" fill="#0FEDBE" fill-opacity="0.8"/>
<rect x="201.157" y="119.908" width="14.4185" height="14.9525" stroke="#050505" stroke-width="0.712025"/>
<rect x="157.902" y="134.861" width="11.9066" height="16.3766" fill="#0FEDBE" fill-opacity="0.8"/>
<rect x="157.902" y="134.861" width="11.9066" height="16.3766" stroke="#050505" stroke-width="0.712025"/>
<rect x="169.809" y="134.861" width="11.9066" height="16.3766" fill="#0FEDBE" fill-opacity="0.55"/>
<rect x="169.809" y="134.861" width="11.9066" height="16.3766" stroke="#050505" stroke-width="0.712025"/>
<rect x="181.715" y="134.861" width="11.9066" height="16.3766" fill="#F63C6B" fill-opacity="0.9"/>
<rect x="181.715" y="134.861" width="11.9066" height="16.3766" stroke="#050505" stroke-width="0.712025"/>
<rect x="193.622" y="134.861" width="12.2231" height="16.3766" fill="#0FEDBE" fill-opacity="0.4"/>
<rect x="193.622" y="134.861" width="12.2231" height="16.3766" stroke="#050505" stroke-width="0.712025"/>
<rect x="205.845" y="134.861" width="9.73101" height="16.3766" fill="#F63C6B" fill-opacity="0.7"/>
<rect x="205.845" y="134.861" width="9.73101" height="16.3766" stroke="#050505" stroke-width="0.712025"/>
<rect x="157.902" y="151.238" width="14.2405" height="15.3085" fill="#0FEDBE" fill-opacity="0.8"/>
<rect x="157.902" y="151.238" width="14.2405" height="15.3085" stroke="#050505" stroke-width="0.712025"/>
<rect x="157.902" y="166.546" width="14.2405" height="15.3085" fill="#0FEDBE" fill-opacity="0.8"/>
<rect x="157.902" y="166.546" width="14.2405" height="15.3085" stroke="#050505" stroke-width="0.712025"/>
<rect x="172.143" y="151.238" width="14.2405" height="10.2057" fill="#0FEDBE" fill-opacity="0.55"/>
<rect x="172.143" y="151.238" width="14.2405" height="10.2057" stroke="#050505" stroke-width="0.712025"/>
<rect x="172.143" y="161.443" width="14.2405" height="10.2057" fill="#0FEDBE" fill-opacity="0.4"/>
<rect x="172.143" y="161.443" width="14.2405" height="10.2057" stroke="#050505" stroke-width="0.712025"/>
<rect x="172.143" y="171.649" width="14.2405" height="10.2057" fill="#0FEDBE" fill-opacity="0.4"/>
<rect x="172.143" y="171.649" width="14.2405" height="10.2057" stroke="#050505" stroke-width="0.712025"/>
<rect x="186.383" y="151.238" width="7.23892" height="11.3924" fill="#0FEDBE" fill-opacity="0.4"/>
<rect x="186.383" y="151.238" width="7.23892" height="11.3924" stroke="#050505" stroke-width="0.712025"/>
<rect x="193.622" y="151.238" width="12.2231" height="11.3924" fill="#F63C6B" fill-opacity="0.9"/>
<rect x="193.622" y="151.238" width="12.2231" height="11.3924" stroke="#050505" stroke-width="0.712025"/>
<rect x="205.845" y="151.238" width="9.73101" height="11.3924" fill="#0FEDBE" fill-opacity="0.8"/>
<rect x="205.845" y="151.238" width="9.73101" height="11.3924" stroke="#050505" stroke-width="0.712025"/>
<rect x="186.383" y="162.63" width="8.5443" height="9.61234" fill="#0FEDBE" fill-opacity="0.4"/>
<rect x="186.383" y="162.63" width="8.5443" height="9.61234" stroke="#050505" stroke-width="0.712025"/>
<rect x="186.383" y="172.242" width="8.5443" height="9.61234" fill="#0FEDBE" fill-opacity="0.8"/>
<rect x="186.383" y="172.242" width="8.5443" height="9.61234" stroke="#050505" stroke-width="0.712025"/>
<rect x="194.927" y="162.63" width="11.7484" height="6.40823" fill="#F63C6B" fill-opacity="0.7"/>
<rect x="194.927" y="162.63" width="11.7484" height="6.40823" stroke="#050505" stroke-width="0.712025"/>
<rect x="206.676" y="162.63" width="8.90032" height="6.40823" fill="#0FEDBE" fill-opacity="0.8"/>
<rect x="206.676" y="162.63" width="8.90032" height="6.40823" stroke="#050505" stroke-width="0.712025"/>
<rect x="194.927" y="169.038" width="8.90032" height="6.40823" fill="#0FEDBE" fill-opacity="0.4"/>
<rect x="194.927" y="169.038" width="8.90032" height="6.40823" stroke="#050505" stroke-width="0.712025"/>
<rect x="203.828" y="169.038" width="11.7484" height="6.40823" fill="#0FEDBE" fill-opacity="0.55"/>
<rect x="203.828" y="169.038" width="11.7484" height="6.40823" stroke="#050505" stroke-width="0.712025"/>
<rect x="194.927" y="175.446" width="10.3244" height="6.40823" fill="#F63C6B" fill-opacity="0.7"/>
<rect x="194.927" y="175.446" width="10.3244" height="6.40823" stroke="#050505" stroke-width="0.712025"/>
<rect x="205.251" y="175.446" width="10.3244" height="6.40823" fill="#F63C6B" fill-opacity="0.5"/>
<rect x="205.251" y="175.446" width="10.3244" height="6.40823" stroke="#050505" stroke-width="0.712025"/>
</svg>
