<svg width="236" height="391" viewBox="0 0 236 391" fill="none" xmlns="http://www.w3.org/2000/svg">
<rect x="1" y="1" width="119.976" height="180" fill="#0FEDBE" fill-opacity="0.8"/>
<rect x="1" y="1" width="119.976" height="180" stroke="#050505" stroke-width="0.712025"/>
<path d="M7.79989 9.51555L7.04799 7.46064C7.01096 7.36951 6.97251 7.26128 6.93264 7.13596C6.89276 7.01064 6.85289 6.87536 6.81302 6.73011C6.77599 6.87536 6.73754 7.01207 6.69767 7.14023C6.6578 7.26555 6.61935 7.3752 6.58232 7.46919L5.8347 9.51555H7.79989ZM9.82916 11.8481H8.94055C8.84087 11.8481 8.7597 11.8239 8.69704 11.7755C8.63438 11.7243 8.58739 11.6616 8.55606 11.5875L8.09466 10.3273H5.53564L5.07425 11.5875C5.05147 11.653 5.00732 11.7129 4.94182 11.767C4.87631 11.8211 4.79514 11.8481 4.6983 11.8481H3.80115L6.23201 5.67061H7.40258L9.82916 11.8481ZM13.7325 9.51555L12.9806 7.46064C12.9436 7.36951 12.9051 7.26128 12.8653 7.13596C12.8254 7.01064 12.7855 6.87536 12.7456 6.73011C12.7086 6.87536 12.6702 7.01207 12.6303 7.14023C12.5904 7.26555 12.552 7.3752 12.5149 7.46919L11.7673 9.51555H13.7325ZM15.7618 11.8481H14.8732C14.7735 11.8481 14.6923 11.8239 14.6297 11.7755C14.567 11.7243 14.52 11.6616 14.4887 11.5875L14.0273 10.3273H11.4683L11.0069 11.5875C10.9841 11.653 10.9399 11.7129 10.8744 11.767C10.8089 11.8211 10.7278 11.8481 10.6309 11.8481H9.73377L12.1646 5.67061H13.3352L15.7618 11.8481ZM18.4091 8.77647C18.6199 8.77647 18.8036 8.75083 18.9602 8.69957C19.1169 8.64545 19.2464 8.56998 19.349 8.47314C19.4544 8.37346 19.5327 8.25384 19.5839 8.11428C19.6352 7.97188 19.6608 7.81381 19.6608 7.64007C19.6608 7.47488 19.6352 7.32536 19.5839 7.1915C19.5327 7.05764 19.4558 6.94371 19.3533 6.84973C19.2507 6.75574 19.1211 6.68454 18.9645 6.63612C18.8078 6.58485 18.6227 6.55922 18.4091 6.55922H17.5504V8.77647H18.4091ZM18.4091 5.67061C18.8221 5.67061 19.1795 5.71903 19.4814 5.81587C19.7833 5.9127 20.0325 6.04799 20.229 6.22172C20.4256 6.39545 20.5708 6.60337 20.6648 6.84545C20.7616 7.08754 20.8101 7.35242 20.8101 7.64007C20.8101 7.93913 20.7602 8.21397 20.6605 8.4646C20.5608 8.71238 20.4113 8.92599 20.212 9.10542C20.0126 9.28485 19.762 9.42441 19.4601 9.52409C19.161 9.62378 18.8107 9.67362 18.4091 9.67362H17.5504V11.8481H16.4012V5.67061H18.4091ZM25.3098 10.8997V11.8481H21.6913V5.67061H22.8405V10.8997H25.3098Z" fill="white"/>
<rect x="120.976" y="1" width="114.28" height="180" fill="#0FEDBE" fill-opacity="0.8"/>
<rect x="120.976" y="1" width="114.28" height="180" stroke="#050505" stroke-width="0.712025"/>
<path d="M131.211 5.67061V11.8481H130.198V7.85795C130.198 7.69846 130.207 7.52615 130.224 7.34102L128.357 10.8485C128.269 11.0165 128.133 11.1005 127.951 11.1005H127.789C127.606 11.1005 127.471 11.0165 127.383 10.8485L125.495 7.32821C125.503 7.42219 125.51 7.51476 125.516 7.6059C125.522 7.69704 125.525 7.78106 125.525 7.85795V11.8481H124.512V5.67061H125.379C125.431 5.67061 125.475 5.67204 125.512 5.67488C125.549 5.67773 125.581 5.68485 125.61 5.69625C125.641 5.70764 125.668 5.72615 125.691 5.75178C125.717 5.77742 125.741 5.81159 125.764 5.85431L127.614 9.28485C127.662 9.37599 127.706 9.46998 127.746 9.56682C127.789 9.66365 127.83 9.76333 127.87 9.86587C127.91 9.76049 127.951 9.65938 127.994 9.56254C128.037 9.46286 128.082 9.36745 128.131 9.27631L129.955 5.85431C129.978 5.81159 130.002 5.77742 130.027 5.75178C130.053 5.72615 130.08 5.70764 130.109 5.69625C130.14 5.68485 130.174 5.67773 130.211 5.67488C130.248 5.67204 130.292 5.67061 130.344 5.67061H131.211ZM135.879 6.79419C135.844 6.854 135.807 6.89814 135.768 6.92663C135.731 6.95226 135.684 6.96507 135.627 6.96507C135.567 6.96507 135.501 6.94371 135.43 6.90099C135.362 6.85542 135.279 6.80558 135.182 6.75147C135.085 6.69735 134.972 6.64894 134.84 6.60621C134.712 6.56064 134.56 6.53786 134.383 6.53786C134.224 6.53786 134.084 6.5578 133.965 6.59767C133.845 6.63469 133.744 6.68738 133.661 6.75574C133.582 6.82409 133.522 6.90669 133.482 7.00352C133.442 7.09751 133.422 7.20147 133.422 7.31539C133.422 7.46064 133.462 7.58169 133.542 7.67852C133.624 7.77536 133.733 7.85795 133.866 7.92631C134 7.99466 134.153 8.0559 134.324 8.11001C134.494 8.16413 134.67 8.22251 134.849 8.28517C135.028 8.34498 135.204 8.41618 135.375 8.49878C135.545 8.57852 135.698 8.68106 135.832 8.80637C135.965 8.92884 136.072 9.07979 136.152 9.25922C136.235 9.43865 136.276 9.65653 136.276 9.91286C136.276 10.192 136.228 10.454 136.131 10.6989C136.037 10.941 135.897 11.1532 135.712 11.3355C135.53 11.5149 135.306 11.6573 135.041 11.7627C134.776 11.8652 134.473 11.9165 134.131 11.9165C133.935 11.9165 133.741 11.8966 133.55 11.8567C133.359 11.8197 133.176 11.7655 132.999 11.6943C132.825 11.6231 132.662 11.5377 132.508 11.438C132.354 11.3383 132.217 11.2273 132.098 11.1048L132.435 10.5537C132.464 10.5138 132.501 10.4811 132.546 10.4554C132.592 10.4269 132.64 10.4127 132.692 10.4127C132.763 10.4127 132.84 10.4426 132.922 10.5024C133.005 10.5594 133.103 10.6235 133.217 10.6947C133.331 10.7659 133.463 10.8314 133.614 10.8912C133.768 10.9481 133.952 10.9766 134.165 10.9766C134.493 10.9766 134.747 10.8997 134.926 10.7459C135.105 10.5893 135.195 10.3657 135.195 10.0752C135.195 9.91286 135.154 9.78042 135.071 9.67789C134.991 9.57536 134.885 9.48992 134.751 9.42156C134.617 9.35036 134.465 9.29055 134.294 9.24213C134.123 9.19371 133.949 9.14102 133.772 9.08406C133.596 9.0271 133.422 8.95875 133.251 8.879C133.08 8.79925 132.928 8.6953 132.794 8.56713C132.66 8.43897 132.552 8.27947 132.469 8.08865C132.39 7.89498 132.35 7.65716 132.35 7.3752C132.35 7.1502 132.394 6.9309 132.482 6.71729C132.573 6.50368 132.704 6.31428 132.875 6.14909C133.046 5.9839 133.257 5.85147 133.508 5.75178C133.758 5.6521 134.046 5.60226 134.371 5.60226C134.735 5.60226 135.071 5.65922 135.379 5.77314C135.686 5.88707 135.948 6.04656 136.165 6.25163L135.879 6.79419ZM138.432 6.58485V8.41333H140.747V9.33185H138.432V11.8481H137.278V5.67061H141.175V6.58485H138.432ZM146.433 6.61476H144.57V11.8481H143.421V6.61476H141.558V5.67061H146.433V6.61476Z" fill="white"/>
<rect x="1" y="181" width="60.5222" height="61.2342" fill="#0FEDBE" fill-opacity="0.8"/>
<rect x="1" y="181" width="60.5222" height="61.2342" stroke="#050505" stroke-width="0.712025"/>
<path d="M9.74371 185.671V191.848H9.15416C9.06302 191.848 8.98612 191.834 8.92346 191.805C8.86365 191.774 8.80527 191.723 8.7483 191.652L5.52283 187.533C5.53992 187.721 5.54846 187.895 5.54846 188.054V191.848H4.53596V185.671H5.13833C5.18675 185.671 5.22805 185.673 5.26223 185.679C5.29925 185.682 5.33058 185.691 5.35621 185.705C5.3847 185.716 5.41175 185.735 5.43739 185.76C5.46302 185.783 5.4915 185.814 5.52283 185.854L8.76112 189.99C8.75258 189.89 8.74546 189.792 8.73976 189.695C8.73406 189.598 8.73121 189.508 8.73121 189.426V185.671H9.74371ZM16.4126 185.671L13.9177 191.848H12.8795L10.3846 185.671H11.3074C11.4071 185.671 11.4882 185.695 11.5509 185.743C11.6136 185.792 11.6606 185.854 11.6919 185.931L13.1487 189.699C13.1971 189.822 13.2427 189.957 13.2854 190.105C13.331 190.25 13.3737 190.403 13.4136 190.562C13.4477 190.403 13.4848 190.25 13.5246 190.105C13.5645 189.957 13.6087 189.822 13.6571 189.699L15.1053 185.931C15.1281 185.866 15.1723 185.806 15.2378 185.752C15.3061 185.698 15.3887 185.671 15.4856 185.671H16.4126ZM22.5375 188.759C22.5375 189.212 22.462 189.628 22.311 190.007C22.1601 190.386 21.9479 190.712 21.6745 190.985C21.4011 191.259 21.0721 191.471 20.6876 191.622C20.3031 191.773 19.8759 191.848 19.406 191.848H17.052V185.671H19.406C19.8759 185.671 20.3031 185.748 20.6876 185.901C21.0721 186.052 21.4011 186.264 21.6745 186.538C21.9479 186.808 22.1601 187.133 22.311 187.512C22.462 187.891 22.5375 188.307 22.5375 188.759ZM21.3584 188.759C21.3584 188.42 21.3128 188.117 21.2217 187.849C21.1334 187.579 21.0038 187.351 20.8329 187.166C20.6648 186.978 20.4598 186.834 20.2177 186.734C19.9785 186.635 19.7079 186.585 19.406 186.585H18.2055V190.934H19.406C19.7079 190.934 19.9785 190.884 20.2177 190.784C20.4598 190.685 20.6648 190.542 20.8329 190.357C21.0038 190.169 21.1334 189.941 21.2217 189.674C21.3128 189.403 21.3584 189.098 21.3584 188.759ZM26.6241 189.516L25.8722 187.461C25.8351 187.37 25.7967 187.261 25.7568 187.136C25.7169 187.011 25.6771 186.875 25.6372 186.73C25.6002 186.875 25.5617 187.012 25.5218 187.14C25.482 187.266 25.4435 187.375 25.4065 187.469L24.6589 189.516H26.6241ZM28.6533 191.848H27.7647C27.665 191.848 27.5839 191.824 27.5212 191.776C27.4585 191.724 27.4116 191.662 27.3802 191.588L26.9188 190.327H24.3598L23.8984 191.588C23.8756 191.653 23.8315 191.713 23.766 191.767C23.7005 191.821 23.6193 191.848 23.5225 191.848H22.6253L25.0562 185.671H26.2267L28.6533 191.848Z" fill="white"/>
<rect x="1" y="242.234" width="60.5222" height="58.3861" fill="#0FEDBE" fill-opacity="0.4"/>
<rect x="1" y="242.234" width="60.5222" height="58.3861" stroke="#050505" stroke-width="0.712025"/>
<path d="M9.82916 246.905L7.33422 253.082H6.29609L3.80115 246.905H4.72394C4.82362 246.905 4.90479 246.929 4.96745 246.977C5.03011 247.026 5.0771 247.088 5.10843 247.165L6.56523 250.933C6.61365 251.056 6.65922 251.191 6.70194 251.339C6.74751 251.484 6.79023 251.637 6.83011 251.796C6.86428 251.637 6.90131 251.484 6.94118 251.339C6.98106 251.191 7.0252 251.056 7.07362 250.933L8.52188 247.165C8.54466 247.1 8.58881 247.04 8.65432 246.986C8.72267 246.932 8.80527 246.905 8.9021 246.905H9.82916Z" fill="white"/>
<rect x="1" y="300.62" width="60.5222" height="46.9937" fill="#0FEDBE" fill-opacity="0.55"/>
<rect x="1" y="300.62" width="60.5222" height="46.9937" stroke="#050505" stroke-width="0.712025"/>
<path d="M11.2347 305.291V311.469H10.2222V307.478C10.2222 307.319 10.2307 307.147 10.2478 306.961L8.3809 310.469C8.29261 310.637 8.15732 310.721 7.97504 310.721H7.8127C7.63042 310.721 7.49514 310.637 7.40685 310.469L5.51856 306.949C5.5271 307.043 5.53422 307.135 5.53992 307.226C5.54561 307.317 5.54846 307.401 5.54846 307.478V311.469H4.53596V305.291H5.40321C5.45447 305.291 5.49862 305.292 5.53564 305.295C5.57267 305.298 5.60542 305.305 5.6339 305.317C5.66523 305.328 5.69229 305.347 5.71507 305.372C5.74071 305.398 5.76492 305.432 5.7877 305.475L7.63754 308.905C7.68596 308.996 7.73011 309.09 7.76998 309.187C7.8127 309.284 7.854 309.384 7.89387 309.486C7.93375 309.381 7.97504 309.28 8.01777 309.183C8.06049 309.083 8.10606 308.988 8.15447 308.897L9.97868 305.475C10.0015 305.432 10.0257 305.398 10.0513 305.372C10.0769 305.347 10.104 305.328 10.1325 305.317C10.1638 305.305 10.198 305.298 10.235 305.295C10.272 305.292 10.3162 305.291 10.3674 305.291H11.2347ZM15.8769 309.136L15.125 307.081C15.088 306.99 15.0495 306.882 15.0097 306.756C14.9698 306.631 14.9299 306.496 14.8901 306.35C14.853 306.496 14.8146 306.632 14.7747 306.761C14.7348 306.886 14.6964 306.996 14.6594 307.09L13.9117 309.136H15.8769ZM17.9062 311.469H17.0176C16.9179 311.469 16.8367 311.444 16.7741 311.396C16.7114 311.345 16.6644 311.282 16.6331 311.208L16.1717 309.948H13.6127L13.1513 311.208C13.1285 311.273 13.0844 311.333 13.0189 311.387C12.9533 311.441 12.8722 311.469 12.7753 311.469H11.8782L14.309 305.291H15.4796L17.9062 311.469Z" fill="white"/>
<rect x="1" y="347.614" width="60.5222" height="42.2469" fill="#0FEDBE" fill-opacity="0.8"/>
<rect x="1" y="347.614" width="60.5222" height="42.2469" stroke="#050505" stroke-width="0.712025"/>
<path d="M6.54387 355.39C6.75463 355.39 6.93833 355.365 7.09498 355.314C7.25163 355.259 7.38121 355.184 7.48375 355.087C7.58913 354.987 7.66745 354.868 7.71871 354.728C7.76998 354.586 7.79561 354.428 7.79561 354.254C7.79561 354.089 7.76998 353.939 7.71871 353.806C7.66745 353.672 7.59055 353.558 7.48802 353.464C7.38549 353.37 7.2559 353.299 7.09925 353.25C6.94261 353.199 6.75748 353.173 6.54387 353.173H5.68517V355.39H6.54387ZM6.54387 352.285C6.95685 352.285 7.31428 352.333 7.61618 352.43C7.91808 352.527 8.16729 352.662 8.36381 352.836C8.56033 353.009 8.70558 353.217 8.79957 353.459C8.8964 353.702 8.94482 353.966 8.94482 354.254C8.94482 354.553 8.89498 354.828 8.7953 355.079C8.69561 355.326 8.54609 355.54 8.34672 355.719C8.14735 355.899 7.89672 356.038 7.59482 356.138C7.29577 356.238 6.94545 356.288 6.54387 356.288H5.68517V358.462H4.53596V352.285H6.54387ZM12.3206 356.07V358.462H11.1756V356.07L8.9242 352.285H9.9367C10.0364 352.285 10.1147 352.309 10.1717 352.357C10.2315 352.406 10.2813 352.467 10.3212 352.541L11.449 354.604C11.5145 354.727 11.5715 354.842 11.6199 354.95C11.6712 355.059 11.7168 355.167 11.7566 355.275C11.7937 355.167 11.8364 355.059 11.8848 354.95C11.9332 354.842 11.9888 354.727 12.0514 354.604L13.175 352.541C13.2063 352.478 13.2533 352.42 13.316 352.366C13.3786 352.312 13.4584 352.285 13.5552 352.285H14.572L12.3206 356.07ZM17.2159 355.39C17.4267 355.39 17.6104 355.365 17.767 355.314C17.9237 355.259 18.0533 355.184 18.1558 355.087C18.2612 354.987 18.3395 354.868 18.3908 354.728C18.442 354.586 18.4676 354.428 18.4676 354.254C18.4676 354.089 18.442 353.939 18.3908 353.806C18.3395 353.672 18.2626 353.558 18.1601 353.464C18.0575 353.37 17.9279 353.299 17.7713 353.25C17.6146 353.199 17.4295 353.173 17.2159 353.173H16.3572V355.39H17.2159ZM17.2159 352.285C17.6289 352.285 17.9863 352.333 18.2882 352.43C18.5901 352.527 18.8393 352.662 19.0358 352.836C19.2324 353.009 19.3776 353.217 19.4716 353.459C19.5684 353.702 19.6169 353.966 19.6169 354.254C19.6169 354.553 19.567 354.828 19.4673 355.079C19.3676 355.326 19.2181 355.54 19.0188 355.719C18.8194 355.899 18.5688 356.038 18.2669 356.138C17.9678 356.238 17.6175 356.288 17.2159 356.288H16.3572V358.462H15.208V352.285H17.2159ZM24.1166 357.514V358.462H20.4981V352.285H21.6473V357.514H24.1166Z" fill="white"/>
<rect x="61.522" y="181" width="45.5696" height="46.9937" fill="#0FEDBE" fill-opacity="0.55"/>
<rect x="61.522" y="181" width="45.5696" height="46.9937" stroke="#050505" stroke-width="0.712025"/>
<path d="M68.3219 189.516L67.57 187.461C67.5329 187.37 67.4945 187.261 67.4546 187.136C67.4147 187.011 67.3749 186.875 67.335 186.73C67.298 186.875 67.2595 187.012 67.2196 187.14C67.1798 187.266 67.1413 187.375 67.1043 187.469L66.3567 189.516H68.3219ZM70.3511 191.848H69.4625C69.3628 191.848 69.2817 191.824 69.219 191.776C69.1564 191.724 69.1094 191.662 69.078 191.588L68.6166 190.327H66.0576L65.5962 191.588C65.5734 191.653 65.5293 191.713 65.4638 191.767C65.3983 191.821 65.3171 191.848 65.2203 191.848H64.3231L66.754 185.671H67.9245L70.3511 191.848ZM76.476 188.759C76.476 189.212 76.4005 189.628 76.2496 190.007C76.0986 190.386 75.8864 190.712 75.613 190.985C75.3396 191.259 75.0106 191.471 74.6262 191.622C74.2417 191.773 73.8144 191.848 73.3445 191.848H70.9906V185.671H73.3445C73.8144 185.671 74.2417 185.748 74.6262 185.901C75.0106 186.052 75.3396 186.264 75.613 186.538C75.8864 186.808 76.0986 187.133 76.2496 187.512C76.4005 187.891 76.476 188.307 76.476 188.759ZM75.2969 188.759C75.2969 188.42 75.2513 188.117 75.1602 187.849C75.0719 187.579 74.9423 187.351 74.7714 187.166C74.6034 186.978 74.3983 186.834 74.1562 186.734C73.917 186.635 73.6464 186.585 73.3445 186.585H72.144V190.934H73.3445C73.6464 190.934 73.917 190.884 74.1562 190.784C74.3983 190.685 74.6034 190.542 74.7714 190.357C74.9423 190.169 75.0719 189.941 75.1602 189.674C75.2513 189.403 75.2969 189.098 75.2969 188.759ZM79.8018 190.951C80.0154 190.951 80.1948 190.925 80.3401 190.874C80.4853 190.823 80.6007 190.754 80.6861 190.669C80.7744 190.584 80.8371 190.484 80.8741 190.37C80.914 190.256 80.9339 190.135 80.9339 190.007C80.9339 189.873 80.9126 189.753 80.8698 189.648C80.8271 189.54 80.7602 189.449 80.669 189.375C80.5779 189.298 80.4597 189.239 80.3145 189.199C80.1721 189.16 79.9997 189.14 79.7975 189.14H78.6398V190.951H79.8018ZM78.6398 186.559V188.345H79.554C79.9471 188.345 80.2433 188.274 80.4426 188.131C80.6448 187.989 80.7459 187.763 80.7459 187.452C80.7459 187.13 80.6548 186.901 80.4725 186.764C80.2902 186.628 80.0054 186.559 79.6181 186.559H78.6398ZM79.6181 185.671C80.0225 185.671 80.3686 185.709 80.6562 185.786C80.9439 185.863 81.1789 185.973 81.3611 186.115C81.5463 186.257 81.6815 186.43 81.767 186.632C81.8524 186.834 81.8952 187.062 81.8952 187.315C81.8952 187.461 81.8738 187.6 81.8311 187.734C81.7883 187.865 81.7214 187.989 81.6303 188.106C81.542 188.22 81.4281 188.324 81.2885 188.418C81.1518 188.512 80.988 188.591 80.7972 188.657C81.6459 188.848 82.0703 189.306 82.0703 190.032C82.0703 190.295 82.0205 190.537 81.9208 190.759C81.8211 190.981 81.6758 191.173 81.485 191.335C81.2942 191.495 81.0592 191.62 80.7801 191.711C80.501 191.803 80.182 191.848 79.8232 191.848H77.4906V185.671H79.6181ZM84.2679 186.585V188.298H86.4296V189.182H84.2679V190.93H87.0107V191.848H83.1145V185.671H87.0107V186.585H84.2679Z" fill="white"/>
<rect x="107.092" y="181" width="44.1456" height="46.9937" fill="#0FEDBE" fill-opacity="0.55"/>
<rect x="107.092" y="181" width="44.1456" height="46.9937" stroke="#050505" stroke-width="0.712025"/>
<path d="M111.781 191.848H110.628V185.671H111.781V191.848ZM118.372 185.671V191.848H117.783C117.691 191.848 117.615 191.834 117.552 191.805C117.492 191.774 117.434 191.723 117.377 191.652L114.151 187.533C114.168 187.721 114.177 187.895 114.177 188.054V191.848H113.164V185.671H113.767C113.815 185.671 113.856 185.673 113.891 185.679C113.928 185.682 113.959 185.691 113.985 185.705C114.013 185.716 114.04 185.735 114.066 185.76C114.091 185.783 114.12 185.814 114.151 185.854L117.39 189.99C117.381 189.89 117.374 189.792 117.368 189.695C117.362 189.598 117.36 189.508 117.36 189.426V185.671H118.372ZM124.063 186.615H122.2V191.848H121.051V186.615H119.188V185.671H124.063V186.615ZM128.905 190.391C128.967 190.391 129.023 190.416 129.071 190.464L129.524 190.955C129.274 191.266 128.965 191.504 128.597 191.669C128.233 191.834 127.794 191.916 127.281 191.916C126.823 191.916 126.41 191.838 126.042 191.682C125.678 191.525 125.366 191.307 125.107 191.028C124.848 190.749 124.648 190.416 124.509 190.028C124.372 189.641 124.304 189.218 124.304 188.759C124.304 188.295 124.378 187.871 124.526 187.486C124.674 187.099 124.882 186.766 125.149 186.487C125.42 186.207 125.742 185.991 126.115 185.837C126.488 185.681 126.901 185.602 127.354 185.602C127.804 185.602 128.203 185.676 128.55 185.824C128.9 185.973 129.198 186.166 129.443 186.405L129.058 186.939C129.036 186.974 129.006 187.004 128.969 187.029C128.935 187.055 128.886 187.068 128.824 187.068C128.781 187.068 128.737 187.056 128.691 187.033C128.646 187.008 128.596 186.978 128.542 186.944C128.487 186.907 128.425 186.867 128.354 186.824C128.282 186.781 128.2 186.743 128.106 186.709C128.012 186.672 127.902 186.642 127.777 186.619C127.654 186.593 127.512 186.581 127.35 186.581C127.073 186.581 126.82 186.63 126.589 186.73C126.361 186.827 126.165 186.969 126 187.157C125.834 187.342 125.706 187.57 125.615 187.841C125.524 188.109 125.478 188.415 125.478 188.759C125.478 189.107 125.527 189.416 125.624 189.686C125.723 189.957 125.857 190.185 126.025 190.37C126.193 190.555 126.391 190.698 126.619 190.797C126.847 190.894 127.092 190.942 127.354 190.942C127.511 190.942 127.652 190.934 127.777 190.917C127.905 190.9 128.022 190.873 128.127 190.836C128.235 190.799 128.336 190.752 128.43 190.695C128.527 190.635 128.623 190.562 128.717 190.477C128.745 190.451 128.775 190.431 128.806 190.417C128.838 190.4 128.871 190.391 128.905 190.391Z" fill="white"/>
<rect x="151.237" y="181" width="42.0095" height="46.9937" fill="#0FEDBE" fill-opacity="0.4"/>
<rect x="151.237" y="181" width="42.0095" height="46.9937" stroke="#050505" stroke-width="0.712025"/>
<path d="M159.016 190.391C159.078 190.391 159.134 190.416 159.182 190.464L159.635 190.955C159.384 191.266 159.075 191.504 158.708 191.669C158.343 191.834 157.905 191.916 157.392 191.916C156.934 191.916 156.521 191.838 156.153 191.682C155.789 191.525 155.477 191.307 155.218 191.028C154.958 190.749 154.759 190.416 154.619 190.028C154.483 189.641 154.414 189.218 154.414 188.759C154.414 188.295 154.488 187.871 154.637 187.486C154.785 187.099 154.993 186.766 155.26 186.487C155.531 186.207 155.853 185.991 156.226 185.837C156.599 185.681 157.012 185.602 157.465 185.602C157.915 185.602 158.313 185.676 158.661 185.824C159.011 185.973 159.309 186.166 159.554 186.405L159.169 186.939C159.147 186.974 159.117 187.004 159.08 187.029C159.045 187.055 158.997 187.068 158.934 187.068C158.892 187.068 158.847 187.056 158.802 187.033C158.756 187.008 158.706 186.978 158.652 186.944C158.598 186.907 158.536 186.867 158.464 186.824C158.393 186.781 158.311 186.743 158.217 186.709C158.123 186.672 158.013 186.642 157.888 186.619C157.765 186.593 157.623 186.581 157.46 186.581C157.184 186.581 156.931 186.63 156.7 186.73C156.472 186.827 156.276 186.969 156.11 187.157C155.945 187.342 155.817 187.57 155.726 187.841C155.635 188.109 155.589 188.415 155.589 188.759C155.589 189.107 155.638 189.416 155.734 189.686C155.834 189.957 155.968 190.185 156.136 190.37C156.304 190.555 156.502 190.698 156.73 190.797C156.958 190.894 157.203 190.942 157.465 190.942C157.621 190.942 157.762 190.934 157.888 190.917C158.016 190.9 158.133 190.873 158.238 190.836C158.346 190.799 158.447 190.752 158.541 190.695C158.638 190.635 158.734 190.562 158.828 190.477C158.856 190.451 158.886 190.431 158.917 190.417C158.949 190.4 158.981 190.391 159.016 190.391ZM163.712 186.794C163.678 186.854 163.641 186.898 163.601 186.927C163.564 186.952 163.517 186.965 163.46 186.965C163.4 186.965 163.334 186.944 163.263 186.901C163.195 186.855 163.112 186.806 163.015 186.751C162.919 186.697 162.805 186.649 162.674 186.606C162.545 186.561 162.393 186.538 162.216 186.538C162.057 186.538 161.917 186.558 161.798 186.598C161.678 186.635 161.577 186.687 161.494 186.756C161.415 186.824 161.355 186.907 161.315 187.004C161.275 187.098 161.255 187.201 161.255 187.315C161.255 187.461 161.295 187.582 161.375 187.679C161.457 187.775 161.566 187.858 161.7 187.926C161.833 187.995 161.986 188.056 162.157 188.11C162.328 188.164 162.503 188.223 162.682 188.285C162.862 188.345 163.037 188.416 163.208 188.499C163.379 188.579 163.531 188.681 163.665 188.806C163.799 188.929 163.905 189.08 163.985 189.259C164.068 189.439 164.109 189.657 164.109 189.913C164.109 190.192 164.061 190.454 163.964 190.699C163.87 190.941 163.73 191.153 163.545 191.335C163.363 191.515 163.139 191.657 162.874 191.763C162.61 191.865 162.306 191.916 161.964 191.916C161.768 191.916 161.574 191.897 161.383 191.857C161.193 191.82 161.009 191.766 160.832 191.694C160.659 191.623 160.495 191.538 160.341 191.438C160.187 191.338 160.051 191.227 159.931 191.105L160.268 190.554C160.297 190.514 160.334 190.481 160.379 190.455C160.425 190.427 160.473 190.413 160.525 190.413C160.596 190.413 160.673 190.443 160.755 190.502C160.838 190.559 160.936 190.623 161.05 190.695C161.164 190.766 161.297 190.831 161.448 190.891C161.601 190.948 161.785 190.977 161.999 190.977C162.326 190.977 162.58 190.9 162.759 190.746C162.938 190.589 163.028 190.366 163.028 190.075C163.028 189.913 162.987 189.78 162.904 189.678C162.825 189.575 162.718 189.49 162.584 189.422C162.45 189.35 162.298 189.291 162.127 189.242C161.956 189.194 161.782 189.141 161.606 189.084C161.429 189.027 161.255 188.959 161.084 188.879C160.913 188.799 160.761 188.695 160.627 188.567C160.493 188.439 160.385 188.279 160.303 188.089C160.223 187.895 160.183 187.657 160.183 187.375C160.183 187.15 160.227 186.931 160.315 186.717C160.407 186.504 160.538 186.314 160.708 186.149C160.879 185.984 161.09 185.851 161.341 185.752C161.591 185.652 161.879 185.602 162.204 185.602C162.568 185.602 162.904 185.659 163.212 185.773C163.519 185.887 163.782 186.047 163.998 186.252L163.712 186.794ZM169.354 190.391C169.416 190.391 169.472 190.416 169.52 190.464L169.973 190.955C169.723 191.266 169.414 191.504 169.046 191.669C168.682 191.834 168.243 191.916 167.73 191.916C167.272 191.916 166.859 191.838 166.491 191.682C166.127 191.525 165.815 191.307 165.556 191.028C165.297 190.749 165.097 190.416 164.958 190.028C164.821 189.641 164.753 189.218 164.753 188.759C164.753 188.295 164.827 187.871 164.975 187.486C165.123 187.099 165.331 186.766 165.599 186.487C165.869 186.207 166.191 185.991 166.564 185.837C166.937 185.681 167.35 185.602 167.803 185.602C168.253 185.602 168.652 185.676 168.999 185.824C169.35 185.973 169.647 186.166 169.892 186.405L169.508 186.939C169.485 186.974 169.455 187.004 169.418 187.029C169.384 187.055 169.335 187.068 169.273 187.068C169.23 187.068 169.186 187.056 169.14 187.033C169.095 187.008 169.045 186.978 168.991 186.944C168.937 186.907 168.874 186.867 168.803 186.824C168.731 186.781 168.649 186.743 168.555 186.709C168.461 186.672 168.351 186.642 168.226 186.619C168.103 186.593 167.961 186.581 167.799 186.581C167.522 186.581 167.269 186.63 167.038 186.73C166.81 186.827 166.614 186.969 166.449 187.157C166.284 187.342 166.155 187.57 166.064 187.841C165.973 188.109 165.928 188.415 165.928 188.759C165.928 189.107 165.976 189.416 166.073 189.686C166.172 189.957 166.306 190.185 166.474 190.37C166.642 190.555 166.84 190.698 167.068 190.797C167.296 190.894 167.541 190.942 167.803 190.942C167.96 190.942 168.101 190.934 168.226 190.917C168.354 190.9 168.471 190.873 168.576 190.836C168.684 190.799 168.786 190.752 168.88 190.695C168.976 190.635 169.072 190.562 169.166 190.477C169.194 190.451 169.224 190.431 169.256 190.417C169.287 190.4 169.32 190.391 169.354 190.391ZM176.518 188.759C176.518 189.212 176.443 189.632 176.292 190.02C176.144 190.404 175.933 190.737 175.66 191.019C175.386 191.301 175.057 191.522 174.673 191.682C174.288 191.838 173.861 191.916 173.391 191.916C172.924 191.916 172.498 191.838 172.114 191.682C171.729 191.522 171.399 191.301 171.123 191.019C170.849 190.737 170.637 190.404 170.486 190.02C170.335 189.632 170.26 189.212 170.26 188.759C170.26 188.307 170.335 187.888 170.486 187.503C170.637 187.116 170.849 186.781 171.123 186.499C171.399 186.217 171.729 185.998 172.114 185.841C172.498 185.682 172.924 185.602 173.391 185.602C173.704 185.602 173.999 185.639 174.275 185.713C174.552 185.785 174.805 185.887 175.036 186.021C175.267 186.152 175.473 186.313 175.655 186.504C175.84 186.692 175.997 186.902 176.125 187.136C176.253 187.37 176.35 187.623 176.416 187.896C176.484 188.17 176.518 188.457 176.518 188.759ZM175.343 188.759C175.343 188.42 175.298 188.117 175.207 187.849C175.116 187.579 174.986 187.35 174.818 187.162C174.65 186.974 174.445 186.83 174.203 186.73C173.964 186.63 173.693 186.581 173.391 186.581C173.089 186.581 172.817 186.63 172.575 186.73C172.336 186.83 172.131 186.974 171.96 187.162C171.792 187.35 171.662 187.579 171.571 187.849C171.48 188.117 171.434 188.42 171.434 188.759C171.434 189.098 171.48 189.403 171.571 189.674C171.662 189.941 171.792 190.169 171.96 190.357C172.131 190.542 172.336 190.685 172.575 190.784C172.817 190.884 173.089 190.934 173.391 190.934C173.693 190.934 173.964 190.884 174.203 190.784C174.445 190.685 174.65 190.542 174.818 190.357C174.986 190.169 175.116 189.941 175.207 189.674C175.298 189.403 175.343 189.098 175.343 188.759Z" fill="white"/>
<rect x="193.247" y="181" width="42.0095" height="46.9937" fill="#0FEDBE" fill-opacity="0.4"/>
<rect x="193.247" y="181" width="42.0095" height="46.9937" stroke="#050505" stroke-width="0.712025"/>
<path d="M201.025 190.391C201.087 190.391 201.143 190.416 201.191 190.464L201.644 190.955C201.394 191.266 201.085 191.504 200.717 191.669C200.353 191.834 199.914 191.916 199.401 191.916C198.943 191.916 198.53 191.838 198.162 191.682C197.798 191.525 197.486 191.307 197.227 191.028C196.968 190.749 196.768 190.416 196.629 190.028C196.492 189.641 196.424 189.218 196.424 188.759C196.424 188.295 196.498 187.871 196.646 187.486C196.794 187.099 197.002 186.766 197.27 186.487C197.54 186.207 197.862 185.991 198.235 185.837C198.608 185.681 199.021 185.602 199.474 185.602C199.924 185.602 200.323 185.676 200.67 185.824C201.021 185.973 201.318 186.166 201.563 186.405L201.179 186.939C201.156 186.974 201.126 187.004 201.089 187.029C201.055 187.055 201.006 187.068 200.944 187.068C200.901 187.068 200.857 187.056 200.811 187.033C200.766 187.008 200.716 186.978 200.662 186.944C200.608 186.907 200.545 186.867 200.474 186.824C200.402 186.781 200.32 186.743 200.226 186.709C200.132 186.672 200.022 186.642 199.897 186.619C199.774 186.593 199.632 186.581 199.47 186.581C199.193 186.581 198.94 186.63 198.709 186.73C198.481 186.827 198.285 186.969 198.12 187.157C197.955 187.342 197.826 187.57 197.735 187.841C197.644 188.109 197.599 188.415 197.599 188.759C197.599 189.107 197.647 189.416 197.744 189.686C197.843 189.957 197.977 190.185 198.145 190.37C198.313 190.555 198.511 190.698 198.739 190.797C198.967 190.894 199.212 190.942 199.474 190.942C199.631 190.942 199.772 190.934 199.897 190.917C200.025 190.9 200.142 190.873 200.247 190.836C200.355 190.799 200.457 190.752 200.551 190.695C200.647 190.635 200.743 190.562 200.837 190.477C200.865 190.451 200.895 190.431 200.927 190.417C200.958 190.4 200.991 190.391 201.025 190.391ZM204.298 188.61C204.515 188.61 204.703 188.583 204.862 188.529C205.025 188.475 205.157 188.401 205.26 188.307C205.365 188.21 205.443 188.096 205.495 187.965C205.546 187.834 205.571 187.69 205.571 187.533C205.571 187.22 205.468 186.979 205.26 186.811C205.055 186.643 204.74 186.559 204.315 186.559H203.581V188.61H204.298ZM207.255 191.848H206.217C206.02 191.848 205.878 191.771 205.789 191.617L204.491 189.639C204.442 189.565 204.388 189.513 204.328 189.481C204.271 189.45 204.186 189.434 204.072 189.434H203.581V191.848H202.431V185.671H204.315C204.734 185.671 205.093 185.715 205.392 185.803C205.694 185.888 205.94 186.01 206.131 186.166C206.325 186.323 206.467 186.511 206.558 186.73C206.65 186.947 206.695 187.186 206.695 187.448C206.695 187.656 206.664 187.852 206.601 188.037C206.541 188.223 206.453 188.391 206.336 188.541C206.222 188.692 206.08 188.825 205.909 188.939C205.741 189.053 205.549 189.142 205.332 189.208C205.406 189.251 205.475 189.302 205.537 189.362C205.6 189.419 205.657 189.487 205.708 189.567L207.255 191.848ZM214.621 185.671V191.848H213.608V187.858C213.608 187.698 213.617 187.526 213.634 187.341L211.767 190.848C211.678 191.016 211.543 191.101 211.361 191.101H211.199C211.016 191.101 210.881 191.016 210.793 190.848L208.904 187.328C208.913 187.422 208.92 187.515 208.926 187.606C208.931 187.697 208.934 187.781 208.934 187.858V191.848H207.922V185.671H208.789C208.84 185.671 208.885 185.672 208.922 185.675C208.959 185.678 208.991 185.685 209.02 185.696C209.051 185.708 209.078 185.726 209.101 185.752C209.127 185.777 209.151 185.812 209.174 185.854L211.023 189.285C211.072 189.376 211.116 189.47 211.156 189.567C211.199 189.664 211.24 189.763 211.28 189.866C211.32 189.76 211.361 189.659 211.404 189.563C211.446 189.463 211.492 189.367 211.54 189.276L213.365 185.854C213.387 185.812 213.412 185.777 213.437 185.752C213.463 185.726 213.49 185.708 213.518 185.696C213.55 185.685 213.584 185.678 213.621 185.675C213.658 185.672 213.702 185.671 213.753 185.671H214.621Z" fill="white"/>
<rect x="61.522" y="227.994" width="38.4494" height="45.5696" fill="#0FEDBE" fill-opacity="0.55"/>
<rect x="61.522" y="227.994" width="38.4494" height="45.5696" stroke="#050505" stroke-width="0.712025"/>
<path d="M68.3219 236.509L67.57 234.454C67.5329 234.363 67.4945 234.255 67.4546 234.13C67.4147 234.004 67.3749 233.869 67.335 233.724C67.298 233.869 67.2595 234.006 67.2196 234.134C67.1798 234.259 67.1413 234.369 67.1043 234.463L66.3567 236.509H68.3219ZM70.3511 238.842H69.4625C69.3628 238.842 69.2817 238.818 69.219 238.769C69.1564 238.718 69.1094 238.655 69.078 238.581L68.6166 237.321H66.0576L65.5962 238.581C65.5734 238.647 65.5293 238.707 65.4638 238.761C65.3983 238.815 65.3171 238.842 65.2203 238.842H64.3231L66.754 232.664H67.9245L70.3511 238.842ZM75.7914 232.664L73.2965 238.842H72.2584L69.7634 232.664H70.6862C70.7859 232.664 70.8671 232.688 70.9297 232.737C70.9924 232.785 71.0394 232.848 71.0707 232.925L72.5275 236.693C72.5759 236.815 72.6215 236.951 72.6642 237.099C72.7098 237.244 72.7525 237.396 72.7924 237.556C72.8266 237.396 72.8636 237.244 72.9035 237.099C72.9433 236.951 72.9875 236.815 73.0359 236.693L74.4842 232.925C74.507 232.859 74.5511 232.8 74.6166 232.745C74.685 232.691 74.7676 232.664 74.8644 232.664H75.7914ZM81.323 235.744V238.244C81.0097 238.474 80.6751 238.644 80.3191 238.752C79.9659 238.857 79.5871 238.91 79.1827 238.91C78.6786 238.91 78.2214 238.832 77.8113 238.675C77.404 238.519 77.0551 238.301 76.7646 238.022C76.477 237.742 76.2548 237.409 76.0982 237.022C75.9415 236.635 75.8632 236.212 75.8632 235.753C75.8632 235.289 75.9387 234.863 76.0896 234.476C76.2406 234.088 76.4542 233.755 76.7305 233.476C77.0096 233.197 77.3471 232.98 77.743 232.827C78.1388 232.673 78.5831 232.596 79.0759 232.596C79.3265 232.596 79.56 232.616 79.7765 232.656C79.9958 232.696 80.198 232.751 80.3831 232.822C80.5711 232.891 80.742 232.975 80.8958 233.074C81.0496 233.174 81.1906 233.284 81.3187 233.403L80.9898 233.925C80.9385 234.007 80.8716 234.058 80.789 234.078C80.7064 234.095 80.6167 234.074 80.5199 234.014C80.4259 233.96 80.3319 233.906 80.2379 233.852C80.1439 233.798 80.0385 233.751 79.9218 233.711C79.8078 233.671 79.6782 233.638 79.533 233.613C79.3906 233.587 79.2254 233.574 79.0374 233.574C78.7327 233.574 78.4564 233.625 78.2086 233.728C77.9637 233.831 77.7543 233.977 77.5806 234.168C77.4069 234.359 77.273 234.588 77.179 234.856C77.085 235.124 77.038 235.423 77.038 235.753C77.038 236.106 77.0879 236.422 77.1876 236.701C77.2901 236.978 77.4325 237.213 77.6148 237.406C77.7999 237.597 78.0221 237.744 78.2812 237.846C78.5404 237.946 78.8295 237.996 79.1485 237.996C79.3763 237.996 79.58 237.972 79.7594 237.923C79.9388 237.875 80.114 237.809 80.2849 237.727V236.607H79.5074C79.4333 236.607 79.3749 236.588 79.3322 236.548C79.2923 236.505 79.2724 236.454 79.2724 236.394V235.744H81.323ZM88.3215 235.753C88.3215 236.206 88.2461 236.626 88.0951 237.013C87.947 237.398 87.7363 237.731 87.4628 238.013C87.1894 238.295 86.8605 238.516 86.476 238.675C86.0915 238.832 85.6643 238.91 85.1943 238.91C84.7272 238.91 84.3014 238.832 83.9169 238.675C83.5325 238.516 83.2021 238.295 82.9258 238.013C82.6524 237.731 82.4402 237.398 82.2893 237.013C82.1383 236.626 82.0628 236.206 82.0628 235.753C82.0628 235.3 82.1383 234.882 82.2893 234.497C82.4402 234.11 82.6524 233.775 82.9258 233.493C83.2021 233.211 83.5325 232.992 83.9169 232.835C84.3014 232.676 84.7272 232.596 85.1943 232.596C85.5076 232.596 85.8024 232.633 86.0787 232.707C86.3549 232.778 86.6084 232.881 86.8391 233.015C87.0698 233.146 87.2763 233.307 87.4586 233.497C87.6437 233.685 87.8003 233.896 87.9285 234.13C88.0567 234.363 88.1535 234.617 88.219 234.89C88.2874 235.163 88.3215 235.451 88.3215 235.753ZM87.1467 235.753C87.1467 235.414 87.1011 235.111 87.01 234.843C86.9188 234.572 86.7893 234.343 86.6212 234.155C86.4532 233.967 86.2481 233.823 86.006 233.724C85.7668 233.624 85.4962 233.574 85.1943 233.574C84.8924 233.574 84.6204 233.624 84.3783 233.724C84.1391 233.823 83.934 233.967 83.7632 234.155C83.5951 234.343 83.4655 234.572 83.3744 234.843C83.2832 235.111 83.2377 235.414 83.2377 235.753C83.2377 236.092 83.2832 236.397 83.3744 236.667C83.4655 236.935 83.5951 237.163 83.7632 237.351C83.934 237.536 84.1391 237.678 84.3783 237.778C84.6204 237.878 84.8924 237.928 85.1943 237.928C85.4962 237.928 85.7668 237.878 86.006 237.778C86.2481 237.678 86.4532 237.536 86.6212 237.351C86.7893 237.163 86.9188 236.935 87.01 236.667C87.1011 236.397 87.1467 236.092 87.1467 235.753Z" fill="white"/>
<rect x="61.522" y="273.563" width="38.4494" height="42.7215" fill="#0FEDBE" fill-opacity="0.4"/>
<rect x="61.522" y="273.563" width="38.4494" height="42.7215" stroke="#050505" stroke-width="0.712025"/>
<path d="M68.3219 282.079L67.57 280.024C67.5329 279.933 67.4945 279.825 67.4546 279.699C67.4147 279.574 67.3749 279.439 67.335 279.293C67.298 279.439 67.2595 279.575 67.2196 279.703C67.1798 279.829 67.1413 279.938 67.1043 280.032L66.3567 282.079H68.3219ZM70.3511 284.411H69.4625C69.3628 284.411 69.2817 284.387 69.219 284.339C69.1564 284.287 69.1094 284.225 69.078 284.151L68.6166 282.89H66.0576L65.5962 284.151C65.5734 284.216 65.5293 284.276 65.4638 284.33C65.3983 284.384 65.3171 284.411 65.2203 284.411H64.3231L66.754 278.234H67.9245L70.3511 284.411ZM75.0492 282.955C75.1119 282.955 75.1674 282.979 75.2158 283.027L75.6687 283.518C75.4181 283.829 75.109 284.067 74.7416 284.232C74.3771 284.397 73.9385 284.48 73.4258 284.48C72.9673 284.48 72.5543 284.401 72.1869 284.245C71.8223 284.088 71.5105 283.87 71.2513 283.591C70.9921 283.312 70.7927 282.979 70.6532 282.591C70.5165 282.204 70.4481 281.781 70.4481 281.323C70.4481 280.858 70.5222 280.434 70.6703 280.05C70.8184 279.662 71.0263 279.329 71.294 279.05C71.5646 278.771 71.8864 278.554 72.2595 278.4C72.6326 278.244 73.0456 278.165 73.4984 278.165C73.9484 278.165 74.3472 278.24 74.6946 278.388C75.045 278.536 75.3426 278.729 75.5875 278.969L75.203 279.503C75.1802 279.537 75.1503 279.567 75.1133 279.592C75.0791 279.618 75.0307 279.631 74.9681 279.631C74.9253 279.631 74.8812 279.619 74.8356 279.597C74.7901 279.571 74.7402 279.541 74.6861 279.507C74.632 279.47 74.5693 279.43 74.4981 279.387C74.4269 279.345 74.3443 279.306 74.2503 279.272C74.1563 279.235 74.0467 279.205 73.9214 279.182C73.7989 279.157 73.6565 279.144 73.4942 279.144C73.2179 279.144 72.9644 279.194 72.7337 279.293C72.5059 279.39 72.3094 279.533 72.1442 279.721C71.979 279.906 71.8508 280.134 71.7597 280.404C71.6685 280.672 71.623 280.978 71.623 281.323C71.623 281.67 71.6714 281.979 71.7682 282.25C71.8679 282.52 72.0018 282.748 72.1698 282.933C72.3378 283.118 72.5358 283.261 72.7636 283.36C72.9915 283.457 73.2364 283.506 73.4984 283.506C73.6551 283.506 73.7961 283.497 73.9214 283.48C74.0495 283.463 74.1663 283.436 74.2717 283.399C74.3799 283.362 74.481 283.315 74.575 283.258C74.6719 283.198 74.7673 283.125 74.8613 283.04C74.8897 283.014 74.9196 282.994 74.951 282.98C74.9823 282.963 75.0151 282.955 75.0492 282.955ZM81.6637 278.234V284.411H81.0741C80.983 284.411 80.9061 284.397 80.8434 284.369C80.7836 284.337 80.7252 284.286 80.6682 284.215L77.4428 280.097C77.4599 280.284 77.4684 280.458 77.4684 280.618V284.411H76.4559V278.234H77.0583C77.1067 278.234 77.148 278.237 77.1822 278.242C77.2192 278.245 77.2505 278.254 77.2762 278.268C77.3046 278.279 77.3317 278.298 77.3573 278.324C77.383 278.346 77.4114 278.378 77.4428 278.418L80.6811 282.553C80.6725 282.453 80.6654 282.355 80.6597 282.258C80.654 282.161 80.6512 282.072 80.6512 281.989V278.234H81.6637Z" fill="white"/>
<rect x="61.522" y="316.285" width="38.4494" height="41.2975" fill="#0FEDBE" fill-opacity="0.55"/>
<rect x="61.522" y="316.285" width="38.4494" height="41.2975" stroke="#050505" stroke-width="0.712025"/>
<path d="M69.3728 321.899H67.5101V327.133H66.3609V321.899H64.4983V320.955H69.3728V321.899ZM75.201 327.133H74.056C73.9763 327.133 73.9122 327.113 73.8638 327.073C73.8182 327.033 73.7812 326.988 73.7527 326.936L72.3215 324.565C72.2987 324.636 72.2717 324.698 72.2404 324.749L70.869 326.936C70.8348 326.985 70.7949 327.03 70.7494 327.073C70.7067 327.113 70.6497 327.133 70.5785 327.133H69.5062L71.5568 323.954L69.5873 320.955H70.7323C70.812 320.955 70.869 320.967 70.9032 320.989C70.9402 321.009 70.9744 321.044 71.0057 321.092L72.4112 323.356C72.4397 323.285 72.4739 323.214 72.5138 323.143L73.804 321.113C73.8353 321.059 73.8695 321.019 73.9065 320.994C73.9435 320.968 73.9905 320.955 74.0475 320.955H75.1454L73.1589 323.907L75.201 327.133ZM81.1213 320.955V327.133H80.5317C80.4406 327.133 80.3637 327.119 80.301 327.09C80.2412 327.059 80.1828 327.007 80.1259 326.936L76.9004 322.818C76.9175 323.006 76.926 323.18 76.926 323.339V327.133H75.9135V320.955H76.5159C76.5643 320.955 76.6056 320.958 76.6398 320.964C76.6768 320.967 76.7082 320.975 76.7338 320.989C76.7623 321.001 76.7893 321.019 76.815 321.045C76.8406 321.068 76.8691 321.099 76.9004 321.139L80.1387 325.274C80.1302 325.175 80.123 325.076 80.1173 324.98C80.1116 324.883 80.1088 324.793 80.1088 324.711V320.955H81.1213Z" fill="white"/>
<rect x="61.522" y="357.582" width="38.4494" height="32.2785" fill="#0FEDBE" fill-opacity="0.55"/>
<rect x="61.522" y="357.582" width="38.4494" height="32.2785" stroke="#050505" stroke-width="0.712025"/>
<path d="M65.8696 365.342C65.8696 365.681 65.9152 365.985 66.0064 366.256C66.0975 366.524 66.2271 366.751 66.3951 366.939C66.566 367.125 66.7711 367.267 67.0103 367.367C67.2524 367.466 67.5244 367.516 67.8263 367.516C68.1282 367.516 68.3988 367.466 68.638 367.367C68.8801 367.267 69.0851 367.125 69.2532 366.939C69.4212 366.751 69.5508 366.524 69.642 366.256C69.7331 365.985 69.7787 365.681 69.7787 365.342C69.7787 365.003 69.7331 364.699 69.642 364.432C69.5508 364.161 69.4212 363.932 69.2532 363.744C69.0851 363.556 68.8801 363.412 68.638 363.312C68.3988 363.213 68.1282 363.163 67.8263 363.163C67.5244 363.163 67.2524 363.213 67.0103 363.312C66.7711 363.412 66.566 363.556 66.3951 363.744C66.2271 363.932 66.0975 364.161 66.0064 364.432C65.9152 364.699 65.8696 365.003 65.8696 365.342ZM71.2739 369.639H70.3255C70.1888 369.639 70.0649 369.621 69.9538 369.584C69.8456 369.547 69.7459 369.479 69.6548 369.379L68.7491 368.379C68.6038 368.419 68.4543 368.449 68.3005 368.469C68.1495 368.489 67.9915 368.499 67.8263 368.499C67.3592 368.499 66.9334 368.42 66.5489 368.264C66.1644 368.104 65.834 367.884 65.5578 367.602C65.2844 367.32 65.0722 366.986 64.9212 366.602C64.7703 366.215 64.6948 365.795 64.6948 365.342C64.6948 364.889 64.7703 364.47 64.9212 364.086C65.0722 363.698 65.2844 363.364 65.5578 363.082C65.834 362.8 66.1644 362.58 66.5489 362.424C66.9334 362.264 67.3592 362.185 67.8263 362.185C68.1396 362.185 68.4344 362.222 68.7106 362.296C68.9869 362.367 69.2404 362.469 69.4711 362.603C69.7018 362.734 69.9083 362.895 70.0905 363.086C70.2757 363.274 70.4323 363.485 70.5605 363.718C70.6886 363.952 70.7855 364.205 70.851 364.479C70.9193 364.752 70.9535 365.04 70.9535 365.342C70.9535 365.618 70.925 365.883 70.8681 366.136C70.8111 366.387 70.7285 366.622 70.6203 366.841C70.5149 367.06 70.3853 367.263 70.2315 367.448C70.0777 367.63 69.9026 367.791 69.706 367.931L71.2739 369.639ZM76.2007 366.974C76.2634 366.974 76.3189 366.998 76.3673 367.046L76.8202 367.538C76.5695 367.848 76.2605 368.086 75.8931 368.251C75.5286 368.416 75.0899 368.499 74.5773 368.499C74.1187 368.499 73.7058 368.42 73.3384 368.264C72.9738 368.107 72.6619 367.889 72.4028 367.61C72.1436 367.331 71.9442 366.998 71.8047 366.61C71.668 366.223 71.5996 365.8 71.5996 365.342C71.5996 364.877 71.6737 364.453 71.8218 364.069C71.9699 363.681 72.1778 363.348 72.4455 363.069C72.7161 362.79 73.0379 362.573 73.411 362.42C73.7841 362.263 74.1971 362.185 74.6499 362.185C75.0999 362.185 75.4987 362.259 75.8461 362.407C76.1964 362.555 76.4941 362.748 76.739 362.988L76.3545 363.522C76.3317 363.556 76.3018 363.586 76.2648 363.611C76.2306 363.637 76.1822 363.65 76.1195 363.65C76.0768 363.65 76.0327 363.638 75.9871 363.616C75.9415 363.59 75.8917 363.56 75.8376 363.526C75.7835 363.489 75.7208 363.449 75.6496 363.406C75.5784 363.364 75.4958 363.325 75.4018 363.291C75.3078 363.254 75.1982 363.224 75.0729 363.201C74.9504 363.176 74.808 363.163 74.6456 363.163C74.3694 363.163 74.1159 363.213 73.8852 363.312C73.6574 363.409 73.4608 363.552 73.2956 363.74C73.1305 363.925 73.0023 364.153 72.9112 364.423C72.82 364.691 72.7744 364.997 72.7744 365.342C72.7744 365.689 72.8229 365.998 72.9197 366.269C73.0194 366.539 73.1532 366.767 73.3213 366.952C73.4893 367.137 73.6873 367.28 73.9151 367.379C74.143 367.476 74.3879 367.525 74.6499 367.525C74.8066 367.525 74.9475 367.516 75.0729 367.499C75.201 367.482 75.3178 367.455 75.4232 367.418C75.5314 367.381 75.6325 367.334 75.7265 367.277C75.8233 367.217 75.9187 367.145 76.0127 367.059C76.0412 367.033 76.0711 367.013 76.1024 366.999C76.1338 366.982 76.1665 366.974 76.2007 366.974ZM83.3652 365.342C83.3652 365.795 83.2897 366.215 83.1387 366.602C82.9906 366.986 82.7799 367.32 82.5065 367.602C82.2331 367.884 81.9041 368.104 81.5196 368.264C81.1351 368.42 80.7079 368.499 80.238 368.499C79.7709 368.499 79.3451 368.42 78.9606 368.264C78.5761 368.104 78.2457 367.884 77.9694 367.602C77.696 367.32 77.4838 366.986 77.3329 366.602C77.1819 366.215 77.1065 365.795 77.1065 365.342C77.1065 364.889 77.1819 364.47 77.3329 364.086C77.4838 363.698 77.696 363.364 77.9694 363.082C78.2457 362.8 78.5761 362.58 78.9606 362.424C79.3451 362.264 79.7709 362.185 80.238 362.185C80.5512 362.185 80.846 362.222 81.1223 362.296C81.3986 362.367 81.652 362.469 81.8827 362.603C82.1134 362.734 82.3199 362.895 82.5022 363.086C82.6873 363.274 82.844 363.485 82.9721 363.718C83.1003 363.952 83.1971 364.205 83.2626 364.479C83.331 364.752 83.3652 365.04 83.3652 365.342ZM82.1903 365.342C82.1903 365.003 82.1448 364.699 82.0536 364.432C81.9625 364.161 81.8329 363.932 81.6649 363.744C81.4968 363.556 81.2918 363.412 81.0497 363.312C80.8104 363.213 80.5399 363.163 80.238 363.163C79.9361 363.163 79.6641 363.213 79.422 363.312C79.1827 363.412 78.9777 363.556 78.8068 363.744C78.6387 363.932 78.5092 364.161 78.418 364.432C78.3269 364.699 78.2813 365.003 78.2813 365.342C78.2813 365.681 78.3269 365.985 78.418 366.256C78.5092 366.524 78.6387 366.751 78.8068 366.939C78.9777 367.125 79.1827 367.267 79.422 367.367C79.6641 367.466 79.9361 367.516 80.238 367.516C80.5399 367.516 80.8104 367.466 81.0497 367.367C81.2918 367.267 81.4968 367.125 81.6649 366.939C81.8329 366.751 81.9625 366.524 82.0536 366.256C82.1448 365.985 82.1903 365.681 82.1903 365.342ZM91.0731 362.253V368.43H90.0606V364.44C90.0606 364.281 90.0692 364.108 90.0863 363.923L88.2193 367.431C88.131 367.599 87.9958 367.683 87.8135 367.683H87.6511C87.4689 367.683 87.3336 367.599 87.2453 367.431L85.357 363.91C85.3655 364.004 85.3727 364.097 85.3784 364.188C85.3841 364.279 85.3869 364.363 85.3869 364.44V368.43H84.3744V362.253H85.2416C85.2929 362.253 85.3371 362.254 85.3741 362.257C85.4111 362.26 85.4439 362.267 85.4723 362.279C85.5037 362.29 85.5307 362.308 85.5535 362.334C85.5791 362.36 85.6034 362.394 85.6261 362.437L87.476 365.867C87.5244 365.958 87.5685 366.052 87.6084 366.149C87.6511 366.246 87.6924 366.346 87.7323 366.448C87.7722 366.343 87.8135 366.242 87.8562 366.145C87.8989 366.045 87.9445 365.95 87.9929 365.859L89.8171 362.437C89.8399 362.394 89.8641 362.36 89.8897 362.334C89.9154 362.308 89.9424 362.29 89.9709 362.279C90.0022 362.267 90.0364 362.26 90.0735 362.257C90.1105 362.254 90.1546 362.253 90.2059 362.253H91.0731Z" fill="white"/>
<rect x="99.9712" y="227.994" width="38.2714" height="35.6013" fill="#0FEDBE" fill-opacity="0.55"/>
<rect x="99.9712" y="227.994" width="38.2714" height="35.6013" stroke="#050505" stroke-width="0.712025"/>
<path d="M109.398 235.753C109.398 236.206 109.323 236.626 109.172 237.013C109.024 237.398 108.813 237.731 108.54 238.013C108.266 238.295 107.937 238.516 107.553 238.675C107.168 238.832 106.741 238.91 106.271 238.91C105.804 238.91 105.378 238.832 104.994 238.675C104.609 238.516 104.279 238.295 104.003 238.013C103.729 237.731 103.517 237.398 103.366 237.013C103.215 236.626 103.14 236.206 103.14 235.753C103.14 235.3 103.215 234.882 103.366 234.497C103.517 234.11 103.729 233.775 104.003 233.493C104.279 233.211 104.609 232.992 104.994 232.835C105.378 232.676 105.804 232.596 106.271 232.596C106.585 232.596 106.879 232.633 107.156 232.707C107.432 232.778 107.685 232.881 107.916 233.015C108.147 233.146 108.353 233.307 108.535 233.497C108.721 233.685 108.877 233.896 109.005 234.13C109.134 234.363 109.23 234.617 109.296 234.89C109.364 235.163 109.398 235.451 109.398 235.753ZM108.224 235.753C108.224 235.414 108.178 235.111 108.087 234.843C107.996 234.572 107.866 234.343 107.698 234.155C107.53 233.967 107.325 233.823 107.083 233.724C106.844 233.624 106.573 233.574 106.271 233.574C105.969 233.574 105.697 233.624 105.455 233.724C105.216 233.823 105.011 233.967 104.84 234.155C104.672 234.343 104.542 234.572 104.451 234.843C104.36 235.111 104.315 235.414 104.315 235.753C104.315 236.092 104.36 236.397 104.451 236.667C104.542 236.935 104.672 237.163 104.84 237.351C105.011 237.536 105.216 237.678 105.455 237.778C105.697 237.878 105.969 237.928 106.271 237.928C106.573 237.928 106.844 237.878 107.083 237.778C107.325 237.678 107.53 237.536 107.698 237.351C107.866 237.163 107.996 236.935 108.087 236.667C108.178 236.397 108.224 236.092 108.224 235.753ZM112.275 235.604C112.491 235.604 112.679 235.576 112.839 235.522C113.001 235.468 113.133 235.394 113.236 235.3C113.341 235.203 113.42 235.089 113.471 234.958C113.522 234.827 113.548 234.684 113.548 234.527C113.548 234.214 113.444 233.973 113.236 233.805C113.031 233.637 112.716 233.553 112.292 233.553H111.557V235.604H112.275ZM115.231 238.842H114.193C113.996 238.842 113.854 238.765 113.766 238.611L112.467 236.633C112.418 236.559 112.364 236.506 112.305 236.475C112.248 236.444 112.162 236.428 112.048 236.428H111.557V238.842H110.408V232.664H112.292C112.71 232.664 113.069 232.708 113.368 232.797C113.67 232.882 113.917 233.003 114.107 233.16C114.301 233.316 114.443 233.504 114.535 233.724C114.626 233.94 114.671 234.179 114.671 234.441C114.671 234.649 114.64 234.846 114.577 235.031C114.517 235.216 114.429 235.384 114.312 235.535C114.199 235.686 114.056 235.819 113.885 235.932C113.717 236.046 113.525 236.136 113.308 236.202C113.383 236.244 113.451 236.296 113.514 236.355C113.576 236.412 113.633 236.481 113.684 236.56L115.231 238.842ZM120.057 237.385C120.12 237.385 120.175 237.409 120.223 237.458L120.676 237.949C120.426 238.259 120.117 238.497 119.749 238.662C119.385 238.828 118.946 238.91 118.433 238.91C117.975 238.91 117.562 238.832 117.195 238.675C116.83 238.519 116.518 238.301 116.259 238.022C116 237.742 115.8 237.409 115.661 237.022C115.524 236.635 115.456 236.212 115.456 235.753C115.456 235.289 115.53 234.864 115.678 234.48C115.826 234.093 116.034 233.759 116.302 233.48C116.572 233.201 116.894 232.985 117.267 232.831C117.64 232.674 118.053 232.596 118.506 232.596C118.956 232.596 119.355 232.67 119.702 232.818C120.053 232.966 120.35 233.16 120.595 233.399L120.211 233.933C120.188 233.967 120.158 233.997 120.121 234.023C120.087 234.048 120.038 234.061 119.976 234.061C119.933 234.061 119.889 234.05 119.843 234.027C119.798 234.001 119.748 233.972 119.694 233.937C119.64 233.9 119.577 233.86 119.506 233.818C119.435 233.775 119.352 233.737 119.258 233.702C119.164 233.665 119.054 233.635 118.929 233.613C118.807 233.587 118.664 233.574 118.502 233.574C118.226 233.574 117.972 233.624 117.741 233.724C117.514 233.821 117.317 233.963 117.152 234.151C116.987 234.336 116.858 234.564 116.767 234.835C116.676 235.102 116.631 235.408 116.631 235.753C116.631 236.1 116.679 236.41 116.776 236.68C116.876 236.951 117.009 237.179 117.177 237.364C117.345 237.549 117.543 237.691 117.771 237.791C117.999 237.888 118.244 237.936 118.506 237.936C118.663 237.936 118.804 237.928 118.929 237.91C119.057 237.893 119.174 237.866 119.279 237.829C119.388 237.792 119.489 237.745 119.583 237.688C119.679 237.629 119.775 237.556 119.869 237.47C119.897 237.445 119.927 237.425 119.959 237.411C119.99 237.394 120.023 237.385 120.057 237.385ZM125.082 237.893V238.842H121.464V232.664H122.613V237.893H125.082Z" fill="white"/>
<rect x="138.243" y="227.994" width="32.5752" height="35.6013" fill="#0FEDBE" fill-opacity="0.4"/>
<rect x="138.243" y="227.994" width="32.5752" height="35.6013" stroke="#050505" stroke-width="0.712025"/>
<rect x="170.818" y="227.994" width="32.5752" height="35.6013" fill="#0FEDBE" fill-opacity="0.4"/>
<rect x="170.818" y="227.994" width="32.5752" height="35.6013" stroke="#050505" stroke-width="0.712025"/>
<path d="M175.507 238.842H174.354V232.664H175.507V238.842ZM179.202 237.945C179.415 237.945 179.595 237.919 179.74 237.868C179.885 237.816 180.001 237.748 180.086 237.663C180.174 237.577 180.237 237.478 180.274 237.364C180.314 237.25 180.334 237.129 180.334 237C180.334 236.867 180.312 236.747 180.27 236.642C180.227 236.533 180.16 236.442 180.069 236.368C179.978 236.291 179.86 236.233 179.714 236.193C179.572 236.153 179.4 236.133 179.197 236.133H178.04V237.945H179.202ZM178.04 233.553V235.339H178.954C179.347 235.339 179.643 235.267 179.842 235.125C180.045 234.983 180.146 234.756 180.146 234.446C180.146 234.124 180.055 233.895 179.872 233.758C179.69 233.621 179.405 233.553 179.018 233.553H178.04ZM179.018 232.664C179.422 232.664 179.768 232.703 180.056 232.78C180.344 232.857 180.579 232.966 180.761 233.109C180.946 233.251 181.081 233.423 181.167 233.625C181.252 233.828 181.295 234.056 181.295 234.309C181.295 234.454 181.274 234.594 181.231 234.728C181.188 234.859 181.121 234.983 181.03 235.099C180.942 235.213 180.828 235.317 180.688 235.411C180.552 235.505 180.388 235.585 180.197 235.65C181.046 235.841 181.47 236.3 181.47 237.026C181.47 237.288 181.42 237.53 181.321 237.752C181.221 237.975 181.076 238.167 180.885 238.329C180.694 238.489 180.459 238.614 180.18 238.705C179.901 238.796 179.582 238.842 179.223 238.842H176.89V232.664H179.018ZM189.213 232.664V238.842H188.201V234.852C188.201 234.692 188.209 234.52 188.226 234.335L186.359 237.842C186.271 238.01 186.136 238.094 185.953 238.094H185.791C185.609 238.094 185.473 238.01 185.385 237.842L183.497 234.322C183.505 234.416 183.513 234.508 183.518 234.6C183.524 234.691 183.527 234.775 183.527 234.852V238.842H182.514V232.664H183.382C183.433 232.664 183.477 232.666 183.514 232.669C183.551 232.671 183.584 232.679 183.612 232.69C183.644 232.701 183.671 232.72 183.693 232.745C183.719 232.771 183.743 232.805 183.766 232.848L185.616 236.279C185.664 236.37 185.708 236.464 185.748 236.56C185.791 236.657 185.832 236.757 185.872 236.86C185.912 236.754 185.953 236.653 185.996 236.556C186.039 236.457 186.084 236.361 186.133 236.27L187.957 232.848C187.98 232.805 188.004 232.771 188.03 232.745C188.055 232.72 188.082 232.701 188.111 232.69C188.142 232.679 188.176 232.671 188.213 232.669C188.25 232.666 188.295 232.664 188.346 232.664H189.213Z" fill="white"/>
<rect x="203.393" y="227.994" width="31.8631" height="35.6013" fill="#0FEDBE" fill-opacity="0.55"/>
<rect x="203.393" y="227.994" width="31.8631" height="35.6013" stroke="#050505" stroke-width="0.712025"/>
<rect x="99.9712" y="263.595" width="30.6171" height="28.7658" fill="#0FEDBE" fill-opacity="0.8"/>
<rect x="99.9712" y="263.595" width="30.6171" height="28.7658" stroke="#050505" stroke-width="0.712025"/>
<path d="M106.112 271.499L105.486 269.787C105.455 269.711 105.423 269.621 105.39 269.516C105.357 269.412 105.323 269.299 105.29 269.178C105.259 269.299 105.227 269.413 105.194 269.52C105.161 269.624 105.129 269.716 105.098 269.794L104.475 271.499H106.112ZM107.804 273.443H107.063C106.98 273.443 106.912 273.423 106.86 273.383C106.808 273.34 106.769 273.288 106.743 273.226L106.358 272.176H104.226L103.841 273.226C103.822 273.281 103.785 273.33 103.731 273.375C103.676 273.421 103.608 273.443 103.528 273.443H102.78L104.806 268.295H105.781L107.804 273.443ZM113.919 268.295V273.443H113.075V270.118C113.075 269.985 113.082 269.841 113.096 269.687L111.54 272.61C111.467 272.75 111.354 272.82 111.202 272.82H111.067C110.915 272.82 110.802 272.75 110.729 272.61L109.155 269.677C109.162 269.755 109.168 269.832 109.173 269.908C109.178 269.984 109.18 270.054 109.18 270.118V273.443H108.336V268.295H109.059C109.102 268.295 109.139 268.296 109.169 268.299C109.2 268.301 109.228 268.307 109.251 268.317C109.277 268.326 109.3 268.341 109.319 268.363C109.34 268.384 109.36 268.413 109.379 268.448L110.921 271.307C110.961 271.383 110.998 271.461 111.031 271.542C111.067 271.623 111.101 271.706 111.135 271.791C111.168 271.703 111.202 271.619 111.238 271.538C111.273 271.455 111.311 271.376 111.352 271.3L112.872 268.448C112.891 268.413 112.911 268.384 112.932 268.363C112.954 268.341 112.976 268.326 113 268.317C113.026 268.307 113.055 268.301 113.086 268.299C113.116 268.296 113.153 268.295 113.196 268.295H113.919ZM119.638 270.869C119.638 271.247 119.576 271.593 119.45 271.909C119.324 272.224 119.147 272.496 118.919 272.724C118.691 272.952 118.417 273.129 118.097 273.254C117.776 273.38 117.42 273.443 117.029 273.443H115.067V268.295H117.029C117.42 268.295 117.776 268.359 118.097 268.487C118.417 268.613 118.691 268.79 118.919 269.018C119.147 269.243 119.324 269.514 119.45 269.83C119.576 270.145 119.638 270.492 119.638 270.869ZM118.656 270.869C118.656 270.587 118.618 270.334 118.542 270.111C118.468 269.885 118.36 269.695 118.218 269.541C118.078 269.385 117.907 269.265 117.705 269.182C117.506 269.099 117.28 269.057 117.029 269.057H116.028V272.681H117.029C117.28 272.681 117.506 272.64 117.705 272.557C117.907 272.474 118.078 272.355 118.218 272.201C118.36 272.044 118.468 271.854 118.542 271.631C118.618 271.406 118.656 271.152 118.656 270.869Z" fill="white"/>
<rect x="99.9712" y="292.361" width="30.6171" height="27.3418" fill="#F63C6B" fill-opacity="0.9"/>
<rect x="99.9712" y="292.361" width="30.6171" height="27.3418" stroke="#050505" stroke-width="0.712025"/>
<path d="M104.354 297.823V299.347H106.283V300.112H104.354V302.209H103.393V297.061H106.639V297.823H104.354ZM108.387 302.209H107.425V297.061H108.387V302.209ZM112.281 297.997C112.252 298.047 112.221 298.084 112.188 298.108C112.157 298.129 112.118 298.14 112.071 298.14C112.021 298.14 111.966 298.122 111.907 298.086C111.85 298.048 111.781 298.007 111.7 297.962C111.62 297.917 111.525 297.876 111.415 297.841C111.309 297.803 111.182 297.784 111.035 297.784C110.902 297.784 110.785 297.8 110.686 297.834C110.586 297.864 110.502 297.908 110.433 297.965C110.366 298.022 110.317 298.091 110.283 298.172C110.25 298.25 110.234 298.337 110.234 298.432C110.234 298.553 110.267 298.654 110.333 298.734C110.402 298.815 110.492 298.884 110.604 298.941C110.715 298.998 110.842 299.049 110.985 299.094C111.127 299.139 111.273 299.188 111.423 299.24C111.572 299.29 111.718 299.349 111.861 299.418C112.003 299.484 112.13 299.57 112.241 299.674C112.353 299.776 112.442 299.902 112.508 300.052C112.577 300.201 112.612 300.383 112.612 300.596C112.612 300.829 112.571 301.047 112.491 301.251C112.412 301.453 112.296 301.63 112.142 301.782C111.99 301.931 111.804 302.05 111.583 302.138C111.362 302.223 111.109 302.266 110.825 302.266C110.661 302.266 110.499 302.249 110.34 302.216C110.181 302.185 110.028 302.14 109.881 302.081C109.736 302.021 109.6 301.95 109.472 301.867C109.343 301.784 109.23 301.692 109.13 301.59L109.411 301.13C109.435 301.097 109.466 301.07 109.504 301.048C109.542 301.025 109.582 301.013 109.625 301.013C109.684 301.013 109.748 301.038 109.817 301.088C109.886 301.135 109.968 301.188 110.063 301.248C110.158 301.307 110.268 301.362 110.394 301.412C110.522 301.459 110.675 301.483 110.853 301.483C111.126 301.483 111.337 301.419 111.487 301.29C111.636 301.16 111.711 300.974 111.711 300.732C111.711 300.596 111.677 300.486 111.608 300.4C111.541 300.315 111.452 300.244 111.341 300.187C111.229 300.127 111.102 300.078 110.96 300.037C110.817 299.997 110.673 299.953 110.525 299.906C110.378 299.858 110.234 299.801 110.091 299.735C109.949 299.668 109.822 299.582 109.71 299.475C109.599 299.368 109.508 299.235 109.44 299.076C109.373 298.915 109.34 298.716 109.34 298.482C109.34 298.294 109.377 298.111 109.45 297.933C109.526 297.755 109.635 297.597 109.778 297.46C109.92 297.322 110.096 297.212 110.305 297.129C110.514 297.046 110.753 297.004 111.024 297.004C111.328 297.004 111.608 297.052 111.864 297.146C112.12 297.241 112.339 297.374 112.519 297.545L112.281 297.997Z" fill="white"/>
<rect x="99.9712" y="319.703" width="30.6171" height="25.2057" fill="#F63C6B" fill-opacity="0.5"/>
<rect x="99.9712" y="319.703" width="30.6171" height="25.2057" stroke="#050505" stroke-width="0.712025"/>
<rect x="99.9712" y="344.908" width="30.6171" height="24.8497" fill="#0FEDBE" fill-opacity="0.55"/>
<rect x="99.9712" y="344.908" width="30.6171" height="24.8497" stroke="#050505" stroke-width="0.712025"/>
<path d="M108.975 349.608V354.756H108.131V351.431C108.131 351.298 108.138 351.155 108.152 351L106.597 353.923C106.523 354.063 106.41 354.133 106.258 354.133H106.123C105.971 354.133 105.858 354.063 105.785 353.923L104.211 350.99C104.218 351.068 104.224 351.145 104.229 351.221C104.234 351.297 104.236 351.367 104.236 351.431V354.756H103.393V349.608H104.115C104.158 349.608 104.195 349.61 104.226 349.612C104.256 349.614 104.284 349.62 104.307 349.63C104.334 349.639 104.356 349.655 104.375 349.676C104.396 349.697 104.417 349.726 104.436 349.761L105.977 352.62C106.018 352.696 106.054 352.775 106.088 352.855C106.123 352.936 106.158 353.019 106.191 353.104C106.224 353.017 106.258 352.932 106.294 352.852C106.33 352.769 106.368 352.689 106.408 352.613L107.928 349.761C107.947 349.726 107.967 349.697 107.989 349.676C108.01 349.655 108.033 349.639 108.056 349.63C108.082 349.62 108.111 349.614 108.142 349.612C108.173 349.61 108.209 349.608 108.252 349.608H108.975ZM112.195 353.984C112.381 353.984 112.545 353.953 112.69 353.891C112.837 353.83 112.961 353.743 113.06 353.631C113.16 353.52 113.236 353.385 113.288 353.225C113.343 353.066 113.37 352.888 113.37 352.691V349.608H114.328V352.691C114.328 352.998 114.278 353.281 114.178 353.542C114.081 353.801 113.94 354.025 113.755 354.215C113.572 354.403 113.349 354.55 113.085 354.657C112.822 354.761 112.525 354.813 112.195 354.813C111.863 354.813 111.565 354.761 111.302 354.657C111.038 354.55 110.814 354.403 110.629 354.215C110.446 354.025 110.305 353.801 110.205 353.542C110.108 353.281 110.059 352.998 110.059 352.691V349.608H111.017V352.688C111.017 352.885 111.043 353.063 111.095 353.222C111.15 353.381 111.227 353.517 111.327 353.631C111.429 353.743 111.552 353.83 111.697 353.891C111.844 353.953 112.01 353.984 112.195 353.984Z" fill="white"/>
<rect x="99.9712" y="369.758" width="30.6171" height="20.1029" fill="#F63C6B" fill-opacity="0.9"/>
<rect x="99.9712" y="369.758" width="30.6171" height="20.1029" stroke="#050505" stroke-width="0.712025"/>
<path d="M107.732 374.458V379.606H107.241C107.165 379.606 107.101 379.594 107.049 379.571C106.999 379.544 106.95 379.502 106.903 379.442L104.215 376.01C104.229 376.167 104.236 376.312 104.236 376.445V379.606H103.393V374.458H103.894C103.935 374.458 103.969 374.461 103.998 374.465C104.029 374.468 104.055 374.475 104.076 374.487C104.1 374.496 104.122 374.512 104.144 374.533C104.165 374.552 104.189 374.578 104.215 374.611L106.913 378.058C106.906 377.974 106.9 377.893 106.896 377.812C106.891 377.731 106.889 377.656 106.889 377.588V374.458H107.732ZM113.788 377.032C113.788 377.41 113.725 377.76 113.599 378.082C113.476 378.403 113.3 378.681 113.073 378.916C112.845 379.151 112.571 379.334 112.25 379.467C111.93 379.598 111.574 379.663 111.182 379.663C110.793 379.663 110.438 379.598 110.118 379.467C109.797 379.334 109.522 379.151 109.292 378.916C109.064 378.681 108.887 378.403 108.761 378.082C108.635 377.76 108.573 377.41 108.573 377.032C108.573 376.655 108.635 376.306 108.761 375.986C108.887 375.663 109.064 375.384 109.292 375.149C109.522 374.914 109.797 374.731 110.118 374.601C110.438 374.468 110.793 374.401 111.182 374.401C111.443 374.401 111.689 374.432 111.919 374.494C112.149 374.553 112.361 374.639 112.553 374.75C112.745 374.859 112.917 374.993 113.069 375.152C113.223 375.309 113.354 375.485 113.461 375.679C113.567 375.874 113.648 376.085 113.703 376.313C113.76 376.541 113.788 376.781 113.788 377.032ZM112.809 377.032C112.809 376.75 112.771 376.497 112.695 376.274C112.619 376.048 112.511 375.857 112.371 375.701C112.231 375.544 112.06 375.424 111.859 375.341C111.659 375.258 111.434 375.217 111.182 375.217C110.931 375.217 110.704 375.258 110.502 375.341C110.303 375.424 110.132 375.544 109.989 375.701C109.849 375.857 109.741 376.048 109.666 376.274C109.59 376.497 109.552 376.75 109.552 377.032C109.552 377.315 109.59 377.569 109.666 377.794C109.741 378.017 109.849 378.207 109.989 378.364C110.132 378.518 110.303 378.637 110.502 378.72C110.704 378.803 110.931 378.844 111.182 378.844C111.434 378.844 111.659 378.803 111.859 378.72C112.06 378.637 112.231 378.518 112.371 378.364C112.511 378.207 112.619 378.017 112.695 377.794C112.771 377.569 112.809 377.315 112.809 377.032ZM121.375 374.458L119.776 379.606H118.911L117.786 376.089C117.755 376.003 117.727 375.899 117.7 375.776C117.686 375.835 117.672 375.891 117.658 375.943C117.644 375.995 117.628 376.044 117.611 376.089L116.476 379.606H115.607L114.012 374.458H114.813C114.896 374.458 114.965 374.478 115.02 374.519C115.077 374.557 115.115 374.609 115.134 374.675L116.009 377.755C116.028 377.831 116.046 377.914 116.063 378.004C116.082 378.092 116.101 378.185 116.12 378.282C116.139 378.182 116.159 378.088 116.18 378.001C116.204 377.913 116.229 377.831 116.255 377.755L117.266 374.675C117.285 374.621 117.322 374.571 117.377 374.526C117.433 374.481 117.502 374.458 117.583 374.458H117.864C117.947 374.458 118.015 374.478 118.067 374.519C118.119 374.559 118.159 374.611 118.185 374.675L119.192 377.755C119.242 377.902 119.287 378.072 119.327 378.264C119.358 378.077 119.393 377.907 119.431 377.755L120.307 374.675C120.321 374.616 120.356 374.565 120.413 374.522C120.473 374.48 120.543 374.458 120.623 374.458H121.375Z" fill="white"/>
<rect x="130.588" y="263.595" width="33.2872" height="25.6329" fill="#F63C6B" fill-opacity="0.9"/>
<rect x="130.588" y="263.595" width="33.2872" height="25.6329" stroke="#050505" stroke-width="0.712025"/>
<path d="M136.73 271.499L136.103 269.787C136.072 269.711 136.04 269.621 136.007 269.516C135.974 269.412 135.94 269.299 135.907 269.178C135.876 269.299 135.844 269.413 135.811 269.52C135.778 269.624 135.746 269.716 135.715 269.794L135.092 271.499H136.73ZM138.421 273.443H137.68C137.597 273.443 137.529 273.423 137.477 273.383C137.425 273.34 137.386 273.288 137.36 273.226L136.975 272.176H134.843L134.458 273.226C134.439 273.281 134.403 273.33 134.348 273.375C134.293 273.421 134.226 273.443 134.145 273.443H133.397L135.423 268.295H136.399L138.421 273.443ZM143.525 270.869C143.525 271.247 143.462 271.593 143.336 271.909C143.21 272.224 143.033 272.496 142.806 272.724C142.578 272.952 142.304 273.129 141.983 273.254C141.663 273.38 141.307 273.443 140.915 273.443H138.954V268.295H140.915C141.307 268.295 141.663 268.359 141.983 268.487C142.304 268.613 142.578 268.79 142.806 269.018C143.033 269.243 143.21 269.514 143.336 269.83C143.462 270.145 143.525 270.492 143.525 270.869ZM142.542 270.869C142.542 270.587 142.504 270.334 142.428 270.111C142.355 269.885 142.247 269.695 142.104 269.541C141.964 269.385 141.793 269.265 141.592 269.182C141.392 269.099 141.167 269.057 140.915 269.057H139.915V272.681H140.915C141.167 272.681 141.392 272.64 141.592 272.557C141.793 272.474 141.964 272.355 142.104 272.201C142.247 272.044 142.355 271.854 142.428 271.631C142.504 271.406 142.542 271.152 142.542 270.869ZM146.043 270.883C146.219 270.883 146.372 270.862 146.503 270.819C146.633 270.774 146.741 270.711 146.827 270.631C146.915 270.548 146.98 270.448 147.023 270.332C147.065 270.213 147.087 270.081 147.087 269.936C147.087 269.799 147.065 269.674 147.023 269.563C146.98 269.451 146.916 269.356 146.83 269.278C146.745 269.199 146.637 269.14 146.506 269.1C146.376 269.057 146.221 269.036 146.043 269.036H145.328V270.883H146.043ZM146.043 268.295C146.388 268.295 146.685 268.336 146.937 268.416C147.189 268.497 147.396 268.61 147.56 268.754C147.724 268.899 147.845 269.072 147.923 269.274C148.004 269.476 148.044 269.697 148.044 269.936C148.044 270.186 148.003 270.415 147.92 270.623C147.837 270.83 147.712 271.008 147.546 271.158C147.38 271.307 147.171 271.423 146.919 271.506C146.67 271.589 146.378 271.631 146.043 271.631H145.328V273.443H144.37V268.295H146.043Z" fill="white"/>
<rect x="163.875" y="263.595" width="23.7935" height="25.6329" fill="#F63C6B" fill-opacity="0.7"/>
<rect x="163.875" y="263.595" width="23.7935" height="25.6329" stroke="#050505" stroke-width="0.712025"/>
<rect x="187.669" y="263.595" width="23.7935" height="25.6329" fill="#0FEDBE" fill-opacity="0.55"/>
<rect x="187.669" y="263.595" width="23.7935" height="25.6329" stroke="#050505" stroke-width="0.712025"/>
<rect x="211.462" y="263.595" width="23.7935" height="25.6329" fill="#0FEDBE" fill-opacity="0.4"/>
<rect x="211.462" y="263.595" width="23.7935" height="25.6329" stroke="#050505" stroke-width="0.712025"/>
<rect x="130.588" y="289.228" width="24.2089" height="20.6487" fill="#F63C6B" fill-opacity="0.9"/>
<rect x="130.588" y="289.228" width="24.2089" height="20.6487" stroke="#050505" stroke-width="0.712025"/>
<rect x="154.797" y="289.228" width="22.6068" height="20.6487" fill="#F63C6B" fill-opacity="0.7"/>
<rect x="154.797" y="289.228" width="22.6068" height="20.6487" stroke="#050505" stroke-width="0.712025"/>
<rect x="177.404" y="289.228" width="20.2334" height="20.6487" fill="#0FEDBE" fill-opacity="0.55"/>
<rect x="177.404" y="289.228" width="20.2334" height="20.6487" stroke="#050505" stroke-width="0.712025"/>
<rect x="197.637" y="289.228" width="18.8093" height="20.6487" fill="#0FEDBE" fill-opacity="0.8"/>
<rect x="197.637" y="289.228" width="18.8093" height="20.6487" stroke="#050505" stroke-width="0.712025"/>
<rect x="216.447" y="289.228" width="18.8093" height="20.6487" fill="#0FEDBE" fill-opacity="0.55"/>
<rect x="216.447" y="289.228" width="18.8093" height="20.6487" stroke="#050505" stroke-width="0.712025"/>
<rect x="130.588" y="309.877" width="19.2247" height="17.3734" fill="#0FEDBE" fill-opacity="0.55"/>
<rect x="130.588" y="309.877" width="19.2247" height="17.3734" stroke="#050505" stroke-width="0.712025"/>
<rect x="130.588" y="327.25" width="19.2247" height="22.8916" fill="#F63C6B" fill-opacity="0.7"/>
<rect x="130.588" y="327.25" width="19.2247" height="22.8916" stroke="#050505" stroke-width="0.712025"/>
<rect x="130.588" y="350.142" width="19.2247" height="19.8596" fill="#0FEDBE" fill-opacity="0.8"/>
<rect x="130.588" y="350.142" width="19.2247" height="19.8596" stroke="#050505" stroke-width="0.712025"/>
<rect x="130.588" y="370.001" width="19.2247" height="19.8596" fill="#0FEDBE" fill-opacity="0.55"/>
<rect x="130.588" y="370.001" width="19.2247" height="19.8596" stroke="#050505" stroke-width="0.712025"/>
<rect x="149.813" y="309.877" width="19.2247" height="17.3734" fill="#0FEDBE" fill-opacity="0.8"/>
<rect x="149.813" y="309.877" width="19.2247" height="17.3734" stroke="#050505" stroke-width="0.712025"/>
<rect x="149.813" y="327.25" width="19.2247" height="17.1954" fill="#F63C6B" fill-opacity="0.9"/>
<rect x="149.813" y="327.25" width="19.2247" height="17.1954" stroke="#050505" stroke-width="0.712025"/>
<rect x="149.813" y="344.446" width="19.2247" height="15.1385" fill="#F63C6B" fill-opacity="0.7"/>
<rect x="149.813" y="344.446" width="19.2247" height="15.1385" stroke="#050505" stroke-width="0.712025"/>
<rect x="149.813" y="359.584" width="19.2247" height="15.1385" fill="#F63C6B" fill-opacity="0.7"/>
<rect x="149.813" y="359.584" width="19.2247" height="15.1385" stroke="#050505" stroke-width="0.712025"/>
<rect x="149.813" y="374.722" width="19.2247" height="15.1385" fill="#0FEDBE" fill-opacity="0.8"/>
<rect x="149.813" y="374.722" width="19.2247" height="15.1385" stroke="#050505" stroke-width="0.712025"/>
<rect x="169.038" y="309.877" width="16.5546" height="14.9525" fill="#0FEDBE" fill-opacity="0.8"/>
<rect x="169.038" y="309.877" width="16.5546" height="14.9525" stroke="#050505" stroke-width="0.712025"/>
<rect x="185.592" y="309.877" width="16.5546" height="14.9525" fill="#0FEDBE" fill-opacity="0.55"/>
<rect x="185.592" y="309.877" width="16.5546" height="14.9525" stroke="#050505" stroke-width="0.712025"/>
<rect x="202.147" y="309.877" width="16.5546" height="14.9525" fill="#F63C6B" fill-opacity="0.5"/>
<rect x="202.147" y="309.877" width="16.5546" height="14.9525" stroke="#050505" stroke-width="0.712025"/>
<rect x="218.701" y="309.877" width="16.5546" height="14.9525" fill="#0FEDBE" fill-opacity="0.8"/>
<rect x="218.701" y="309.877" width="16.5546" height="14.9525" stroke="#050505" stroke-width="0.712025"/>
<rect x="169.038" y="324.829" width="14.7547" height="16.3766" fill="#0FEDBE" fill-opacity="0.55"/>
<rect x="169.038" y="324.829" width="14.7547" height="16.3766" stroke="#050505" stroke-width="0.712025"/>
<rect x="183.792" y="324.829" width="14.7547" height="16.3766" fill="#F63C6B" fill-opacity="0.5"/>
<rect x="183.792" y="324.829" width="14.7547" height="16.3766" stroke="#050505" stroke-width="0.712025"/>
<rect x="198.547" y="324.829" width="14.7547" height="16.3766" fill="#F63C6B" fill-opacity="0.7"/>
<rect x="198.547" y="324.829" width="14.7547" height="16.3766" stroke="#050505" stroke-width="0.712025"/>
<rect x="213.302" y="324.829" width="12.2231" height="16.3766" fill="#0FEDBE" fill-opacity="0.55"/>
<rect x="213.302" y="324.829" width="12.2231" height="16.3766" stroke="#050505" stroke-width="0.712025"/>
<rect x="225.525" y="324.829" width="9.73101" height="16.3766" fill="#F63C6B" fill-opacity="0.9"/>
<rect x="225.525" y="324.829" width="9.73101" height="16.3766" stroke="#050505" stroke-width="0.712025"/>
<rect x="169.038" y="341.206" width="14.2405" height="12.8165" fill="#0FEDBE" fill-opacity="0.55"/>
<rect x="169.038" y="341.206" width="14.2405" height="12.8165" stroke="#050505" stroke-width="0.712025"/>
<rect x="169.038" y="354.022" width="14.2405" height="12.8165" fill="#F63C6B" fill-opacity="0.7"/>
<rect x="169.038" y="354.022" width="14.2405" height="12.8165" stroke="#050505" stroke-width="0.712025"/>
<rect x="169.038" y="366.839" width="14.2405" height="13.5285" fill="#0FEDBE" fill-opacity="0.55"/>
<rect x="169.038" y="366.839" width="14.2405" height="13.5285" stroke="#050505" stroke-width="0.712025"/>
<rect x="169.038" y="380.367" width="14.2405" height="9.49369" fill="#0FEDBE" fill-opacity="0.55"/>
<rect x="169.038" y="380.367" width="14.2405" height="9.49369" stroke="#050505" stroke-width="0.712025"/>
<rect x="183.278" y="341.206" width="14.2405" height="14.2405" fill="#F63C6B" fill-opacity="0.5"/>
<rect x="183.278" y="341.206" width="14.2405" height="14.2405" stroke="#050505" stroke-width="0.712025"/>
<rect x="183.278" y="355.446" width="14.2405" height="13.5285" fill="#F63C6B" fill-opacity="0.7"/>
<rect x="183.278" y="355.446" width="14.2405" height="13.5285" stroke="#050505" stroke-width="0.712025"/>
<rect x="183.278" y="368.975" width="14.2405" height="12.8165" fill="#F63C6B" fill-opacity="0.5"/>
<rect x="183.278" y="368.975" width="14.2405" height="12.8165" stroke="#050505" stroke-width="0.712025"/>
<rect x="183.278" y="381.791" width="14.2405" height="8.06964" fill="#F63C6B" fill-opacity="0.5"/>
<rect x="183.278" y="381.791" width="14.2405" height="8.06964" stroke="#050505" stroke-width="0.712025"/>
<rect x="197.519" y="341.206" width="15.7832" height="11.3924" fill="#F63C6B" fill-opacity="0.5"/>
<rect x="197.519" y="341.206" width="15.7832" height="11.3924" stroke="#050505" stroke-width="0.712025"/>
<rect x="213.302" y="341.206" width="12.2231" height="11.3924" fill="#F63C6B" fill-opacity="0.9"/>
<rect x="213.302" y="341.206" width="12.2231" height="11.3924" stroke="#050505" stroke-width="0.712025"/>
<rect x="225.525" y="341.206" width="9.73101" height="11.3924" fill="#F63C6B" fill-opacity="0.5"/>
<rect x="225.525" y="341.206" width="9.73101" height="11.3924" stroke="#050505" stroke-width="0.712025"/>
<rect x="197.519" y="352.598" width="8.5443" height="18.6313" fill="#F63C6B" fill-opacity="0.7"/>
<rect x="197.519" y="352.598" width="8.5443" height="18.6313" stroke="#050505" stroke-width="0.712025"/>
<rect x="197.519" y="371.229" width="8.5443" height="18.6313" fill="#0FEDBE" fill-opacity="0.8"/>
<rect x="197.519" y="371.229" width="8.5443" height="18.6313" stroke="#050505" stroke-width="0.712025"/>
<rect x="206.063" y="352.598" width="20.2927" height="12.4209" fill="#F63C6B" fill-opacity="0.7"/>
<rect x="206.063" y="352.598" width="20.2927" height="12.4209" stroke="#050505" stroke-width="0.712025"/>
<rect x="226.355" y="352.598" width="8.90032" height="12.4209" fill="#0FEDBE" fill-opacity="0.8"/>
<rect x="226.355" y="352.598" width="8.90032" height="12.4209" stroke="#050505" stroke-width="0.712025"/>
<rect x="206.063" y="365.019" width="8.90032" height="12.4209" fill="#F63C6B" fill-opacity="0.5"/>
<rect x="206.063" y="365.019" width="8.90032" height="12.4209" stroke="#050505" stroke-width="0.712025"/>
<rect x="214.963" y="365.019" width="20.2927" height="12.4209" fill="#F63C6B" fill-opacity="0.5"/>
<rect x="214.963" y="365.019" width="20.2927" height="12.4209" stroke="#050505" stroke-width="0.712025"/>
<rect x="206.063" y="377.44" width="14.5965" height="12.4209" fill="#F63C6B" fill-opacity="0.9"/>
<rect x="206.063" y="377.44" width="14.5965" height="12.4209" stroke="#050505" stroke-width="0.712025"/>
<rect x="220.66" y="377.44" width="14.5965" height="12.4209" fill="#F63C6B" fill-opacity="0.5"/>
<rect x="220.66" y="377.44" width="14.5965" height="12.4209" stroke="#050505" stroke-width="0.712025"/>
</svg>
